<svg width="272" height="399" viewBox="0 0 272 399" fill="none" xmlns="http://www.w3.org/2000/svg">
<path d="M122.062 0.291499C124.7 -0.0512015 127.233 -0.330002 129.711 0.908198C131.98 2.0424 133.623 3.7296 134.358 6.1846C135.785 10.9454 133.676 16.4649 131.37 20.5856C126.213 29.7997 118.844 33.0677 109.234 35.8018C110.083 41.7628 110.306 47.5848 110.407 53.5958C113.368 53.8178 116.384 54.0558 119.305 54.6048C133.791 57.3258 146.624 64.7168 155.052 77.0358C174.145 104.944 168.16 140.09 162.413 171.067C178.06 153.239 186.672 133.766 192.711 110.938C188.162 102.902 174.151 70.6778 175.022 62.4998C175.278 60.1008 176.225 57.5888 178.197 56.0868C180.588 54.2648 184.084 54.0948 186.956 54.5918C193.056 55.6468 197.114 60.9148 200.45 65.6638C201.554 54.4358 200.462 39.5088 206.033 29.3709C207.593 26.5334 209.789 24.2009 213.05 23.3888C215.586 22.7572 218.581 23.2008 220.771 24.6484C225.503 27.7766 226.278 36.4155 227.303 41.5498C228.973 37.5696 230.6 33.2614 233.08 29.7127C234.682 27.4211 236.986 25.3185 239.86 24.9335C242.584 24.5686 246.265 25.3362 248.43 27.0199C253.995 31.348 251.218 42.4038 252.171 48.7538C254.904 46.4608 257.952 43.9608 261.635 43.5488C263.728 43.3148 265.907 43.7778 267.52 45.1858C270.083 47.4218 271.003 50.6488 271.123 53.9238C271.527 65.0038 259.566 97.4128 254.148 107.52C251.429 112.591 248.182 116.829 244.243 121.011C243.133 127.966 241.831 134.824 240.032 141.638C229.495 181.56 206.166 221.062 169.792 242.245C174.967 265.853 175.752 288.219 172.211 312.126C170.371 315.44 171.181 325.889 170.774 330.072C169.792 340.17 167.945 350.01 165.905 359.933C170.123 363.373 172.925 366.953 175.988 371.379C180.874 372.55 186.859 373.833 191.256 376.251C193.982 377.749 196.483 379.512 197.411 382.608C196.809 384.529 196.698 385.226 195.087 386.542C175.663 402.406 68.4565 398.542 41.4595 395.701C30.6515 394.564 7.53255 392.827 0.191554 383.752C0.142554 383.231 -0.148471 381.683 0.0975289 381.301C4.91853 373.812 21.0045 371.968 29.2755 370.174C37.3415 362.289 38.6655 334.299 40.3265 322.287C37.3445 322.589 34.3376 322.866 31.3426 322.611C25.1226 322.08 19.0625 318.773 15.1105 313.969C-5.44547 288.977 12.0955 248.822 26.8445 225.491C34.9915 212.604 48.4105 198.944 51.5325 183.827C54.9205 167.423 44.6335 134.607 47.0155 111.011C49.3345 88.0318 62.1835 65.9438 85.0355 58.3298C90.8135 56.4048 100.227 55.2038 104.829 51.4338C104.848 47.5568 105.139 42.8138 102.519 39.6328C99.1935 35.5957 91.4545 36.4506 86.6525 36.0462C80.2495 35.5068 74.9315 32.476 70.8445 27.556C68.4055 24.6209 65.4345 20.1956 65.9065 16.1685C66.1335 14.2375 67.0795 12.7096 68.6135 11.5349C72.0385 8.911 77.2885 8.6833 81.3825 9.3328C90.4765 10.7755 96.3815 15.822 101.667 23.0345C102.041 21.9551 102.433 20.8822 102.844 19.8165C106.859 9.4611 112.125 4.6743 122.062 0.291499Z" fill="#050605"/>
<path d="M213.488 28.7976L216.475 29.3766C226.533 36.8902 216.946 52.034 221.577 61.101C222.561 63.028 223.077 63.313 225.017 63.932C231.194 60.763 232.366 44.229 235.215 37.7639C236.489 34.873 238.083 32.7312 241.127 31.5574C242.075 31.6867 243.389 31.6274 244.098 32.2729C251.628 39.125 240.913 58.797 241.705 68.107C241.89 70.279 242.571 70.404 244.189 71.742C251.171 68.159 252.258 55.167 259.187 50.556C261.089 49.29 261.683 49.446 263.798 49.876C264.614 50.998 264.956 52.101 265.034 53.484C265.516 61.955 253.116 97.997 248.47 106.307C246.014 110.7 241.596 114.817 238.215 118.556C237.657 123.142 236.708 127.739 235.595 132.223C225.947 171.084 203.298 213.685 167.959 234.956C167.734 233.625 167.496 232.297 167.246 230.97C166.648 227.827 166.218 225.218 163.489 223.367L161.653 224.366C159.286 229.405 165.757 259.891 166.431 267.377C168.594 291.39 163.481 340.061 157.642 363.057C160.723 365.39 166.192 368.681 166.859 372.684C167.163 374.506 166.503 374.915 165.471 376.294C163.801 377.177 161.973 377.722 160.092 377.896C153.203 378.596 128.552 377.695 123.64 373.36C120.549 370.632 120.326 345.101 119.981 339.237C122.249 338.606 124.51 337.731 126.678 336.822C129.632 335.584 133.983 333.169 135.226 330.134C134.816 329.918 134.396 329.727 133.945 329.615C130.956 328.866 101.313 334.249 98.6374 335.904C92.4494 339.731 87.0874 361.117 85.7664 368.618C85.2444 371.582 85.7774 374.367 85.1014 377.42C84.2424 378.557 83.3244 379.384 82.0164 379.989C74.7024 383.373 47.2254 383.92 39.4394 381.149C38.0904 379.735 37.4854 379.386 37.5224 377.302C37.5954 373.095 42.1664 369.697 45.0284 366.996C46.4474 352.398 50.6654 337.756 51.1444 323.108C51.7054 305.952 47.8344 289.771 50.3494 272.447C52.8924 263.065 56.0994 254.47 59.2294 245.361C59.9594 243.237 59.6314 242.659 58.7184 240.742L56.8164 240.517C45.7394 250.411 41.5394 272.843 41.6424 287.258C41.6964 294.759 43.7104 306.268 40.8324 313.27C38.9644 315.125 37.8094 316.212 34.9984 316.299C30.8064 316.428 25.7614 314.189 22.7594 311.326C17.9034 306.695 16.0144 299.261 15.5554 292.792C13.8414 268.586 29.2074 242.328 42.1664 222.996C49.6674 211.808 58.3144 200.722 61.7034 187.448C66.9764 166.794 58.8084 144.02 58.2994 123.065C57.8944 106.373 60.4824 88.931 72.5144 76.387C81.7154 66.671 94.4704 61.112 107.851 60.988C121.657 60.765 134.339 64.925 144.345 74.715C175.816 105.511 154.181 151.735 155.151 187.823C155.214 190.17 155.562 191.232 157.213 192.805L158.861 192.348C161.309 189.771 160.935 186.05 161.052 182.708C183.113 163.231 192.415 139.261 199.116 111.282C195.803 103.775 179.694 67.194 181.293 62.139C181.736 60.74 182.541 60.591 183.746 59.949C184.615 60.053 185.433 60.216 186.267 60.487C193.389 62.803 196.503 69.817 199.69 75.931C200.566 76.114 201.439 76.311 202.308 76.523C211.217 78.699 213.325 80.438 217.874 87.825C219.118 89.845 219.441 90.737 221.819 91.305L223.618 89.51C224.087 87.653 224.474 86.704 223.773 84.82C221.218 77.957 212.422 73.413 206.209 70.415C206.945 58.325 205.997 38.625 213.488 28.7976Z" fill="#FDFDFD"/>
<path d="M106.939 128.749C107.938 123.894 107.029 124.809 110.336 121.798C112.311 121.076 135.327 121.596 137.73 122.359C142.585 126.725 135.85 134.674 132.331 138.41C119.951 145.98 113.354 139.376 106.939 128.749Z" fill="#050605"/>
<path d="M118.643 128.752C123.764 130.641 125.773 131.116 129.621 134.893C124.459 138.321 117.449 137.105 114.056 131.979L114.678 130.109L118.643 128.752Z" fill="#A7CFB7"/>
<path d="M109.696 17.6143C113.197 12.047 120.699 3.01722 128.055 6.85552C130.33 10.7561 128.453 14.884 126.901 18.7203C123.862 23.687 112.144 34.4139 107.409 27.2369C107.238 23.2898 108.267 21.2881 109.696 17.6143Z" fill="#9CCAAF"/>
<path d="M72.4304 14.4691C75.1714 14.2087 78.0634 13.8999 80.7904 14.4217C86.4104 15.4972 94.1644 20.3327 97.3544 25.0786C98.9484 27.4505 99.8434 28.7565 99.2644 31.5745C95.8814 31.9634 92.4754 32.3778 89.1164 31.6275C83.5704 30.3885 76.5244 27.5286 73.4104 22.4344C71.6504 19.5546 71.7124 17.6519 72.4304 14.4691Z" fill="#9CCAAF"/>
<path d="M92.1589 92.7584C94.3539 91.3384 97.2849 91.9704 98.6999 94.1694C100.115 96.3674 99.4759 99.2964 97.2739 100.706C95.0799 102.111 92.1629 101.475 90.7529 99.2844C89.3419 97.0934 89.9719 94.1744 92.1589 92.7584Z" fill="#050605"/>
<path d="M129.159 88.7584C131.354 87.3384 134.285 87.9704 135.7 90.1694C137.115 92.3674 136.476 95.2964 134.274 96.7064C132.08 98.1114 129.163 97.4754 127.753 95.2844C126.342 93.0934 126.972 90.1744 129.159 88.7584Z" fill="#050605"/>
</svg>
