<svg width="400" height="400" viewBox="0 0 400 400" fill="none" xmlns="http://www.w3.org/2000/svg">
<path d="M343.31 299.885C344.827 299.8 355.532 298.933 355.842 300.568C360.115 323.003 338.352 339.495 322.832 351.51C317.805 355.113 312.4 359.763 306.855 362.475C281.3 374.978 247.39 370.243 220.022 368.873C200.296 368.045 180.565 367.348 160.83 366.788C133.671 365.815 106.482 365.183 79.319 364.365C64.8443 363.933 46.6053 366.415 32.6895 362.203C23.5301 359.798 10.6963 350.93 9.99743 340.48C9.36808 331.068 21.7721 328.878 28.4225 326.29C33.441 324.338 38.6125 322.2 43.6923 320.13C50.3213 317.465 56.9185 314.72 63.4825 311.898C67.6653 310.068 76.6008 305.233 80.7623 304.843C103.968 302.663 127.746 302.578 151.012 301.953C203.059 300.918 255.113 300.248 307.17 299.938C319.205 299.845 331.272 300.053 343.31 299.885Z" fill="#1B1A1B"/>
<path d="M92.3124 315.058C100.57 314.765 110.002 314.97 118.367 314.973L164.414 314.975L305.778 314.988C300.96 318.158 296.03 321.66 291.328 325.005C284.498 329.865 277.295 334.438 271.265 340.263C270.815 340.698 269.773 340.5 269.19 340.44C262.458 339.675 254.158 340.015 247.325 340.083C227.039 340.288 206.829 338.433 186.631 337.678C156.737 336.563 126.645 337.013 96.7411 336.173C83.1989 335.793 68.9609 335.583 55.4849 334.25C61.3634 330.82 68.8821 327.2 74.9021 323.833C78.4044 321.875 89.1884 315.955 92.3124 315.058Z" fill="#1F8B61"/>
<path d="M130.475 318.05C131.488 317.993 131.629 317.875 131.975 318.83C131.714 320.515 130.345 322.003 129.294 323.343C134.905 323.098 140.52 322.99 146.136 323.023C147.51 321.56 151.573 317.298 153.715 319.035C154.066 320.503 153.104 321.685 152.317 322.998C158.189 323.105 165.177 322.78 170.922 323.175C172.05 321.353 174.46 319.135 176.699 319.128C178.387 320.085 177.367 321.758 176.834 323.29C182.628 323.323 188.885 323.07 194.733 322.99C196.143 321.815 198.049 319.915 199.826 320.95C200.332 321.79 200.204 322.285 200.163 323.275C205.744 323.24 211.326 323.258 216.907 323.323C218.044 321.968 221.846 317.71 223.687 319.688C224 321.05 223.351 322.22 222.826 323.545C227.134 323.383 234.926 323.75 239.248 324.063C240.635 322.378 242.532 320.378 244.842 320.15C245.665 320.438 245.342 320.185 245.798 320.99C245.872 322.14 245.376 323.115 244.961 324.22C250.638 324.65 255.885 324.938 261.61 325.475C263.275 323.263 267.135 318.515 270.24 318.813C272.278 320.363 268.203 324.708 266.993 325.885C268.51 326.035 273.28 326.223 273.78 327.753C272.238 329.255 266.795 328.745 264.678 328.69C263.368 330.535 260.618 333.41 258.258 333.77C257.448 333.52 257.738 333.763 257.345 333.038C257.27 331.18 258.035 330.04 258.895 328.428C256.035 328.59 242.77 327.933 241.306 328.9C240.4 330.418 237.88 334.425 235.853 332.788C235.181 331.223 235.747 329.915 236.178 328.245C230.557 328.375 224.448 328.253 218.788 328.25C217.773 329.81 215.387 332.975 213.343 331.703C212.728 330.408 213.273 329.37 213.734 328.013C208.075 327.98 202.417 327.978 196.758 328.005C195.687 329.585 193.077 333.198 190.979 331.828C190.283 330.353 190.765 329.288 191.221 327.745C185.098 327.765 178.975 327.753 172.852 327.708C171.783 329.188 170.398 330.675 168.565 331.088C166.746 330.573 167.399 328.898 167.74 327.49L148.263 327.463C147.11 328.88 144.331 332.245 142.367 331.043C141.758 329.665 142.181 328.925 142.659 327.493C139.369 327.468 136.078 327.49 132.789 327.558C130.37 327.623 126.497 327.888 124.23 327.573C123.516 328.395 122.741 329.16 121.912 329.865C120.856 330.773 119.482 331.668 118.048 331.55C116.536 330.46 117.794 328.598 118.451 327.26C116.522 327.33 102.059 326.533 100.444 326.165C99.2154 327.438 94.5471 332.73 92.8009 330.988C92.3529 329.405 93.3499 327.45 93.9839 325.93C93.8311 324.955 93.5304 323.493 94.9684 323.57C97.2876 323.695 98.3104 321.848 100.062 320.593C101.155 319.81 103.714 318.315 104.723 319.868C104.729 321.023 104.071 322.165 103.578 323.263L122.337 323.295C124.745 320.748 127.097 318.905 130.475 318.05Z" fill="#1B1A1B"/>
<path d="M357.603 29.3896C365.035 28.8458 374.35 28.9876 380.34 33.9338C385.118 37.8463 387.008 44.5485 387.378 50.559C388.21 64.0293 389.763 77.6076 389.793 91.1083C389.798 92.7581 390.23 99.215 389.95 100.389C388.918 104.722 389.228 110.924 388.143 114.857C387.538 116.983 386.493 118.958 385.075 120.653C377.605 129.616 361.385 128.905 350.673 129.76C338.275 130.749 325.693 131.052 313.31 132.207C289.793 134.428 284.788 128.797 283.508 105.628C282.948 95.1181 282.555 84.5996 282.333 74.0771C282.02 61.2506 279.44 39.8351 295.478 35.6246C297.123 35.1928 300.548 35.1563 302.35 35.0333C306.173 34.7796 309.988 34.4583 313.798 34.0698C327.328 32.6518 344.403 29.9748 357.603 29.3896ZM311.873 96.5633C316.31 93.3978 321.81 91.1241 327.453 91.6843C330.338 91.9708 335.153 98.9256 337.775 101.619C339.153 99.7026 343.558 92.6776 345.868 92.5891C359.145 92.0808 372.168 102.45 375.088 115.35C375.26 116.107 375.153 116.49 374.79 117.09C374.358 117.085 373.665 117.067 373.418 116.639C369.2 109.365 365.613 104.369 357.893 100.102C357.203 102.955 352.52 114.294 350.263 115.815C348.455 115.917 341.508 110.014 340.08 108.481C340.503 114.637 341.028 119.625 340.428 125.804L355.935 124.873C364.008 124.391 377.28 124.339 382.865 117.877C386.083 114.155 386.135 109.521 386.503 104.971C386.543 104.466 387.173 103.669 387.263 103.345C387.54 102.341 387.365 100.064 387.26 98.9893C386.355 89.8343 385.14 80.6966 384.333 71.5321C383.953 67.3243 383.613 63.113 383.313 58.8986C382.14 42.2635 381.543 33.5951 361.838 33.8606C342.768 35.1476 323.925 38.2043 304.853 38.309C299.318 38.3395 294.345 37.2366 290.485 42.1328C285.978 47.6656 286.183 56.9913 286.505 63.7743C287.278 79.8418 288.065 96.2958 289.058 112.305C289.728 123.101 293.805 129.019 305.23 128.003C315.44 127.095 326.21 126.982 336.353 126.014C336.67 125.984 336.985 125.952 337.303 125.917C335.69 119.66 335.593 114.212 335.768 107.851C334.063 109.773 327.063 116.517 324.39 117.776C324.05 117.936 323.13 117.524 322.92 117.197C320.345 113.187 320.088 101.666 320.185 97.2326C310.985 101.722 306.62 107.649 302.09 116.659C301.485 117.863 300.833 119.906 299.41 119.616C299.033 119.263 298.478 118.634 298.588 118.073C300.108 110.356 305.813 101.315 311.873 96.5633ZM323.565 96.2393C324.368 100.045 325.468 106.779 325.918 110.665C327.695 109.069 328.818 107.992 330.855 106.71C332.043 105.968 333.133 105.288 334.365 104.62C331.52 102 329.455 99.3871 327 96.3998L323.565 96.2393ZM346.918 97.2901C345.02 99.7538 343.178 102.261 341.395 104.809C342.558 105.45 348.348 109.209 348.783 109.197L348.988 108.946C350.88 105.047 352.5 102.235 355.233 98.7996C352.46 97.9236 349.88 97.2098 346.918 97.2901Z" fill="#1B1A1B"/>
<path d="M336.127 40.3397C341.995 39.8417 346.705 44.842 352.277 45.593C357.275 46.2667 356.632 42.2317 358.237 40.9617C361.777 41.1957 359.942 47.1307 357.48 48.6117C350.29 52.9382 343.997 46.2162 337.06 45.0377C327.4 45.9797 324.547 52.136 325.49 60.6427C325.58 61.474 325.355 62.3162 324.742 62.9037C319.172 62.2015 318.02 42.5872 336.127 40.3397Z" fill="#1B1A1B"/>
<path d="M337.095 48.5391L337.377 48.5153C349.042 47.6213 347.145 64.8968 359.902 59.6648C361.037 59.2003 361.778 57.2741 363.45 57.1051C365.47 58.3701 363.97 60.6661 363.007 62.0666C361.43 63.6028 359.47 64.6851 357.33 65.1993C347.64 67.4643 344.51 55.8378 338.342 51.9191C337.077 51.9261 336.358 52.1643 335.29 51.4416C334.4 49.8863 335.897 49.2233 337.095 48.5391Z" fill="#1B1A1B"/>
<path d="M346.513 63.6267C352.715 64.173 356.82 69.6912 351.91 75.1272C350.907 76.2355 349.25 76.8735 347.882 77.497C346.9 79.6637 344.532 83.6867 344.067 85.5595C343.462 87.9997 343.737 90.3957 342.745 93.2752C341.757 93.3937 342.22 93.4582 341.305 93.0777C339.862 91.3365 339.932 88.6187 339.427 86.54C338.547 82.9062 340.515 82.016 341.962 79.206C342.625 77.9172 342.782 75.7647 343.592 74.26C345.045 71.5575 348.3 73.7385 349.392 70.752C350.17 68.2957 346.99 67.179 346.013 65.1177C346.02 64.1405 345.945 64.5115 346.513 63.6267Z" fill="#1B1A1B"/>
<path d="M325.508 64.0891C326.958 64.0188 327.993 63.8543 329.17 64.7671C329.748 66.9011 318.183 70.7476 329.79 74.4063C330.348 75.6446 330.98 78.1233 331.585 79.1451C335.16 85.1953 335.693 85.4811 333.99 92.6803C333.4 93.0566 333.448 93.0763 332.758 93.0576C331.143 92.1338 331.373 88.0038 330.578 86.6983C328.805 83.7913 327.323 81.6646 325.975 78.4918C324.14 77.3568 322.473 76.3201 321.368 74.4018C318.77 69.8961 320.078 65.2643 325.508 64.0891Z" fill="#1B1A1B"/>
<path d="M301.265 46.5152C304.29 45.939 307.218 47.8872 307.855 50.8987C308.493 53.91 306.605 56.878 303.608 57.5762C301.613 58.041 299.523 57.3912 298.145 55.8777C296.765 54.3642 296.313 52.2237 296.96 50.2812C297.608 48.339 299.255 46.8985 301.265 46.5152Z" fill="#1F8B61"/>
<path d="M335.432 61.5778C335.965 61.6453 336.645 61.6315 336.962 62.1685C338.37 64.5658 338.105 73.6125 336.25 75.27C333.102 74.4183 333.85 63.885 335.432 61.5778Z" fill="#1B1A1B"/>
<path d="M359.583 52.0357C360.093 51.993 360.248 52.047 360.758 52.1315C361.61 53.5607 360.013 54.8452 358.84 55.533C356.848 56.7012 355.45 56.5662 353.348 55.9367C352.32 55.3752 351.215 54.891 351.46 53.6235C352.713 52.6197 356.63 52.942 359.583 52.0357Z" fill="#1B1A1B"/>
<path d="M198.195 61.0897C201.137 60.8785 204.244 61.009 206.989 61.888C217.141 65.1397 219.317 73.8247 225.388 80.62C228.477 84.0777 235.265 85.804 237.945 91.407C240.58 96.9135 239.3 102.21 237.575 107.737C242.017 110.755 243.392 115.161 240.771 120.103C239.565 122.377 237.654 123.831 235.699 125.432C233.749 135.491 232.905 140.581 225.639 148.29C225.103 150.833 224.739 155.19 224.288 158.078L226.089 159.86C234.661 152.568 234.218 154.97 240.414 163.226C240.872 162.203 242.18 158.867 243.76 159.512C247.837 161.175 251.848 163.852 255.643 166.128C277.603 179.299 299.673 193.684 315.705 214.02C327.053 228.917 336.98 247.8 334.713 267.09C333.48 278.885 326.75 289.005 316.083 294.305C314.18 295.25 311.055 298.082 309.493 295.912C309.603 295.357 309.713 295.182 310.265 294.875C313.458 293.097 316.695 291.42 319.613 289.182C322.903 286.702 325.61 283.53 327.545 279.892C332.753 270.235 332.683 257.375 329.318 247.064C317.713 211.496 285.13 188.941 254.43 170.706C251.123 168.741 247.83 166.776 244.439 164.952C242.208 171.154 237.535 180.995 234.798 187.27L216.788 228.877C214.451 234.305 210.441 242.943 208.639 248.307C209.165 250.44 209.819 253.382 210.407 255.427C212.359 262.22 214.905 296.307 210.06 299.967C207.888 298.185 208.247 286.89 208.229 283.84C208.184 279.11 208.051 274.382 207.832 269.657C207.259 257.692 205.459 253.882 201.261 242.843C198.999 236.814 196.923 230.717 195.035 224.561C189.036 204.519 183.836 184.501 178.031 164.43C171.8 167.347 163.493 172.655 157.577 176.508C145.824 183.999 134.501 192.143 123.66 200.902C117.196 206.23 111.602 211.658 105.349 217.101C103.91 218.345 101.69 220.678 99.8998 220.802C96.1181 219.21 81.0678 186.727 77.8981 180.78C68.0291 186.919 56.3373 193.636 46.1916 199.37C46.9288 204.558 48.2223 209.617 49.4726 214.688C61.6746 264.182 98.6081 287.517 147.83 268.865C147.657 264.267 147.322 243.464 149.751 240.263L150.165 240.207C152.71 244.334 149.567 284.862 150.278 292.607C150.403 293.97 150.4 297.672 149.225 298.587C146.819 298.23 147.502 293.087 147.422 291.305C147.141 285.082 147.398 278.84 147.535 272.615C123.729 281.787 97.7511 282.487 76.2888 266.965C54.7781 251.41 46.2393 225.125 41.5101 200.128C41.3613 199.342 41.1986 197.631 41.8713 196.941C47.5306 192.716 54.8386 189.179 60.8378 185.486C66.3436 182.097 71.1071 179.399 76.6103 176.181C77.5003 175.661 78.5941 175.295 79.5621 175.187C81.7213 176.752 87.0641 188.992 88.6506 192.158C92.5336 199.816 96.5988 207.381 100.843 214.845C105.091 211.312 109.864 206.617 114.091 202.841C119.016 198.498 124.106 194.346 129.349 190.393C136.106 185.231 174.259 157.88 180.343 159.091C181.39 159.299 181.905 160.503 182.408 161.334C184.501 159.233 190.112 154.687 193.047 155.09C194.98 156.707 198.581 163.03 200.322 165.564C202.899 169.317 206.182 173.713 208.555 177.515C214.306 171.443 218.47 166.576 224.896 160.939C223.73 160.894 222.584 160.976 221.671 160.311C220.587 158.161 220.787 149.225 221.204 146.646C221.458 145.077 225.731 141.642 226.708 139.585C228.244 136.354 229.349 133.193 229.982 129.62C230.304 127.963 230.688 123.799 231.395 122.536C231.846 121.73 235.481 119.734 236.42 118.398C237.174 117.324 238.196 116.054 237.899 114.557C236.922 109.634 232.913 110.238 229.902 108.023C227.61 106.338 228.216 101.764 228.023 99.2827C227.958 98.4567 227.657 98.017 226.887 97.5682C219.182 93.0745 205.604 93.9085 196.978 95.5037C193.631 96.1857 190.796 94.8442 188.144 92.9225C180.068 87.0715 179.226 75.9312 185.282 68.2742C188.692 63.9632 192.775 61.8177 198.195 61.0897ZM224.755 198.446C222.418 197.187 221.792 195.97 220.069 194.056C216.353 189.928 212.682 185.541 208.883 181.502C203.923 186.936 199.479 192.73 194.531 198.165C193.898 198.86 193.506 198.85 192.652 198.741C192.959 200.977 198.064 219.148 198.993 220.782C199.685 219.066 201.2 210.942 202.666 210.589C205.077 210.01 212.569 209.801 214.841 210.555C215.737 211.418 216.057 215.924 216.342 217.563C217.256 216.431 223.163 201.633 224.755 198.446ZM198.861 64.5867C191.305 66.07 185.822 73.7077 187.573 81.3472C187.942 82.958 191.008 86.9317 192.9 86.2525C193.077 85.6912 193.119 85.7107 192.985 85.1495C190.656 77.7465 191.317 71.588 199.614 68.6352C201.534 67.9522 203.9 68.826 205.355 67.2647L205.458 66.9145C204.445 65.086 200.832 64.5082 198.861 64.5867ZM191.035 160.21C188.372 161.565 185.718 162.938 183.074 164.328L188.687 184.675C189.816 188.78 190.968 193.464 192.332 197.459L194.001 193.94C196.769 188.639 200.259 183.747 204.37 179.403C200.356 174.46 196.807 168.63 193.345 163.295C192.708 162.312 192.028 160.689 191.035 160.21ZM232.574 160.152C225.136 167.125 220.155 171.406 213.301 179.388C217.122 183.563 221.027 187.945 223.836 192.881L225.633 196.334C229.909 185.867 234.459 175.514 239.275 165.284C237.807 164.254 233.623 160.417 232.574 160.152Z" fill="#1B1A1B"/>
<path d="M207.842 184.734C211.146 184.777 217.694 192.264 220.098 194.862C219.475 197.057 216.101 205.303 214.65 207.385C213.888 208.478 211.05 208.488 209.688 208.523C206.763 208.413 206.102 209.021 202.297 208.408C201.305 206.221 197.681 198.017 198.362 196.123C199.388 193.275 205.287 186.263 207.842 184.734Z" fill="#1F8B61"/>
<path d="M198.993 220.782C199.684 219.066 201.199 210.942 202.666 210.589C205.077 210.01 212.568 209.801 214.841 210.555C215.737 211.418 216.057 215.924 216.342 217.563C213.806 224.848 209.114 235.161 205.812 242.317C204.914 238.336 199.066 223.547 198.993 220.782Z" fill="#1F8B61"/>
<path d="M48.1158 35.3385C58.17 35.3992 66.289 43.5655 66.2918 53.62C66.2948 63.6742 58.18 71.845 48.126 71.9112C37.9813 71.9782 29.721 63.7747 29.7183 53.63C29.7155 43.4852 37.9713 35.277 48.1158 35.3385Z" fill="#1F8B61"/>
<path d="M145.085 113.387C155.459 112.527 167.471 113.597 177.916 113.948C179.272 113.994 180.713 114.121 181.613 115.179L181.53 115.777C181.214 116.092 180.897 116.369 180.424 116.389C176.976 116.531 173.516 116.708 170.07 116.893L142.606 118.184C136.496 118.469 130.702 118.558 124.634 119.535C116.272 120.677 112.913 125.795 111.201 133.712C108.081 148.137 107.626 162.653 104.722 177.19L101.47 194.163C101.053 196.369 100.073 203.816 98.5926 204.992C97.6706 205.125 98.1009 205.2 97.2646 204.721C95.8344 202.934 101.248 170.933 101.958 166.605C104.306 152.296 103.26 132.077 112.275 120.38C117.469 113.64 136.666 113.547 145.085 113.387Z" fill="#1B1A1B"/>
<path d="M377.77 132.811C378.393 133.085 379.175 133.473 379.198 134.304C379.178 137.16 379.17 140.062 379.075 142.917C378.763 151.387 379.108 160.239 378.125 168.653C374.333 201.122 370.243 233.57 366.033 265.988C365.65 268.935 362.793 286.775 361.575 288.605C360.973 288.345 360.008 287.823 360.078 287.025C360.353 283.898 360.708 280.77 361.045 277.645L363.678 254.273L370.335 196.305C371.608 185.287 373.018 174.197 374.043 163.161C374.86 154.347 374.968 145.378 376.255 136.582C376.528 134.72 376.293 134.176 377.77 132.811Z" fill="#1B1A1B"/>
<path d="M168.003 178.151C168.632 178.402 168.671 178.475 169.184 178.889C170.185 181.107 167.47 207.6 166.978 211.438L167.169 211.384C169.74 210.675 180.263 207.964 181.937 209.917C182.112 210.855 181.988 211.862 181.539 212.702C178.395 218.593 174.324 224.268 171.069 230.087C172.469 231.741 176.729 235.458 178.512 237.163C185.558 243.902 192.985 250.633 199.085 258.263C199.693 259.023 199.643 259.19 199.525 260C198.848 260.558 199.219 260.435 198.398 260.45C194.996 257.953 165.999 233.387 165.773 230.555C165.603 228.425 173.434 217.129 174.998 214.331C172.768 215.056 163.598 217.832 162.119 216.183C161.948 215.215 161.874 213.927 162.022 212.942C163.692 201.819 164.368 190.437 166.966 179.485C167.09 178.963 167.606 178.485 168.003 178.151Z" fill="#1B1A1B"/>
<path d="M255.71 176.108C256.742 176.24 256.527 176.063 257.225 176.631C257.7 177.603 258.25 182.294 258.337 183.469C258.62 187.199 262.432 204.846 260.297 207.047C258.095 207.881 249.088 207.613 246.469 207.398C247.974 209.968 256.84 224.198 256.62 226.017C256.327 228.43 236.666 245.453 234.15 247.568C229.74 251.275 225.191 254.84 220.661 258.4C220.173 258.708 220.205 258.69 219.637 258.798C218.773 258.37 218.955 258.62 218.658 257.893C219.244 254.805 247.204 229.434 251.412 225.455C248.13 219.625 244.539 213.772 241.385 207.865C240.769 206.712 240.386 205.295 240.844 204.016C242.627 202.344 253.46 202.969 256.607 202.987C256.572 202.86 256.445 202.41 256.432 202.255C255.775 194.312 254.165 185.615 254.9 177.702C254.945 177.21 255.442 176.482 255.71 176.108Z" fill="#1B1A1B"/>
<path d="M193.711 97.1071C194.518 97.1371 195.569 97.2793 195.608 98.2523C195.757 102.016 196.186 106.562 196.28 110.242C196.359 113.348 190.434 112.322 189.396 115.642C188.826 117.466 188.403 118.61 189.138 120.668C190.231 123.569 193.16 123.372 195.482 124.391C197.553 125.487 197.349 129.258 197.607 131.254C198.451 137.795 198.964 143.928 206.156 146.227C209.608 147.331 214.935 145.394 217.297 146.637C217.453 146.883 217.723 147.133 217.594 147.392C215.18 152.256 208.246 151.631 204.138 150.544C204.101 152.11 204.226 159.968 202.751 161.269C202.07 161.871 200.276 162.206 199.525 161.008C199.677 159.875 199.825 159.999 200.611 159.034C200.357 155.498 200.085 151.964 199.794 148.43C198.792 147.194 197.731 146.215 196.747 144.836C193.41 140.161 193.051 134.208 192.514 128.659C192.085 128.527 191.659 128.387 191.235 128.239C185.284 126.142 182.723 120.441 184.853 114.563C186.154 110.97 188.615 109.542 191.925 108.095C192.234 105.055 191.959 99.4788 193.711 97.1071Z" fill="#1B1A1B"/>
<path d="M272.93 240.074C273.228 240.136 273.588 240.143 273.825 240.35C275.905 242.146 275.858 258.575 276.123 262.112C278.338 260.747 290.615 255.747 292.245 258.23C291.833 262.227 279.99 265.362 276.37 266.567C276.235 269.412 276.74 275.117 276.84 278.26C277.093 280.56 277.9 295.462 275.28 295.87C275.195 295.797 275.108 295.73 275.028 295.655C272.475 293.282 271.87 274.012 271.623 269.462C271.298 263.472 270.258 246.75 271.84 241.696C272.04 241.06 272.493 240.561 272.93 240.074Z" fill="#1B1A1B"/>
<path d="M18.6688 127.839C18.9788 127.925 19.8421 128.164 20.0099 128.424C23.8019 134.317 24.9552 139.776 29.5738 145.405C34.7006 151.653 38.6078 152.783 44.7766 156.663C45.0678 157.211 45.3286 157.775 45.5578 158.352C46.8131 161.531 48.6343 168.393 49.1373 171.922C49.1796 172.218 48.8546 173.016 48.7158 173.331C45.2816 171.96 42.7388 163.593 41.1721 160.114C39.6683 159.09 37.7853 158.193 36.2443 157.264C27.3086 151.877 20.7676 143.368 18.5979 133.105C18.1839 131.146 17.5547 129.709 18.6688 127.839Z" fill="#1B1A1B"/>
<path d="M65.316 114.609C65.7575 114.701 66.5332 114.829 66.859 115.125C74.6595 122.212 76.7512 133.205 71.5147 142.473C69.8247 145.658 68.7712 147.893 68.5677 151.486C68.4072 154.318 70.373 160.359 68.9352 162.305C66.7592 161.511 66.3425 159.35 65.498 157.607C60.4275 147.139 69.1632 141.439 69.6905 131.674C69.9867 126.189 66.732 121.779 64.9927 116.825C64.6092 115.732 64.8115 115.526 65.316 114.609Z" fill="#1B1A1B"/>
<path d="M75.1926 166.52C75.3866 166.491 75.5809 166.463 75.7749 166.434C76.2339 166.4 76.6841 166.572 77.0034 166.903C78.1316 168.088 78.8726 172.126 77.4461 173.408L76.7704 173.346C75.7826 172.794 75.4876 172.143 74.8596 171.19C68.4329 175.024 58.3566 179.914 51.4386 183.423C51.6539 184.275 51.8131 185.128 51.9849 185.989C51.5709 186.897 51.2969 187.022 50.3621 187.079C49.2541 186.52 48.5029 185.491 48.0009 184.374C47.5754 183.426 47.2129 182.074 47.6964 181.078C48.9591 178.476 71.2706 167.742 75.1926 166.52Z" fill="#1B1A1B"/>
<path d="M249.128 114.77C247.842 114.651 246.549 114.589 246.675 113.05C247.344 111.895 248.434 111.569 249.658 111.252C253.71 110.203 277.515 109.067 280.71 110.841C280.937 110.967 281 111.026 281.225 111.193C282.032 114.659 266.475 115.005 264.015 114.782C260.348 114.221 252.787 114.425 249.128 114.77Z" fill="#1B1A1B"/>
<path d="M42.7879 110.611C45.5191 111.267 48.0736 117.817 49.8064 120.231C51.7259 122.906 53.4979 125.383 55.7279 127.853C56.7014 128.931 59.6699 132.114 57.9384 133.2C50.8974 132.332 43.1594 120.524 41.9654 113.978C41.6839 112.434 41.8819 111.816 42.7879 110.611Z" fill="#1B1A1B"/>
<path d="M25.9719 121.581C27.0874 121.769 27.8286 122.258 28.3336 123.334C31.1739 129.388 35.3854 134.51 38.3949 140.379C38.8744 141.314 38.7236 142.034 38.3351 142.882C37.7946 142.685 37.2604 142.472 36.7329 142.243C31.3771 139.879 23.154 127.881 25.9719 121.581Z" fill="#1B1A1B"/>
<path d="M83.5897 275.655C87.8799 276.023 83.9477 291.493 83.2437 294.418C82.8999 295.845 82.0914 297.145 81.2664 298.355C79.6639 297.938 79.2019 297.165 79.2169 295.455C79.2617 290.278 80.1829 279.388 83.5897 275.655Z" fill="#1B1A1B"/>
<path d="M34.443 114.886C36.9665 115.09 38.701 118.091 39.7923 120.152C42.1548 124.614 46.317 128.931 45.9503 134.177C41.5908 132.973 38.6863 127.81 36.507 124.104C34.715 121.057 33.8073 118.396 34.443 114.886Z" fill="#1B1A1B"/>
<path d="M218.411 128.109C218.994 128.249 218.807 128.209 219.336 128.583C221.698 133.07 214.994 143.995 208.182 136.256C207.544 134.895 206.82 132.934 207.578 131.496C209.243 130.92 211.472 134.574 213.144 134.145C215.325 133.586 216.907 129.787 218.411 128.109Z" fill="#1B1A1B"/>
<path d="M211.243 106.318C211.856 106.348 212.024 106.418 212.609 106.575C214.118 108.393 211.964 121.242 211.69 124.275C211.595 125.326 211.215 126.258 210.566 127.097C206.415 124.086 209.279 110.392 211.243 106.318Z" fill="#1B1A1B"/>
<path d="M199.554 96.5208C203.016 96.3743 205.575 97.4803 207.379 100.603C207.782 101.301 207.912 101.886 207.665 102.652C206.984 103.094 207.297 102.997 206.356 102.872C203.02 100.322 200.825 100.58 197.48 98.6053C197.238 98.4623 197.415 98.017 197.469 97.7265C198.068 96.9958 198.663 96.87 199.554 96.5208Z" fill="#1B1A1B"/>
<path d="M223.387 97.8359C225.044 98.0179 227.384 98.7324 227.268 100.787C226.016 102.075 223.513 100.504 220.84 102.179C220.052 102.83 219.622 103.339 218.629 103.468C217.754 103.147 218.075 103.422 217.612 102.645C217.442 99.3652 220.676 98.1259 223.387 97.8359Z" fill="#1B1A1B"/>
<path d="M222.1 106.44C226.075 107.132 225.896 111.817 223.012 114.068C219.15 113.598 218.956 108.371 222.1 106.44Z" fill="#1B1A1B"/>
<path d="M203.088 106.438C207.079 107.267 206.84 111.809 204.023 114.052C199.868 113.245 200.039 108.45 203.088 106.438Z" fill="#1B1A1B"/>
<path d="M249.128 114.77C252.787 114.425 260.347 114.221 264.015 114.782C261.11 115.158 251.942 115.245 249.128 114.77Z" fill="#1B1A1B" fill-opacity="0.972549"/>
</svg>
