<svg width="400" height="400" viewBox="0 0 400 400" fill="none" xmlns="http://www.w3.org/2000/svg">
<path d="M170.105 42.0738C178.226 40.7843 186.462 50.1981 190.083 56.4868C198.767 71.5696 201.516 89.0351 202.907 106.146C203.04 107.788 202.776 109.175 202.664 110.804C202.953 113.143 204.051 116.43 204.308 118.88C205.168 127.089 204.637 141.448 202.64 149.251L203.722 148.682C209.123 145.866 217.38 142.067 223.632 141.616C224.229 141.573 225.826 142.082 226.475 142.286C227.37 141.378 228.1 140.87 229.016 139.808C231.53 136.926 233.871 133.13 237.761 131.908C240.474 131.055 243.809 130.426 246.571 129.418C247.131 129.214 247.508 129.346 247.958 129.661L248.02 130.298C246.489 133.239 238.543 133.102 236.344 134.959C232.477 138.226 231.755 140.514 227.286 143.573C229.553 145.195 233.632 149.192 235.889 151.241C239.259 149.74 245.854 149.066 249.889 148.045C252.895 147.284 259.417 145.044 261.927 144.952C255.98 149.613 246.225 151.118 239.055 152.291C238.466 152.387 238.325 152.553 238.087 153.019C238.846 154.762 238.312 155.191 236.895 156.629C225.922 167.762 205.717 186.991 188.521 182.443C177.356 179.49 174.085 161.561 173.449 151.33C168.856 153.656 161.347 154.841 156.158 154.781C155.024 154.853 153.088 153.603 152.076 153.728C149.336 154.065 148.39 157.076 148.274 159.243C147.842 167.327 148.548 175.488 148.89 183.564C149.397 194.903 149.626 206.253 149.577 217.603C149.746 253.335 147.733 289.045 143.548 324.533C143.175 327.833 142.488 338.615 140.806 340.3C138.084 341.175 121.111 339.048 118.296 337.705C116.005 333.473 115.491 317.228 115.109 311.688C112.231 276.648 111.703 241.234 108.062 206.229C107.409 199.948 106.497 189.359 103.574 183.964C99.1537 185.901 95.4402 190.337 91.9287 193.574C79.2352 205.275 68.4119 220.712 51.3639 226.158C37.1052 230.712 23.8699 224.597 20.1972 209.787C15.6475 191.441 20.3902 170.982 26.7664 153.639C28.4222 149.712 31.5694 137.51 36.2502 136.449C39.1594 135.79 51.7752 138.084 55.6912 137.741C56.1999 137.696 57.3654 138.139 57.7894 138.396C60.3527 142.648 55.9032 168.95 54.8399 174.645C57.1642 171.23 59.2664 167.727 61.6364 164.304C68.3747 154.598 75.7067 145.317 83.5902 136.516C87.8214 131.808 90.8534 128.493 95.8259 124.56C99.6909 121.503 99.5397 119.327 105.048 117.842C104.892 116.677 104.757 115.546 104.868 114.37C105.329 109.527 108.088 105.783 111.789 102.788C124.319 92.6508 156.288 86.9718 172.488 85.2433C177.364 84.7231 182.419 84.0673 187.317 84.5806C187.501 77.0196 188.12 74.9606 193.294 69.6396C187.767 57.5951 184.285 47.1461 170.41 42.6976C170.308 42.4896 170.206 42.2816 170.105 42.0738ZM106.693 117.697C116.105 118.548 126.774 125.16 134.752 129.998C141.387 134.022 149.442 139.761 152.48 147.001C153.653 149.749 152.465 152.606 155.818 152.825C161.81 153.217 167.817 150.293 173.655 150.204C173.098 147.673 173.189 132.48 174.758 131.083C176.274 133.278 175.178 146.545 175.55 150.304C175.922 154.069 176.42 161.419 177.78 164.894C180.934 176.21 187.175 184.105 200.073 180.146C214.897 175.595 225.293 165.164 235.947 154.485C233.7 152.355 227.649 146.348 225.509 144.87C220.618 141.492 207.21 150.006 202.266 151.915C201.537 154.574 200.18 160.996 198.386 162.817L197.891 162.957C197.643 162.761 197.295 162.548 197.342 162.148C197.775 158.48 199.31 153.244 200.046 149.642C201.963 140.259 205.284 114.49 197.032 107.693C193.287 104.608 184.833 102.976 183.916 94.0941C183.83 93.2618 183.761 92.5288 184.008 91.7166C185.789 90.0513 187.124 89.4183 186.858 86.4548C186.732 86.4451 186.475 86.4076 186.372 86.4383C179.014 86.6966 171.674 87.3161 164.377 88.2938C149.536 90.4101 134.327 94.1078 120.51 99.9853C112.482 103.4 106.518 108.452 106.693 117.697ZM200.394 105.84C200.086 101.463 199.432 95.5443 198.75 91.1993C198.348 92.3931 197.947 93.9166 197.179 94.8576C196.334 95.1583 190.31 91.5891 188.864 91.5473C188.78 91.5448 187.749 91.2126 187.579 91.1633C186.299 92.7478 185.915 92.9548 186.145 95.0928C186.389 97.3546 188.904 100.086 190.77 101.268C194.216 103.451 196.907 104.482 200.261 107.046L200.524 106.929C200.494 106.632 200.459 106.11 200.394 105.84ZM113.318 126.136C119.255 128.384 124.717 130.898 129.991 134.429C131.048 135.136 133.222 136.828 134.409 136.774C135.439 136.024 136.475 135.28 137.515 134.544C132.836 131.925 121.084 124.136 116.379 123.207C115.353 124.13 114.214 125.101 113.318 126.136ZM91.4839 135.319C92.7189 136.907 96.9962 137.144 98.9864 138.16C100.699 139.034 103.701 141.878 105.443 141.842C103.989 137.819 95.4082 134.489 91.4839 135.319ZM114.288 122.066C111.203 120.723 108.836 119.857 105.458 120.086C102.668 120.784 101.657 121.808 99.5204 123.755C102.864 123.675 105.797 123.73 109.057 124.68C112.473 125.634 111.938 124.188 114.288 122.066ZM121.462 148.111C121.669 148.694 121.598 148.784 122.329 149.051C124.37 149.798 126.219 150.139 128.254 151.001C130.46 151.935 134.907 156.136 136.764 156.291C135.638 151.916 125.79 147.77 121.462 148.111ZM150.889 150.956C150.063 146.901 148.336 144.134 145.389 141.207C144.281 140.107 140.666 136.439 139.163 136.496C137.663 137.217 137.133 137.51 135.775 138.464C141.679 141.902 146.407 146.111 148.363 152.835L150.889 150.956Z" fill="#181818"/>
<path d="M377.028 155.375C377.568 157.181 377.275 158.418 377.643 160.252C377.87 161.385 378.085 160.949 378.208 162.213C377.55 162.867 375.968 162.885 375.053 162.932C360.115 163.696 345.035 163.614 330.093 163.982L299.625 164.527C292.773 164.63 285.758 164.947 278.908 164.679C279.948 178.632 280.205 194.495 280.51 208.515C280.995 227.785 281.33 247.06 281.518 266.335L281.99 308.203C282.01 312.443 282.273 316.663 282.333 320.89C282.353 322.205 281.593 324.578 280.546 325.528L280.088 325.46C278.848 323.458 279.498 297.57 279.498 292.975C279.28 267.855 278.86 242.738 278.238 217.625C277.765 200.149 276.978 182.423 277.33 164.952L268.35 164.955C268.828 167.892 269.015 173.537 269.163 176.607C269.525 185.328 269.805 194.052 270 202.779C270.79 232.889 271.293 263.005 271.508 293.125C271.63 302.748 272.095 312.395 271.548 322.043C271.493 323.01 271.843 323.878 271.538 324.678L271.11 324.595C270.678 324.005 270.278 323.595 269.778 323.06C268.878 319.24 268.998 311.413 269.005 307.338L269.033 289.818C269.028 275.735 268.708 261.145 268.47 247.024L267.223 193.455C267.073 187.909 267.003 182.428 266.988 176.878C266.978 173.112 266.525 168.707 266.965 164.996C264.945 164.98 262.923 164.951 260.903 164.909C261.653 170.937 261.76 180.487 261.968 186.632C262.468 201.333 262.81 216.041 262.995 230.75L263.778 284.34L263.983 306.84C264.086 312.323 264.675 318.045 264.065 323.558C263.938 324.72 263.671 325.645 262.453 325.953L262.055 325.583C260.988 322.898 261.503 292.66 261.48 287.553C261.378 271.658 261.125 255.765 260.728 239.875L259.478 188.651C259.34 180.753 259.093 172.914 259.343 164.994C255.563 164.912 232.62 165.422 230.907 164.571L230.771 164.093C231.702 162.893 242.514 163.376 244.5 163.327L295 162.501C322.328 161.953 349.658 161.573 376.99 161.362C376.915 159.196 376.833 157.55 377.028 155.375Z" fill="#191918"/>
<path d="M337.282 93.1348C340.5 92.9848 351.537 92.1973 353.752 93.9163C354.885 94.7938 355.23 96.5183 355.385 97.8696C355.705 100.653 356.38 115.338 354.692 116.744C352.23 118.797 324.675 118.62 320.427 118.407C319.125 118.342 317.852 118.148 316.577 117.887C315.41 112.088 315.142 104.272 314.992 98.3023C312.975 98.4736 310.96 98.4913 308.937 98.5341L271.58 99.0921C271.51 97.5601 271.325 95.7721 271.575 94.2868C272.872 93.2723 329.792 93.1823 337.282 93.1348Z" fill="#198758"/>
<path d="M271.393 348.6C273.33 340.132 279.16 330.867 284.678 324.255C286.645 321.895 296.218 311.842 298.993 311.59C299.965 312.352 300.075 313.367 299.555 314.462C293.75 326.637 290.095 339.23 285.53 351.82C291.93 345.385 297.803 341.08 306.668 337.917C307.535 337.607 308.145 337.66 308.873 338.082C309.67 340.122 304.43 346.612 303.228 348.495C300.43 352.872 298.365 356.98 297.92 362.27C297.843 363.162 297.555 363.72 296.84 364.232L296.278 364.102C294.673 362.36 295.318 360.307 295.66 358.255C296.715 351.905 300.31 346.82 304.16 341.86C297.03 345.192 290.673 349.95 285.683 355.955C284.553 357.315 283.705 359.075 281.753 358.665C281.573 358.427 281.54 358.415 281.428 358.092C280.218 354.622 292.565 322.992 295.135 317.585C286.338 324.56 277.778 337.675 274.235 348.282C273.753 349.732 272.398 354.43 271.28 355.022C270.73 354.99 270.463 354.955 270.093 354.507C268.03 352.015 266.518 334.685 266.57 330.822C263.518 338.042 262.435 346.187 262.748 353.98C262.793 355.13 263.053 356.865 262.695 357.927L262.028 358.212C261.07 358.087 260.023 357.365 259.493 356.59C253.435 347.702 247.348 341.107 239.03 334.325C238.069 333.47 237.315 332.807 236.28 332.032C236.582 332.535 237.398 333.977 237.739 334.33C243.543 340.31 249.22 353.697 251.73 361.845C251.9 362.4 251.82 362.585 251.515 363.002L250.993 363.055C249.981 362.395 248.603 358.665 248.068 357.367C245.466 351.07 242.309 345.237 238.473 339.592C236.546 336.742 234.466 333.997 232.242 331.372C231.113 330.015 227.156 326.3 227.655 324.665C229.586 323.62 234.278 327.137 235.96 328.305C245.448 334.792 253.635 343 260.098 352.502C260.025 352.057 259.965 351.555 259.88 351.107C258.81 345.337 262.965 327.432 267.233 324.252C268.125 324.085 267.745 323.992 268.435 324.41C269.215 326.552 269.323 332.102 269.545 334.63C269.99 339.68 270.465 343.625 271.393 348.6Z" fill="#198758"/>
<path d="M140.211 91.0653C140.649 70.6403 145.228 44.1538 169.004 39.0875C173.786 38.0685 179.482 37.9363 184.384 37.6785L207.883 36.6173C228.712 35.6405 249.552 34.9 270.397 34.3963C283.107 34.0773 296.297 33.5668 309.032 33.8793C327.225 34.3258 348.51 36.9168 361.725 51.0933C380.64 71.3845 380.272 108.457 380.165 134.578C380.142 140.074 379.53 146.287 379.232 151.791C379.06 154.978 378.262 159.183 378.207 162.213C378.085 160.949 377.87 161.385 377.642 160.252C377.275 158.418 377.567 157.181 377.027 155.375C377.977 124.203 382.175 77.4795 360.28 52.5128C342.282 31.991 295.682 35.9423 270.935 36.5618C252.09 37.02 233.247 37.5993 214.409 38.2993C205.125 38.658 195.844 39.0963 186.567 39.6138C175.455 40.2005 164.262 39.791 155.631 48.1915C146.978 56.6133 144.235 68.5005 142.449 79.9958C141.877 83.7015 141.826 87.7973 140.211 91.0653Z" fill="#181818"/>
<path d="M256.162 83.9443C263.1 83.3028 269.252 88.3863 269.93 95.3198C270.607 102.254 265.557 108.432 258.627 109.147C251.645 109.866 245.41 104.769 244.727 97.784C244.044 90.7985 249.174 84.5905 256.162 83.9443ZM257.84 98.3443C258.52 98.0628 258.992 97.436 259.077 96.706C259.162 95.9763 258.845 95.2575 258.25 94.8278C257.652 94.398 256.872 94.3245 256.205 94.6355C255.207 95.1023 254.765 96.2813 255.21 97.2898C255.652 98.2983 256.822 98.7668 257.84 98.3443Z" fill="#198758"/>
<path d="M137.418 342.463C138.84 342.798 142.259 346.063 144.53 347.11C150.853 350.205 163.391 350.278 167.719 356.17C171.714 361.61 166.726 366.7 160.525 366.205C156.708 365.9 152.296 365.798 148.493 365.613L133.474 364.785C126.217 364.36 114.336 364.823 118.231 353.343C118.81 351.635 119.441 349.968 119.932 348.23C120.475 345.888 119.611 345.038 120.494 343.508L120.814 343.54C123.596 349.038 118.745 355.275 119.94 358.53C120.352 359.663 121.202 360.583 122.299 361.08C125.332 362.448 155.534 363.455 161.091 363.75C162.567 363.83 164.169 363.365 165.574 362.843C166.179 362.073 166.586 361.31 167.077 360.465C166.909 359.89 166.727 359.318 166.532 358.75C166.238 357.915 165.381 356.318 164.629 355.913C157.747 352.23 149.477 352 142.451 348.558C140.479 347.59 135.954 345.17 137.418 342.463Z" fill="#181818" fill-opacity="0.988235"/>
<path d="M14.7296 106.09C21.7503 105.435 34.9304 110.376 42.2716 111.63C45.6906 112.214 53.1886 114.102 56.1989 115.499C63.7264 118.992 59.6131 126.118 56.4726 131.034C55.6479 132.407 56.1431 135.248 54.7841 135.864C52.4194 132.908 56.8731 126.315 57.9281 123.457C60.2126 117.269 50.3911 116.101 46.3804 115.121C41.6746 113.987 36.9784 112.815 32.2921 111.604C26.9044 110.655 21.0419 108.075 15.5199 108.279C14.8131 108.306 13.344 109.027 13.0164 109.686C10.2683 115.215 18.2045 118.584 22.0434 120.342C27.2486 123.015 37.1766 126.35 38.6259 132.425C38.3646 133.214 38.5784 132.887 37.9591 133.442C35.8924 132.145 33.5856 128.698 31.0611 127.154C24.8277 123.254 13.5163 121.037 10.4345 113.858C8.96201 110.428 11.2215 107.126 14.7296 106.09Z" fill="#181818" fill-opacity="0.988235"/>
<path d="M101.907 257.863C103.255 257.765 104.7 257.42 105.223 259.02C104.76 259.583 104.409 259.753 103.605 259.878C98.2454 260.71 92.7542 261.325 87.3757 262.045C76.8762 263.398 66.4112 265.008 55.9902 266.873C43.4854 269.163 30.8209 272.278 18.3104 274.853C17.3225 275.118 15.9552 275.568 15.4365 274.453C16.4405 272.618 23.2681 271.44 25.3344 270.91C41.7614 266.718 58.4009 263.408 75.1814 260.993C83.5202 259.75 93.5164 258.373 101.907 257.863Z" fill="#198758"/>
<path d="M221.888 250.647C225.299 250.202 230.685 250.462 234.265 250.405C239.617 250.377 244.972 250.422 250.318 250.745C252.8 250.895 257.305 250.03 259.1 252.06L258.915 252.465C256.89 253.385 249.237 252.835 246.647 252.807L226.625 252.79C213.422 252.882 200.222 253.21 187.031 253.77C183.251 253.737 178.655 254.065 174.827 254.242L157.979 254.967C156.18 255.057 151.841 256.197 151.22 254.305C152.138 252.937 157.192 253.392 158.825 253.257C176.938 251.742 195.196 251.042 213.371 250.742C216.227 250.697 219.025 250.792 221.888 250.647Z" fill="#198758"/>
<path d="M284.767 250.598C295.482 250.765 315.197 252.32 325.48 253.49C334.402 254.505 385.687 259.763 389.985 263.508L389.94 263.933L389.425 264.19C386.502 264.373 371.317 261.603 367.595 261.013C355.615 259.123 343.597 257.503 331.545 256.153C321.117 255.02 310.662 254.118 300.192 253.443C295.262 253.1 290.195 252.953 285.255 252.435C284.462 252.35 284.285 252.198 283.885 251.688C284.132 250.92 284.025 251.175 284.767 250.598Z" fill="#198758"/>
<path d="M261.193 133.237C261.36 133.238 261.72 133.322 261.9 133.357L262.118 133.849C260.67 137.472 247.452 142.174 243.471 142.85C242.788 142.327 242.39 142.141 242.364 141.318C244.085 140.287 248.56 138.985 250.72 138.154C254.313 136.738 257.81 135.096 261.193 133.237Z" fill="#181818"/>
<path d="M258.993 130.186L259.683 130.489C260.005 131.213 259.963 130.842 259.765 131.644C257.218 134.659 246.203 137.236 242.062 137.725C241.324 137.707 241.645 137.816 241.054 137.426L241.193 136.962C242.032 136.264 243.135 136.065 244.18 135.79C249.41 134.409 254.078 132.396 258.993 130.186Z" fill="#181818"/>
<path d="M260.517 138.655C260.652 138.695 260.882 138.91 261.015 139.015L260.86 139.569C258.497 141.823 250.05 144.871 246.627 145.161C246.341 144.838 246.262 144.71 246.018 144.356L246.229 143.908C247.79 142.959 252.06 141.919 254.035 141.141C256.075 140.336 258.467 139.348 260.517 138.655Z" fill="#181818"/>
<path d="M237.739 334.33C237.397 333.977 236.582 332.535 236.279 332.032C237.314 332.807 238.068 333.47 239.03 334.325L237.739 334.33Z" fill="#35A2FE" fill-opacity="0.0509804"/>
</svg>
