<svg width="400" height="400" viewBox="0 0 400 400" fill="none" xmlns="http://www.w3.org/2000/svg">
<path d="M243.616 17.3678C251.665 16.7367 260.212 20.6412 263.5 28.2992C264.88 27.627 266.155 27.034 267.625 26.4835C278.052 22.577 293.787 27.7705 294.75 40.2767C294.925 42.545 294.56 44.3705 293.967 46.5782C306.227 49.9347 317.725 60.378 310.867 73.7597C317.692 76.4227 324.58 78.9207 331.525 81.2512C333.995 82.0712 347.01 85.9187 347.502 86.733L347.28 87.376C345.19 89.007 306.762 91.2165 301.745 91.4677C297.197 91.5917 292.427 92.031 287.832 92.223L246.625 93.5995C232.656 93.94 212.905 95.1595 199.823 88.9985C196.721 87.5377 197.3 84.8877 199.098 82.56C198.308 80.1105 197.85 77.566 197.737 74.995C197.347 65.0402 202.773 53.5427 213.731 52.3597C215.001 52.2225 216.29 52.1935 217.567 52.155C216.927 49.7592 216.68 47.7217 216.551 45.2465C215.66 28.223 226.873 17.9582 243.616 17.3678ZM201.155 85.8535C213.311 92.1175 240.445 90.5315 254.697 90.0535L300.49 88.476C304.395 88.4125 339.102 86.9645 339.83 86.5792C339.13 85.963 311.265 77.0082 307.19 75.0122C313.04 63.794 309.02 55.8632 297.152 50.6997C295.502 49.9815 291.252 49.597 290.382 48.2242C290.41 46.7015 291.017 45.0227 291.325 43.4865C292.03 39.8512 290.912 36.1012 288.332 33.4452C284.035 28.9955 275.62 27.3925 269.617 29.0792C267.382 29.7072 264.857 31.8145 262.607 32.5412C261.882 32.8182 259.807 28.441 259.435 27.7875C256.507 22.6451 249.641 20.4092 243.999 20.604C227.977 21.7395 218.831 30.2105 220.18 46.569C220.364 48.7992 221.546 54.031 220.936 55.7535C220.224 56.3095 218.277 56.063 217.314 55.9275C205.703 54.2935 199.877 67.39 201.427 77.1427C201.77 79.302 202.989 81.6527 203.117 83.8595C203.138 84.38 202.396 84.9022 202 85.2155C201.72 85.4317 201.439 85.6442 201.155 85.8535Z" fill="#1A1A1A"/>
<path d="M393.69 76.1925C394.647 76.7063 394.46 76.4198 394.735 77.2385C393.777 80.3268 380.465 85.1755 377.93 97.861C374.092 117.059 386.212 134.454 376.602 152.302C372.1 160.974 362.845 164.48 353.802 166.516C337.232 169.877 328.385 186.102 324.995 201.43C321.045 219.278 313.68 235.075 296.44 243.576C295.872 243.855 295.305 243.546 294.845 243.269C294.29 242.169 294.425 240.708 294.727 239.458C297.907 226.372 287.16 210.025 273.387 209.582C272.277 209.547 271.527 209.599 270.512 208.974C270.42 208.784 270.327 208.595 270.232 208.406C270.945 205.448 275.285 198.093 276.522 195.68C287.772 173.733 293.82 151.871 298.927 127.982C299.99 122.648 300.8 117.214 301.665 111.874C302.115 109.098 302.82 99.8045 304.092 98.0468C304.955 97.6148 304.582 97.6705 305.53 97.7185C307.325 98.9613 306.922 104.382 306.992 106.5C307.102 109.172 307.295 111.839 307.57 114.499C309.442 132.721 314.475 149.607 321.39 166.568C323.642 172.089 326.41 177.367 328.76 182.862C333.34 175.875 330.525 177.851 332.515 171.823C334.625 165.428 336.72 159.333 338.62 152.767C343.272 136.401 346.895 119.758 349.46 102.938C350.052 99.203 350.57 95.4568 351.01 91.701C351.302 89.05 351.497 82.4548 353.205 80.6125C354.042 80.368 353.637 80.3538 354.462 80.6705C355.797 82.1483 355.65 84.3833 355.59 86.277C355.467 90.1298 355.587 93.8843 355.83 97.7288C356.52 108.565 358.222 119.313 360.92 129.831C361.86 133.524 363.085 137.161 364.06 140.875C368.21 140.405 372.61 141.839 376.492 143.173C376.492 141.578 376.767 139.96 376.857 138.37C377.612 125.178 372.305 113.072 374.472 99.7268C376.547 86.9455 384.115 82.985 393.69 76.1925ZM369.812 155.254C371.047 154.053 371.605 153.536 372.575 152.139C373.95 149.895 374.84 148.029 375.835 145.589C373.505 145.456 367.605 144.397 365.222 143.867C366.562 147.737 368.22 151.478 369.812 155.254Z" fill="#1A1A1A"/>
<path d="M194.165 292.102L194.43 292.07C202.239 291.187 214.891 293.082 220.992 298.172C226.547 302.242 230.438 312.335 230.513 319.422C230.621 329.517 235.933 351.882 222.459 355.46C214.831 357.482 205.097 358.042 197.312 358.715C188.919 359.355 178.405 359.045 170.091 357.842C162.573 356.075 159.572 346.312 159.35 339.975C158.458 314.505 165.843 294.535 194.165 292.102ZM195.561 356.202C203.765 355.287 212.223 354.617 220.236 352.887C229.183 350.955 228.483 340.812 228.03 333.572C227.383 323.22 227.839 308.257 219.139 300.975C213.556 296.302 202.812 295.027 195.68 295.355C167.516 297.785 162.013 315.96 162.52 341.372C162.632 347.015 165.485 355.237 172.2 356.152C179.335 356.765 188.397 356.827 195.561 356.202Z" fill="#1A1A1A"/>
<path d="M223.367 311.843C224.082 311.973 224.099 311.93 224.679 312.413C225.517 314.718 221.551 320.085 219.756 321.568C212.016 327.965 200.707 327.943 191.153 327.408C183.594 326.988 174.097 326.373 168.859 320.375C168.179 319.375 166.941 317.84 167.983 316.71C169.009 317.008 171.388 319.793 173.361 320.593C183.362 324.645 201.428 325.5 211.914 322.365C218.475 320.405 220.574 317.31 223.367 311.843Z" fill="#1A1A1A"/>
<path d="M128.263 306.76C126.42 309.752 124.382 312.892 123.324 316.262C120.721 324.547 120.446 334.067 121.035 342.685C121.172 344.702 121.223 347.282 121.67 349.195C121.793 349.707 121.924 350.215 122.064 350.722C122.47 352.23 122.798 354.557 120.584 354.767C112.639 355.517 104.046 355.23 97.3151 350.382C85.0423 341.542 83.3033 326.347 85.2706 312.537C87.3043 297.44 93.0183 283.072 101.91 270.702C103.165 268.932 105.292 265.73 107.045 264.56C108.667 264.297 112.727 268.607 114.41 269.385C115.023 269.67 116.003 270.267 116.621 270.605C123.647 273.287 134.861 272.17 142.001 269.9C143.546 269.535 151.742 266.792 152.292 266.842C152.97 268.467 148.861 274.465 148.083 276.232C144.763 283.782 143.902 291.487 143.973 299.647C137.876 301.265 136.392 301.442 130.995 304.567C131.084 302.067 131.657 294.947 130.921 292.942L130.489 292.62C127.637 293.737 128.029 304.08 128.263 306.76ZM95.0308 321.17C95.4323 320.722 96.1123 319.972 96.2195 319.37C96.763 316.327 97.3121 313.317 97.9586 310.29C99.2723 303.907 101.082 297.635 103.369 291.53C104.203 289.267 108.913 278.632 109.029 277.252C108.939 277.115 108.729 276.765 108.624 276.667C101.989 281.477 96.3688 301.882 95.3451 309.87C95.0233 312.382 93.8 319.12 95.0308 321.17Z" fill="#1F8B61"/>
<path d="M6.31854 104.031C8.44814 104.583 7.51401 107.496 7.46541 109.383C7.41801 111.439 7.56159 113.496 7.89429 115.526C13.0076 145.736 44.5143 137.368 55.7013 161.624C62.6841 176.763 53.4408 194.14 52.5881 209.61C52.3418 214.074 52.8951 217.109 53.5913 221.536C55.2441 216.413 56.8581 208.142 58.0543 202.689C60.8093 190.514 63.1966 178.258 65.2133 165.938C65.9041 161.19 66.4886 156.427 66.9661 151.653C67.3058 148.397 67.4656 145.109 67.7971 141.854C67.9416 140.435 68.0391 139.463 69.4731 138.97C71.9751 139.624 71.6416 144.5 71.8463 146.84C74.7381 179.916 78.9631 214.364 92.2861 245.029C92.5291 245.588 95.6776 248.152 96.3506 248.718C95.9513 244.427 95.4801 239.645 92.6098 236.161C91.6651 235.014 90.5268 234.89 89.6896 233.571C89.4801 231.665 95.1671 211.861 95.9946 208.694C99.7163 194.445 103.108 179.974 105.061 165.362C105.287 163.669 105.507 159.789 106.756 158.74C107.726 158.437 107.318 158.469 108.289 158.674C108.688 159.032 109.038 159.228 109.102 159.812C109.425 162.767 108.658 166.698 108.587 169.716C108.261 182.26 109.323 194.801 111.753 207.112C112.561 211.307 113.745 215.366 114.604 219.542C113.245 222.004 110.906 224.307 109.423 226.986C104.763 235.398 104.633 244.51 104.937 253.82C105.013 256.16 102.803 267.253 99.4881 266.503C97.9361 264.278 101.385 258.045 92.4466 249.881C80.7208 239.171 76.7311 245.219 64.1846 240.766C58.4518 238.732 52.8266 231.673 52.3926 225.839C49.4401 216.097 48.8633 209.775 50.7066 199.798C52.7331 188.828 56.8271 177.596 53.8331 166.536C47.1993 142.611 14.5394 147.408 6.89996 123.938C5.12279 118.796 3.98991 108.959 6.31854 104.031Z" fill="#1A1A1A"/>
<path d="M282.648 261.492C284.59 261.995 286.988 264.247 288.348 265.72C299.213 277.49 310.808 301 310.713 316.867C310.693 324.042 307.793 330.907 302.665 335.922C294.545 343.922 280.535 347.78 269.333 347.74C269.653 343.002 270.768 336.69 270.813 332.44C271.253 328.572 271.308 324.117 270.948 320.26C270.053 310.687 267.155 306.637 260.34 300.697C260.125 298.477 259.535 288.602 256.965 288.522C255.443 290.65 257.027 296.842 257.55 299.33C253.775 297.545 251.27 296.99 247.27 296.377C246.783 289.602 247.51 282.825 245.865 276.082C245.061 272.782 243.559 270.02 242.557 266.825C242.348 266.157 242.528 265.647 242.876 265.09C244.761 263.907 247.299 265.93 249.184 266.547C251.768 267.39 254.575 268.277 257.288 268.59C263.688 269.322 270.863 269.137 276.608 265.93C278.568 264.802 280.775 262.892 282.648 261.492Z" fill="#1F8B61"/>
<path d="M193.085 129.338C194.405 129.175 197.295 129.158 198.662 129.209C204.607 129.43 210.552 131.796 214.605 136.239C220.877 143.115 220.001 152.063 219.518 160.656C225.836 162.647 227.858 168.574 223.92 173.956C222.249 176.241 220.406 177.235 217.899 178.427C217.581 185.509 217.992 194.408 212.117 199.296C211.365 200.086 209.194 201.73 208.908 202.734C208.37 204.623 209.705 211.914 207.564 212.365L206.962 211.899C206.233 210.503 206.044 203.802 205.961 201.881C205.855 199.419 208.15 198.931 209.819 197.305C213.924 193.305 214.394 185.847 214.613 180.443C210.747 187.045 208.552 192.29 203.217 198.514C200.607 199.296 195.926 200.149 193.361 199.025C188.445 196.87 184.433 188.558 182.341 183.814C181.929 182.768 180.781 180.611 180.241 179.514C180.259 185.257 180.788 192.458 183.571 197.556C185.102 200.361 187.254 200.98 189.887 202.391C190.219 204.203 191.193 212.754 189.353 213.477C187.834 212.398 187.546 206.523 187.349 204.661C185.512 203.683 183.912 202.895 182.437 201.393C177.645 196.513 177.024 187.814 176.975 181.305C171.559 179.058 167.525 174.85 169.923 168.353C170.91 165.678 173.263 164.274 175.823 163.238C170.227 161.198 164.57 159.491 160.028 155.406C158.833 154.332 157.598 153.584 158.339 151.982C159.161 151.229 159.92 151.06 160.963 150.709C159.42 149.428 154.517 146.013 155.411 143.848C156.955 142.802 160.472 143.531 162.317 143.806C160.604 142.023 154.362 134.698 155.908 132.525C158.367 131.561 163.982 133.973 167.905 133.77C176.8 133.31 184.352 130.37 193.085 129.338ZM183.027 140.797C187.864 139.659 192.415 138.691 197.46 138.75C199.793 138.777 203.709 140.849 205.291 139.927L205.435 139.543C203.745 136.147 195.485 135.821 192.115 135.855C184.773 136.597 177.713 139.123 170.209 139.084C169.632 139.081 169.159 139.366 168.773 139.776C169.293 142.862 180.652 141.268 183.027 140.797ZM178.439 178.072C179.249 178.39 179.285 178.584 179.877 178.345C179.596 177.231 175.892 166.089 175.566 165.757L175.193 165.608C170.502 171.086 171.971 175.426 178.439 178.072ZM219.06 174.048C223.027 170.805 224.271 166.201 219.291 163.106C218.502 165.811 218.081 168.585 217.422 171.325C217.202 172.237 216.349 174.17 216.638 174.904C217.484 174.885 218.304 174.451 219.06 174.048ZM213.777 147.768C214.367 145.492 213.92 143.327 211.255 142.919C210.94 142.872 210.623 142.841 210.305 142.824C210.073 145.406 210.912 147.359 213.777 147.768Z" fill="#1A1A1A"/>
<path d="M42.9102 63.3003C52.0902 62.6585 57.2117 67.114 60.2332 75.5355C69.163 73.8793 75.0157 77.8865 77.3615 86.5263C84.8492 86.1883 88.1007 90.262 86.832 97.5445C89.4517 98.438 96.0902 100.018 98.3207 101.684C98.529 101.839 98.3765 102.111 98.2965 102.433C97.3152 102.789 96.276 102.847 95.2457 102.959C87.1432 103.836 79.0652 104.932 70.939 105.577C57.042 107.055 42.9245 107.573 28.9565 107.498C20.7763 107.454 10.2918 103.398 20.6581 95.2925C19.0717 87.1503 21.9503 82.7455 29.581 79.8705C30.8747 71.3663 33.8715 65.2925 42.9102 63.3003ZM32.5767 82.7148C29.059 83.8633 26.1615 84.521 24.1747 88.1968C22.4565 91.376 24.9768 93.9853 24.4882 96.5753C24.1033 98.616 19.8363 98.696 20.1541 101.648C22.9396 105.548 42.5282 104.049 47.4452 103.856C53.0227 103.637 59.7442 103.424 65.3117 102.963C71.498 102.529 77.6997 102.218 83.8755 101.685C85.1367 101.576 88.2182 101.492 89.2305 101.175C88.8035 100.402 84.9247 99.5038 83.8417 99.1143C85.058 93.9233 85.118 88.5503 77.9735 89.5465C73.856 90.1208 74.745 87.5108 73.4042 84.2985C72.114 81.2073 69.7155 79.0765 66.3595 78.5515C63.8907 78.1028 60.6727 79.0805 58.3807 78.8085C57.6362 78.7203 56.3057 74.937 56.0115 74.1768C53.9372 69.0548 49.7352 66.2883 44.173 66.5758C34.8375 68.347 34.021 74.6948 32.5767 82.7148Z" fill="#1A1A1A"/>
<path d="M167.895 222.408C179.841 213.146 203.699 213.666 217.625 217.077C219.201 217.463 223.749 218.106 223.893 220.032C223.051 220.409 221.584 220.34 220.689 220.166C206.419 217.403 191.988 217.23 177.913 221.157C175.65 221.789 169.792 223.837 167.777 224.002C167.76 232.268 167.997 239.918 168.439 248.163C168.653 252.15 168.381 256.175 168.677 260.22C168.898 260.183 169.119 260.155 169.34 260.12C172.016 259.673 181.636 262.525 184.962 263.115C189.205 263.895 193.507 264.313 197.822 264.363C203.938 264.383 210.808 263.253 216.648 261.35C219.355 260.468 222.547 258.618 225.385 258.13C225.894 258.043 225.84 258.11 226.165 258.375C226.116 258.778 226.074 259.315 225.688 259.59C213.365 268.328 195.743 269.338 181.389 266C177.249 265.038 171.785 262.963 168.717 260.523C168.657 261.735 168.773 263.848 167.401 264.195C164.512 261.885 164.734 223.785 163.747 222.746C162.238 224.253 163.047 232.66 163.157 234.923C163.36 239.961 163.601 244.998 163.879 250.033C164.024 252.778 165.04 263.353 163.328 264.875L162.868 264.75C161.578 263.05 159.861 237.646 159.653 233.517C159.511 230.707 159.932 227.352 159.347 224.648C156.939 223.887 133.24 223.296 129.501 223.379C126.942 223.436 122.491 224.387 119.882 225.158C124.14 229.657 125.474 239.997 126.386 246.195C125.311 247.598 125.719 254.703 126.371 256.408C123.975 265.093 118.96 267.103 113.884 258.373C111.069 253.533 110.311 245.499 111.566 240.135C112.771 235.751 117.372 235.332 118.593 240.034C118.942 241.377 119.78 242.77 119.162 244.148L118.616 244.387C116.828 243.595 117.064 240.83 115.699 239.416C111.101 239.832 115.407 260.985 120.897 260.325C125.972 256.775 121.402 229.362 116.886 227.288C110.236 227.062 109.701 242.207 109.773 246.865C110.116 269.17 120.831 270.328 139.299 265.79C142.892 264.878 146.454 263.845 149.978 262.698C152.206 261.953 157.578 259.755 159.673 260.113L160.03 260.453C159.938 260.995 160.037 261.128 159.453 261.443C154.502 264.113 147.509 266.208 142.185 267.868C135.429 270.073 124.512 272.263 117.667 270.193C116.431 269.653 115.091 268.8 113.905 268.075C104.465 262.3 104.729 234.783 110.354 227.293C120.241 217.204 137.809 220.029 150.614 221.069C152.47 221.22 158.258 222.69 159.364 222.541C159.551 221.508 159.601 221.033 160.058 220.059C161.108 219.172 166.149 219.141 167.22 219.871C167.786 220.658 167.769 221.422 167.895 222.408Z" fill="#1A1A1A"/>
<path d="M234.884 261.36C236.114 261.535 236.41 261.755 237.235 262.707C244.767 271.42 246.233 287.467 245.689 298.487C251.833 299.31 255.733 300.332 260.488 304.78C267.483 311.327 268.743 321.88 268.798 330.99C268.825 335.79 268.26 348.57 266.868 352.755C266.148 354.99 264.91 357.022 263.253 358.685C258.97 362.905 254.133 362.965 248.571 362.93C248.459 365.68 247.631 368.352 246.169 370.685C239.298 381.545 220.628 381.077 209.315 381.735C201.786 382.232 194.244 382.515 186.699 382.582C170.978 382.865 153.698 382.355 149.593 363.672C149.21 363.762 148.825 363.845 148.44 363.922C142.215 365.15 135.807 366.695 130.241 362.725C124.046 358.308 123.659 353.863 123.139 347.005C121.895 330.613 121.018 306.392 141.415 301.642C143.271 301.21 145.531 301.14 147.498 300.805C145.887 291.325 149.309 278.045 153.883 269.635C154.203 269.145 154.53 268.657 154.864 268.177C155.614 267.1 157.108 265.153 158.433 264.92L158.845 265.27C158.963 266.47 158.446 267.168 157.77 268.098C152.787 274.948 151.131 283.895 149.857 292.105C149.633 293.545 149.93 296.63 150.091 298.125C150.53 302.193 151.595 303.98 146.389 304.098C125.394 304.98 125.061 328.542 126.298 344.185C126.755 349.965 126.542 354.793 130.747 358.788C136.905 364.44 144.761 360.445 152.257 360.09C153.455 363.822 153.212 366.093 155.515 369.855C158.601 374.898 164.671 377.347 170.365 378.37C180.599 380.21 193.541 378.908 204.049 378.628C212.493 378.033 221.31 378.4 229.647 376.83C241.324 374.63 244.771 371.365 247.019 360.448C247.713 360.158 250.03 360.827 250.985 360.802C253.658 360.732 256.035 360.322 258.405 359.03C264.415 355.757 264.718 348.97 265.01 343.005C265.723 328.525 267.263 306.638 248.992 302.568C247.009 302.125 244.369 302.19 242.524 301.443C242.001 300.548 242.196 276.21 239.381 272.175C238.603 271.06 234.764 262.062 234.884 261.36Z" fill="#1A1A1A"/>
<path d="M151.022 90.819C151.945 90.674 152.949 90.776 153.873 90.9148C162.048 92.1438 168.556 98.5428 175.219 102.861C183.648 108.323 191.977 113.843 200.413 119.239C206.023 122.83 211.7 126.315 217.441 129.693C219.709 131.011 224.995 133.716 226.802 135.097C227.158 134.612 227.523 134.135 227.896 133.665C239.461 119.199 247.534 127.034 258.578 135.962C261.405 138.215 264.36 140.303 267.428 142.215C271.14 144.511 274.955 146.637 278.86 148.588C280.923 149.636 287.068 151.578 287.143 153.762L286.648 153.991C284.35 153.816 282.038 152.698 279.885 151.877C272.338 148.993 265.138 145.198 258.653 140.349C254.663 137.363 250.975 133.59 246.692 130.988C240.282 127.096 235.889 129.925 230.821 134.342C229.767 135.261 228.56 136.589 227.212 136.943C223.816 136.489 207.75 127.072 203.907 124.789C193.381 118.95 182.964 111.534 172.869 105.112C161.919 98.1453 154.241 88.8295 141.347 98.5955C136.818 102.027 132.254 105.707 127.779 109.236C123.445 112.645 119.042 115.966 114.573 119.196C104.715 126.372 94.6115 133.206 84.2813 139.684C81.4743 141.469 77.269 144.286 74.2178 145.82C73.7783 146.041 73.5038 145.805 73.207 145.624C73.1003 145.116 73.0105 144.982 73.3145 144.523C74.232 143.137 110.225 118.088 114.934 114.65C119.519 111.316 124.035 107.887 128.478 104.367C135.62 98.5995 141.573 92.4563 151.022 90.819Z" fill="#1A1A1A"/>
<path d="M271.43 211.585C292.767 208.724 296.737 244.233 286.005 255.955C279.73 262.807 263.85 265.725 254.842 264.522C251.995 264.14 234.227 261.107 234.11 258.607C235.615 257.54 242.65 259.502 244.813 259.9C253.605 261.517 260.527 261.862 269.305 260.407C274.312 259.515 282.007 256.292 284.765 251.875C288.5 245.733 289.042 236.99 287.527 230.132C285.207 219.633 280.4 212.825 268.88 215.245C260.82 216.734 252.912 219.022 245.045 221.296C243.02 221.881 235.633 224.92 234.012 223.836C234.039 223.46 234 223.36 234.233 223.031C235.529 221.201 257.577 214.733 261.067 213.82C264.497 212.924 267.93 212.14 271.43 211.585Z" fill="#1A1A1A"/>
<path d="M229.248 226.572C228.507 232.489 230.228 261.138 228.666 263.448L228.2 263.523C227.094 262.568 227.156 261.558 227.053 260.155C226.663 254.875 224.534 219.533 226.057 217.629C226.476 217.105 227.111 217.076 227.729 217.039C229.267 216.948 230.985 216.901 232.435 217.479C233.316 218.661 233.094 225.774 233.256 227.641C233.695 232.712 234.762 259.925 232.495 262.648H232.025C230.436 260.758 230.602 248.022 230.583 245.06C230.544 239.129 230.064 233.053 229.946 227.151C229.957 224.809 230.02 223.115 229.646 220.792L229.475 220.728C229.157 223.17 229.172 224.15 229.248 226.572Z" fill="#1A1A1A"/>
<path d="M224.606 156.407C224.751 156.439 224.894 156.475 225.037 156.512C231.264 158.114 248.202 164.342 252.225 169.898C253.857 172.281 251.84 174.436 253.175 176.916C256.487 183.061 276.377 179.29 278.275 182.446L278.137 182.89L277.487 183.183C272.332 183.692 266.8 183.904 261.595 183.657C256.912 183.436 248.994 181.262 249.231 175.253C249.279 174.046 249.419 172.734 249.533 171.522C242.467 165.863 235.445 164.146 227.546 160.024C226.441 159.447 224.435 158.462 224.077 157.264L224.606 156.407Z" fill="#1A1A1A"/>
<path d="M154.886 99.8938C155.697 100.089 155.381 99.8813 155.888 100.501C155.961 101.586 155.362 102.625 154.911 103.668C159.054 108.764 188.29 123.251 189.067 125.769C188.668 126.588 188.884 126.309 187.981 126.798C185.336 125.527 182.613 124.459 179.987 123.137C174.982 120.618 156.947 110.674 153.888 107.251C152.988 106.244 152.274 104.899 152.41 103.509C152.572 101.857 153.67 100.855 154.886 99.8938Z" fill="#1A1A1A"/>
<path d="M244.302 306.85L244.899 307.165C247.356 310.197 247.581 336.505 248.172 342.002C248.369 343.837 248.567 348.727 247.316 350.17C245.909 349.595 245.648 347.257 245.565 345.947C245.182 339.92 241.485 310.497 244.302 306.85Z" fill="#1A1A1A"/>
<path d="M148.173 307.828C148.345 307.855 148.518 307.885 148.69 307.915C149.014 307.988 149.592 308.318 149.681 308.66C151.389 315.228 151.193 343.985 149.871 349C149.344 349.038 148.346 348.995 148.263 348.305C146.776 335.882 147.578 322.92 147.592 310.388C147.593 309.59 147.908 308.553 148.173 307.828Z" fill="#1A1A1A"/>
<path d="M337.22 149.638L337.803 150.001C338.403 152.732 332.89 158.019 330.385 159.023C326.83 160.45 324.403 159.982 321.008 158.639C320.095 158.104 319.23 157.609 319.565 156.5C321.018 155.408 326.245 157.013 328.43 156.167C332.248 154.689 333.448 151.402 337.22 149.638Z" fill="#1A1A1A"/>
<path d="M117.667 270.192C124.512 272.262 135.429 270.072 142.185 267.867C142.448 269.237 141.649 268.495 142.001 269.9C134.861 272.17 123.647 273.287 116.621 270.605L117.667 270.192Z" fill="#0E0F13" fill-opacity="0.0235294"/>
<path d="M126.386 246.195C126.617 248.869 126.685 253.708 126.371 256.408C125.719 254.703 125.311 247.598 126.386 246.195Z" fill="#1A1A1A" fill-opacity="0.972549"/>
<path d="M229.248 226.572C229.172 224.15 229.157 223.17 229.475 220.728L229.646 220.792C230.02 223.115 229.957 224.809 229.946 227.151C229.635 226.619 229.85 226.818 229.248 226.572Z" fill="#1A1A1A" fill-opacity="0.231373"/>
</svg>
