<svg width="85" height="82" viewBox="0 0 85 82" fill="none" xmlns="http://www.w3.org/2000/svg">
<path d="M14.4502 22.806C14.6929 22.3297 14.8843 21.8339 15.1868 21.3794C15.6641 20.6391 16.6444 19.9334 17.5612 20.2501C18.2998 20.5053 18.353 21.4335 18.0823 22.0433C17.611 23.1054 16.5007 23.5916 15.514 24.0151C15.7618 24.8832 16.1025 25.845 16.3877 26.7102C17.3437 26.6866 19.407 26.5582 20.2664 26.751C23.8849 27.5631 25.1647 31.2413 25.9698 34.4312C26.1029 34.9584 26.1628 35.862 26.4054 36.2095C27.4829 35.6528 29.818 29.0178 31.5062 28.0616C34.1193 26.5816 34.6786 27.9659 36.0549 29.7988C36.743 30.1161 43.2898 29.9277 44.672 30.0059L44.6902 30.9346C44.7619 31.6585 44.7635 32.3825 44.7887 33.1088C44.8919 36.0788 44.9662 39.0345 44.9695 42.0059C45.9797 42.0501 47.1189 42.0589 48.0883 42.3239C48.3131 44.946 48.2117 49.4394 48.2099 52.1202C48.2073 56.1065 48.2915 60.5796 48.1462 64.5456C48.2837 64.5419 48.4213 64.5405 48.5589 64.5413C48.9192 64.5443 49.4701 64.5466 49.7241 64.85C50.4196 65.6806 50.1236 75.1542 49.916 76.5751C47.7141 77.3862 33.6338 77.1882 31.2849 76.5199C31.173 75.4657 31.2218 72.8655 31.2325 71.6865C31.2525 69.4657 31.1553 66.7571 31.333 64.5937C32.5404 64.545 33.8127 64.5684 35.0271 64.573C34.8328 61.4342 35.1149 57.7802 34.9569 54.4938C33.1133 54.4241 31.1708 55.3881 28.8982 55.6429C28.842 59.6928 27.8601 64.6687 27.395 68.7201C27.2254 70.1978 26.8561 72.2075 26.8911 73.6585C27.4241 74.3299 28.2509 75.1847 28.1532 76.1103C28.1328 76.3037 28.0424 76.5968 27.8764 76.7092C27.1057 77.2308 20.8369 77.0706 19.7518 76.8015C19.4377 76.7237 18.8062 76.5521 18.6432 76.2366C18.0387 75.0678 18.7661 67.7033 19.1728 66.1879C17.8516 67.9876 15.8131 71.9871 15.1229 74.1381C15.2604 74.5265 15.55 75.6937 15.519 76.0324C15.4194 77.1204 11.938 77.0375 11.1395 76.9805C9.60142 76.8707 4.20469 77.6217 5.04478 74.8683C5.98077 71.8005 7.57867 68.8287 8.61438 65.7633C9.17701 64.1406 9.56273 62.4618 9.7648 60.7562C10.0899 57.8974 10.197 56.4343 10.9307 53.521C11.502 51.2523 12.441 48.9093 12.6231 46.6571C12.786 44.6415 12.1289 43.1727 11.6555 41.2751C10.8268 37.9529 10.208 34.1901 11.2543 30.8566C11.9073 28.7764 13.9083 27.84 15.7477 26.9463C15.4065 26.0856 15.1421 25.1964 14.9575 24.2891C14.0156 24.6087 10.7761 25.2707 10.5087 23.7394C9.97097 20.6597 12.9639 21.8738 14.4502 22.806Z" fill="black"/>
<path d="M35.8207 30.9762C37.067 30.8799 38.7529 30.9175 40.0349 30.8927C40.9888 30.8743 42.7785 30.8184 43.6593 30.9026C43.8057 31.1377 43.758 31.4035 43.7637 31.7172L43.8143 31.7955C43.9369 31.5279 44.0116 31.3962 44.1664 31.147L44.4448 31.1148C44.5723 31.2737 44.5771 31.4755 44.611 31.6852L44.6902 30.9346C44.7619 31.6585 44.7635 32.3825 44.7888 33.1088C44.8919 36.0788 44.9662 39.0344 44.9695 42.0059C43.376 41.8431 43.935 42.496 42.5784 42.321C41.8617 42.2913 40.7878 42.4043 40.0667 42.363C39.2001 42.3133 32.9308 42.4257 32.6903 42.0094C31.595 40.1141 33.0682 38.2 33.927 36.6049C34.7232 35.1261 35.5339 32.6838 35.8207 30.9762Z" fill="#93C5A9"/>
<path d="M44.6902 30.9346C44.7619 31.6584 44.7635 32.3824 44.7888 33.1087C44.8919 36.0787 44.9662 39.0344 44.9695 42.0058C43.376 41.8431 43.935 42.4959 42.5784 42.321C42.9003 42.2457 43.3202 42.2037 43.6564 42.1607C43.7706 39.8547 43.5419 36.9702 43.6704 34.6121C43.7159 33.7783 43.6359 32.5093 43.7637 31.7172L43.8143 31.7955C43.9369 31.5279 44.0116 31.3961 44.1664 31.147L44.4448 31.1148C44.5723 31.2737 44.5771 31.4754 44.611 31.6852L44.6902 30.9346Z" fill="#3B3D3C"/>
<path d="M18.1802 27.4553C23.4051 26.699 24.9 33.3565 25.7063 37.1423C24.3826 38.9267 22.2249 40.1717 20.8793 41.9191C20.7997 42.0224 20.7866 42.3382 20.8776 42.5274C21.4745 42.5644 22.7555 41.2054 23.2707 40.8025C25.9569 38.702 27.946 36.1149 29.4337 33.062C29.9586 31.9851 30.4842 30.8644 31.0635 29.8143C31.6391 28.8055 32.1085 28.5639 33.1633 28.3045C33.2564 28.3255 33.3492 28.3475 33.4419 28.3706C34.257 28.575 34.441 28.795 34.8615 29.5033C35.0154 34.7495 30.2364 41.4035 26.7949 45.2621C26.1644 45.9689 23.0365 48.6674 23.0024 49.3643L23.1759 49.42C24.2552 49.1258 26.2655 47.078 27.0875 46.23C29.2886 53.7818 27.1629 63.5774 26.1614 71.2668C26.0518 72.2364 25.9553 73.0549 25.9346 74.0346C26.2413 74.5794 26.8955 75.4316 27.3056 75.908C24.6622 75.923 22.2493 75.9752 19.6154 75.7785C19.5595 72.1467 20.1328 68.7254 20.2391 65.1356C20.8575 64.8167 22.6605 64.0113 22.8035 63.3575L22.6838 63.2204C21.8716 63.0956 19.9065 64.0384 19.0591 64.3483C18.511 64.5489 17.9487 65.5497 17.6976 66.0876C16.8193 67.9699 15.9542 69.8806 15.0561 71.7555C14.6726 72.5559 14.2307 73.3506 13.9634 74.1968C14.1947 74.7857 14.2911 75.1963 14.4416 75.8113C13.4581 75.8554 7.30561 75.9904 6.67205 75.6564C6.45798 74.7893 9.11202 68.658 9.65159 67.3845C11.3737 63.3194 11.0105 59.8253 11.9321 55.6707C12.4845 53.1803 14.0747 49.5761 14.3633 47.0882C14.6007 43.4025 12.749 39.8086 12.2378 36.1611C11.5704 31.3996 13.0514 28.1044 18.1802 27.4553Z" fill="white"/>
<path d="M21.5456 32.6541C21.6258 32.6836 21.6926 32.738 21.7653 32.7873L21.7671 33.0175C21.4044 33.6801 20.6222 34.1293 19.9371 34.3927C19.753 34.1901 19.6648 34.119 19.597 33.8462C19.7617 33.4324 20.4974 33.4403 20.8882 33.2031C21.1285 33.0572 21.3432 32.8456 21.5456 32.6541Z" fill="black"/>
<path d="M41.3888 66.1304C43.9079 66.0388 46.7201 65.5553 49.2932 65.4614C49.3055 68.05 49.4529 73.5008 49.1273 75.917L43.7063 76.0223C42.8015 76.1443 41.1427 76.1098 40.1749 76.1054C37.5305 75.9507 34.8122 75.8672 32.148 75.7226C32.0908 72.3062 32.1691 68.8872 32.1287 65.4661C34.8064 65.6054 36.7394 65.7559 39.3874 66.1284C40.0546 66.1207 40.7218 66.1213 41.3888 66.1304Z" fill="#93C5A9"/>
<path d="M32.1287 65.4663C34.8064 65.6055 36.7394 65.756 39.3874 66.1286C39.7697 66.1872 39.8987 66.1427 40.1617 66.3504C40.2907 67.3177 40.1722 68.429 40.1833 69.4148C40.2075 71.5669 40.0648 73.9724 40.1749 76.1055C37.5305 75.9509 34.8122 75.8673 32.148 75.7227C32.0908 72.3064 32.1691 68.8873 32.1287 65.4663Z" fill="#93C5A9"/>
<path d="M39.3873 66.1284C40.0545 66.1207 40.7217 66.1213 41.3887 66.1304C41.4138 69.4358 41.291 72.7631 41.3336 76.0214C41.9746 76.0154 43.1038 75.9718 43.7062 76.0223C42.8014 76.1443 41.1426 76.1098 40.1748 76.1054C40.0647 73.9723 40.2074 71.5667 40.1832 69.4146C40.1721 68.4288 40.2906 67.3175 40.1616 66.3503C39.8986 66.1426 39.7696 66.1871 39.3873 66.1284Z" fill="#575D59"/>
<path d="M35.8766 54.7832L47.2151 54.7583C47.2307 56.9005 47.2355 59.0427 47.2294 61.1849C47.2262 61.9957 47.2402 64.0116 47.1068 64.7333C43.0404 64.8588 39.95 65.1036 35.8794 64.6147L35.8766 54.7832Z" fill="#93C5A9"/>
<path d="M39.3449 43.229C40.7573 43.2314 42.1698 43.236 43.5822 43.2145C44.7998 43.1959 46.0897 43.1015 47.3023 43.1417C47.1847 44.2873 47.2337 45.9315 47.2343 47.1268L47.2443 53.6708C44.4852 53.6965 41.726 53.6972 38.967 53.6728C38.962 52.4328 38.9249 51.0302 38.9633 49.8033C38.9129 48.2224 38.3602 44.8219 38.6537 43.34C38.9161 43.1712 38.9758 43.2322 39.3449 43.229Z" fill="#93C5A9"/>
<path d="M38.9633 49.8034C38.9129 48.2226 38.3602 44.822 38.6537 43.3401C38.9161 43.1713 38.9758 43.2323 39.3449 43.2291C39.3116 44.3869 39.1881 48.8054 38.9633 49.8034Z" fill="#575D59"/>
<path d="M33.3624 43.2285L38.0306 43.2263C38.0268 46.6484 37.9775 50.2927 38.0887 53.6965C36.4014 53.6798 35.1395 53.6046 33.4665 53.4388C33.2351 50.3949 33.2847 46.3194 33.3624 43.2285Z" fill="#93C5A9"/>
<path d="M32.275 48.1445L32.3826 48.1853C32.4169 50.0739 32.5301 51.9428 32.4988 53.8367C31.1726 54.351 30.3843 54.4395 28.9937 54.6015C28.9241 54.4615 28.7832 49.7437 28.7395 49.0901C29.7976 48.9926 31.2756 48.526 32.275 48.1445Z" fill="white"/>
<path d="M31.3724 40.8391C31.533 40.97 31.604 41.5184 31.689 41.7514C32.3325 43.5153 32.458 45.0846 32.311 46.9469C31.2663 47.5747 30.0863 47.9626 28.8991 48.2112C28.7925 48.2614 28.7077 48.2487 28.5892 48.2477C28.3108 47.9483 28.0665 46.1051 27.9099 45.4878C29.2813 43.6832 30.2376 42.9889 31.3724 40.8391Z" fill="white"/>
<path d="M11.2904 22.4246C11.9219 22.3862 14.2977 23.2286 14.3145 23.7536L13.896 23.8525C12.9855 23.9507 12.2127 24.0279 11.296 24.0693C11.0083 23.3636 10.7827 23.0444 11.2904 22.4246Z" fill="#93C5A9"/>
<path d="M16.7362 20.7947C17.0205 20.79 17.2241 20.7554 17.4431 20.9393C17.8637 21.8777 16.5085 22.7822 15.7868 23.1595C15.4437 23.2364 15.3077 23.2931 15.1015 23.0189C15.0699 22.2115 16.1095 21.1915 16.7362 20.7947Z" fill="#93C5A9"/>
<path d="M65.0317 5.17977C66.8809 5.07015 67.4725 6.89019 68.0972 8.32733C69.0826 7.49197 71.3826 6.68839 72.1758 8.07749C72.347 8.37075 72.3898 8.72158 72.2941 9.04745C71.77 10.8607 68.9096 9.96709 67.7054 9.57747C67.4713 10.5641 67.3289 11.5048 67.1774 12.5039C68.911 13.2384 70.2781 13.5279 71.7675 14.812C76.1399 18.5685 74.7259 25.6588 73.5134 30.5225C72.3919 35.0249 71.6194 36.3835 74.2309 40.5187C76.7021 44.4303 79.1007 48.554 79.1606 53.3154C79.2033 56.7436 79.9317 61.3075 75.1663 61.5879C75.219 65.1948 76.2898 67.8226 77.1544 71.242C77.4396 72.367 78.2851 75.6537 77.7465 76.5723C76.7067 77.2926 72.0536 77.0219 70.6958 77.0807C69.8114 77.119 65.6925 77.1926 65.1077 76.7311C64.2929 75.5266 65.4214 74.4082 66.2051 73.5301C64.8045 70.9078 64.7228 68.1671 63.4607 65.9093C63.2498 67.4039 64.1928 76.4724 62.0236 76.8265C60.038 77.1505 56.1851 77.0192 53.9729 76.9729C51.9837 76.9313 51.5985 75.5823 52.6251 73.9693C52.973 73.5023 53.1816 73.2274 53.4596 72.7122C53.443 70.987 53.1502 69.143 52.9297 67.4245C52.6336 65.2177 52.3949 63.0036 52.214 60.7844C52.0478 58.6116 52.1186 56.2995 52.1306 54.1121C52.1569 49.3198 53.1085 44.3874 53.9088 39.6712C50.5381 37.3937 48.0571 31.8384 46.1321 28.3333C45.8215 27.7676 45.279 25.6377 44.8307 25.453C44.3095 25.577 44.5846 25.6851 44.0995 25.9077C41.0607 24.9999 37.0822 25.1285 34.4802 24.1555C34.2415 22.9717 34.3181 20.522 34.308 19.2306C34.2959 17.6825 34.2265 15.8074 34.3324 14.3016L34.4402 14.2302C35.5659 13.49 38.6664 11.8565 39.9288 11.6446C42.4853 11.2154 46.7755 11.9704 49.3265 12.5012C49.6086 14.2258 49.3867 16.2195 49.7836 17.8508C51.3271 19.4267 51.697 22.4599 52.7341 24.4987C53.6635 26.3258 54.4427 27.3176 55.6631 28.9452C56.0428 23.6345 55.4547 17.6397 59.9522 13.6642C61.8042 12.0273 64.0241 12.1661 66.3279 12.3898C66.4179 11.2937 66.7248 10.3266 67.192 9.34107C65.7728 8.82521 63.6517 7.97195 64.2136 5.88681C64.3162 5.506 64.6886 5.32708 65.0317 5.17977Z" fill="black"/>
<path d="M62.8936 13.2712C65.0718 13.1268 67.2084 13.2191 69.0709 14.3923C77.8446 19.7921 69.9098 30.3692 71.3458 37.7383C72.1557 41.8939 76.9301 46.0259 77.5949 50.7163C77.9818 53.4455 79.0335 56.658 77.3887 59.3094C76.0982 61.3905 73.3041 60.5652 72.6298 58.3978C72.0252 56.0622 72.0222 53.385 71.4649 51.0007C71.2012 49.8726 69.9277 46.7175 69.0179 46.1217C68.7378 46.1037 68.8426 46.0757 68.6157 46.2143C68.3472 46.8326 69.3127 48.1487 69.6002 48.7282C70.6222 50.755 71.1198 53.0356 71.2488 55.2957C71.3968 57.8854 71.6314 60.0468 74.0447 61.538C74.3953 65.2177 75.2145 68.2127 76.2162 71.7304C76.5296 72.8298 76.7121 74.7316 76.8856 75.9159C75.8666 76.0581 73.4571 76.0238 72.3716 76.0172C70.2472 76.0042 67.7649 76.082 65.6633 75.9207C66.056 75.4756 66.9241 74.1517 67.2406 73.6458C66.4353 71.7104 65.7873 69.7132 65.3031 67.6736C64.5233 64.4834 62.7787 65.1047 60.1186 64.0034L60.0378 65.1602C60.8272 65.4039 61.6436 65.6358 62.3949 65.9758C62.4694 67.0329 62.4168 68.5878 62.4043 69.6741C62.3818 71.6264 62.4063 73.9044 62.0846 75.8213C60.9081 75.9301 53.8907 76.1327 53.0606 75.6084C52.6667 74.4719 55.0244 74.2478 54.611 71.9713C54.4111 70.8703 54.1586 68.5969 54.0244 67.4081C53.8727 64.9161 53.4997 62.4206 53.3677 59.9325C53.02 53.3774 53.6527 46.6104 54.9035 40.1744C55.0246 39.5514 55.4728 37.7453 55.2387 37.2369C54.7191 36.9726 54.3626 37.5642 54.1558 37.9602C51.4893 35.4944 49.3543 31.8833 47.6871 28.6505C47.1172 27.5455 46.6766 26.1343 46.0931 24.9474C47.0799 24.0329 48.7287 23.0336 49.4663 22.2196C49.5484 21.1731 49.5568 19.9126 49.6245 18.8165C50.9092 21.5976 51.423 24.3454 52.9327 26.8854C53.3352 27.5625 56.0089 30.7021 56.5847 30.8275C56.7112 30.6401 56.6001 26.7031 56.5932 26.0837C56.5462 21.8957 57.732 14.1758 62.8936 13.2712Z" fill="white"/>
<path d="M60.7583 20.9186C61.2624 20.9051 63.4144 21.8079 64.0713 21.8654C64.3622 21.8909 64.352 22.1865 64.3906 22.4361C64.3542 22.4368 64.3179 22.4372 64.2815 22.4375C63.381 22.4428 61.5961 22.1919 60.9068 21.5449C60.6958 21.3469 60.7555 21.2117 60.7583 20.9186Z" fill="black"/>
<path d="M66.2699 19.4009L66.7036 19.4558C66.9926 19.6926 66.9349 19.5843 67.0567 19.918C66.9618 20.2748 67.0176 20.1548 66.7407 20.4202C66.2953 20.393 65.9182 20.4155 65.8132 19.903C65.93 19.6008 66.0069 19.5695 66.2699 19.4009Z" fill="black"/>
<path d="M62.0172 18L62.451 18.0549C62.7399 18.2917 62.6822 18.1835 62.804 18.5171C62.7092 18.874 62.7649 18.7539 62.488 19.0193C62.0426 18.9921 61.6655 19.0146 61.5605 18.5021C61.6773 18.1999 61.7542 18.1687 62.0172 18Z" fill="black"/>
<path d="M20.0172 30L20.451 30.0549C20.7399 30.2917 20.6822 30.1835 20.804 30.5171C20.7092 30.874 20.7649 30.7539 20.488 31.0193C20.0426 30.9921 19.6655 31.0146 19.5605 30.5021C19.6773 30.1999 19.7542 30.1687 20.0172 30Z" fill="black"/>
<path d="M18.0172 31L18.451 31.0549C18.7399 31.2917 18.6822 31.1835 18.804 31.5171C18.7092 31.874 18.7649 31.7539 18.488 32.0193C18.0426 31.9921 17.6655 32.0146 17.5605 31.5021C17.6773 31.1999 17.7542 31.1687 18.0172 31Z" fill="black"/>
<path d="M35.1327 14.7783C36.4428 15.2834 41.7655 15.8668 43.4983 16.0921C43.6051 17.0416 43.5715 18.467 43.5727 19.4469C43.57 21.2342 43.5769 23.0214 43.5931 24.8087C40.5848 24.492 38.1988 24.1318 35.2353 23.6175C35.1236 20.6725 35.0893 17.7251 35.1327 14.7783Z" fill="#93C5A9"/>
<path d="M48.3869 13.6987C48.8063 14.0049 48.6706 20.8725 48.5566 21.737C47.7703 22.732 45.8514 23.9376 44.7328 24.6211C44.6017 24.5812 44.6232 24.5766 44.5144 24.4756C44.4702 23.4356 44.1827 16.8856 44.6393 15.9656C44.7281 15.7867 47.8133 14.0506 48.3869 13.6987Z" fill="#93C5A9"/>
<path d="M40.6701 12.2743C41.2064 12.2621 41.7967 12.3237 42.331 12.3887C44.0795 12.6016 45.8814 12.7035 47.6157 13.0027C46.6498 13.819 44.6494 15.2527 43.3816 15.2477C41.6661 15.0652 37.7592 14.5249 36.1412 14.0202C36.9805 13.5685 39.7596 12.4534 40.6701 12.2743Z" fill="#93C5A9"/>
<path d="M65.2925 5.62134C65.9685 5.82886 67.195 7.70239 67.3558 8.39299L67.2635 8.51941C65.9168 8.21108 64.2745 7.13695 65.2925 5.62134Z" fill="#93C5A9"/>
<path d="M70.2518 8.2036C70.8098 8.15228 71.2721 7.99126 71.5271 8.55725C71.3975 9.2998 70.6508 9.27936 70.077 9.29053C69.6254 9.24113 68.9785 9.25112 68.7007 8.8595L68.7398 8.65361C69.1929 8.24283 69.6465 8.26527 70.2518 8.2036Z" fill="#93C5A9"/>
<path d="M26.8402 8.94518C27.7443 8.65583 28.713 9.14807 29.0122 10.049C29.1442 10.4467 29.1277 10.8788 28.9655 11.2652C28.7602 11.7546 28.3418 12.1228 27.8304 12.2644C26.9213 12.5161 25.978 11.9941 25.7083 11.0902C25.4387 10.1862 25.9418 9.23272 26.8402 8.94518Z" fill="black"/>
<path d="M27.292 9.43726C28.9332 9.97491 28.635 10.8665 27.5191 11.7398C26.3112 11.8078 25.9713 10.2124 27.292 9.43726Z" fill="white"/>
<path d="M31.9182 3.98982C33.5433 3.80527 34.1396 5.12543 32.8292 6.18467C32.6701 6.24561 32.4882 6.25152 32.3215 6.22118C32.0559 6.17387 31.8193 6.02492 31.6618 5.80604C31.2467 5.22034 31.2903 4.40732 31.9182 3.98982Z" fill="black"/>
</svg>
