<svg width="280" height="280" viewBox="0 0 280 280" fill="none" xmlns="http://www.w3.org/2000/svg">
<rect width="280" height="280" rx="31" fill="#323E83"/>
<path d="M50.096 70.0684L77.6013 70.046C82.5789 70.0434 88.4542 69.8958 93.3749 70.1435C98.3716 74.5528 104.897 81.4699 109.72 86.2739L139.937 116.374C143.592 113.273 151.181 105.279 154.786 101.686C165.339 91.0898 175.953 80.5558 186.631 70.084C187.443 71.1874 190.524 74.1274 191.648 75.2421L201.5 85.0057C211.937 95.3648 222.421 106.133 233 116.298L186.405 162.625L184.904 161.155C170.149 146.478 154.459 131.326 140.018 116.455C140.2 126.773 140.041 137.683 140.043 148.033L140.048 208.928C124.651 209.091 108.954 208.925 93.5266 208.93C93.3618 193.513 93.6531 178.003 93.4742 162.562L47.1313 116.403C46.8738 101.31 47.0591 85.2423 47.148 70.1012L50.096 70.0684Z" fill="white"/>
</svg>
