<svg width="800" height="847" viewBox="0 0 800 847" fill="none" xmlns="http://www.w3.org/2000/svg">
<path d="M529.299 210.74C539.52 188.618 549.148 162.348 542.971 137.948C539.73 125.44 531.59 114.764 520.387 108.33C503.34 98.3608 485.003 100.047 470.766 113.817C450.936 132.99 444.903 159.432 431.853 182.756C432.897 173.439 433.593 165.565 432.198 156.23C428.127 128.913 404.074 114.6 377.623 119.103L375.202 119.653L373.119 120.352L369.768 121.736C338.342 136.621 331.28 189.032 322.969 219.535C321.197 225.818 319.334 232.075 317.384 238.305C316.682 240.563 314.815 246.019 314.457 248.144C313.594 250.596 311.159 257.347 310.753 259.72C298.929 293.442 290.15 327.495 273.51 359.431C269.289 367.54 266.039 376.682 261.029 384.368C261.527 353.111 252.963 321.602 231.83 297.829C231.011 296.82 229.824 295.645 228.9 294.68L228.448 294.236C226.644 292.046 223.722 289.436 221.568 287.601C212.935 279.91 203.722 274.923 193.355 270.012C163.93 256.075 130.775 271.653 132.878 306.638C133.187 322.981 142.352 331.682 149.891 344.698C156.558 356.204 160.539 375.553 160.579 389.083C160.765 454.242 125.182 510.839 157.375 574.864C161.249 582.392 165.507 589.712 170.127 596.806C172.618 600.613 181.16 612.114 180.684 616.333C179.841 623.824 174.18 633.487 171.673 640.93C168.443 650.518 160.017 664.296 171.609 671.619C173.495 681.962 193.041 694.842 201.551 700.986C217.433 712.464 236.32 720.992 254.224 728.761C272.82 737.311 286.844 741.496 306.9 745.272C311.614 747.388 333.123 750.666 337.043 749.57C342.694 750.71 347.803 751.467 351.448 745.645C359.211 733.022 363.58 718.897 371.437 706.197C376.383 698.201 383.173 700.091 391.745 697.9C393.372 697.744 398.049 696.331 399.624 695.729C400.875 695.427 402.731 694.877 403.937 694.461C474.384 670.162 511.68 590.371 542.265 528.642C542.716 527.999 543.747 525.486 544.124 524.628L544.403 523.925C545.63 522.296 547.883 517.782 548.949 515.77C551.431 510.394 554.662 505.109 557.41 499.891C574.449 467.538 595.761 441.324 621.211 415.368C637.763 398.487 668.867 370.821 673.121 347.254C674.95 337.3 672.675 327.031 666.816 318.781C657.352 305.266 639.999 297.007 623.572 297.804C613.145 298.31 604.127 302.339 595.703 308.251C595.069 307.754 594.428 307.266 593.78 306.788C608.307 283.496 630.568 258.333 627.971 228.732C625.849 204.118 600.188 180.716 574.934 187.768C557.865 192.534 544.718 209.558 534.131 223.034C531.896 226.122 529.535 229.289 527.387 232.426C519.223 243.085 515.807 249.998 506.088 260.548C512.46 248.178 519.401 232.221 525.445 219.339C526.782 216.751 528.116 213.461 529.299 210.74Z" fill="#FEFEFE"/>
<path d="M529.299 210.74C539.52 188.618 549.148 162.348 542.971 137.948C539.73 125.44 531.59 114.764 520.387 108.33C503.34 98.3608 485.003 100.047 470.766 113.817C450.936 132.99 444.903 159.432 431.853 182.756C432.897 173.439 433.593 165.565 432.198 156.23C428.127 128.913 404.074 114.6 377.623 119.103L375.202 119.653L373.119 120.352L369.768 121.736C338.342 136.621 331.28 189.032 322.969 219.535C321.197 225.818 319.334 232.075 317.384 238.305C316.682 240.563 314.815 246.019 314.457 248.144C313.594 250.596 311.159 257.347 310.753 259.72C298.929 293.442 290.15 327.495 273.51 359.431C269.289 367.54 266.039 376.682 261.029 384.368C261.527 353.111 252.963 321.602 231.83 297.829C231.011 296.82 229.824 295.645 228.9 294.68L228.448 294.236C226.644 292.046 223.722 289.436 221.568 287.601C212.935 279.91 203.722 274.923 193.355 270.012C163.93 256.075 130.775 271.653 132.878 306.638C133.187 322.981 142.352 331.682 149.891 344.698C156.558 356.204 160.539 375.553 160.579 389.083C160.765 454.242 125.182 510.839 157.375 574.864C161.249 582.392 165.507 589.712 170.127 596.806C172.618 600.613 181.16 612.114 180.684 616.333C179.841 623.824 174.18 633.487 171.673 640.93C168.443 650.518 160.017 664.296 171.609 671.619C174.778 671.838 179.96 671.847 181.746 668.484C187.664 657.351 192.614 645.618 197.009 633.738C199.178 627.872 202.231 619.227 201.525 612.788C199.636 604.275 191.052 594.257 186.357 585.994C176.545 568.718 170.3 554.715 167.201 535.024C161.62 499.528 170.821 468.683 177.724 434.394C183.192 407.212 183.158 372.769 173.986 346.157C171.734 339.78 168.933 333.61 165.619 327.716C158.489 315.259 145.098 298.885 164.5 289.396C176.827 283.368 196.364 295.019 205.448 302.287C230.831 322.598 240.672 354.175 239.151 385.884C238.68 395.745 235.112 412.035 238.161 421.816C248.631 439.438 267.328 415.398 272.618 407.507C279.682 396.97 282.421 391.276 287.1 381.65C302.445 350.07 315.507 318.313 326.281 285.009C327.46 281.326 328.675 277.654 329.931 273.997C330.403 271.852 331.742 268.578 332.422 265.924C333.909 262.592 335.846 255.12 337.193 251.141C342.628 235.075 345.598 221.537 348.929 204.892C353.167 187.167 357.168 165.69 366.41 149.809C374.289 136.279 400.468 131.691 408.822 147.21C417.577 163.474 411.106 189.354 407.255 206.48C406.392 209.722 405.125 213.974 404.462 217.177C400.029 231.646 395.32 245.961 391.703 260.659C389.595 269.234 386.802 277.494 383.987 285.86C381.009 294.815 377.808 303.694 374.39 312.491C371.611 319.756 368.954 326.902 366.774 334.241C364.122 343.171 372.403 351.269 379.944 345.678C385.654 341.444 390.714 327.209 393.448 320.775C397.014 312.386 400.63 304.02 404.302 295.677C407.681 287.939 411.119 280.228 414.628 272.548C416.277 268.856 419.436 261.96 420.632 258.176C423.436 252.899 426.943 243.439 429.688 237.359C435.317 224.03 442.336 210.349 448.391 196.914C457.458 177.405 465.259 158.539 476.804 140.239C488.582 121.575 508.817 116.114 520.365 138.862C526.32 150.592 525.278 163.52 521.093 175.784C518.793 181.173 515.982 187.641 514.012 193.116L513.897 193.368C512.625 195.412 511.992 197.118 511.094 199.323C500.93 221.493 491.003 243.771 481.316 266.152C476.614 277.311 472.551 288.81 467.668 299.895C458.487 320.733 447.437 340.425 439.681 361.915C434.777 375.506 447.33 384.36 456.719 373.383C460.716 368.71 464.44 361.967 467.613 356.567C469.713 352.969 472.048 349.253 474.224 345.679C477.827 339.948 481.467 334.24 485.143 328.556C493.708 315.366 502.697 302.457 512.096 289.849C517.907 282.083 524.088 274.592 529.87 266.808C539.816 253.417 565.967 210.145 582.199 207.118C586.864 206.249 591.543 207.726 595.417 210.324C600.991 214.061 605.171 220.283 606.45 226.881C609.755 243.935 592.497 267.878 583.26 281.521L568.19 303.702C565.638 307.615 563.037 311.497 560.389 315.346C544.167 339.856 528.812 364.375 514.423 390.012C510.147 397.632 505.063 404.63 501.092 412.437C498.319 417.886 497.455 424.387 503.296 428.295C509.333 432.15 514.129 428.318 518.071 423.758C525.61 415.036 531.927 405.369 538.961 396.245C550.824 380.884 563.704 366.336 577.514 352.699C579.584 351.011 583.613 346.883 585.705 344.874C597.854 334.487 614.159 317.79 631.655 319.796C650.872 322.001 661.064 338.268 646.884 355.142C623.52 382.945 595.738 406.918 573.134 435.337C559.305 452.847 547.376 471.778 537.55 491.813C535.02 496.003 532.78 500.897 530.501 505.304C498.101 566.914 466.981 648.165 396.468 674.608C379.581 680.939 347.205 679.399 332.504 668.06C324.352 661.776 318.294 655.898 310.847 665.908C310.621 669.07 310.594 670.373 311.665 673.479L311.926 674.018C320.706 691.582 349.674 696.642 351.063 699.102C350.974 703.364 342.327 718.595 340.489 723.682C337.124 733.003 330.847 739.427 337.043 749.57C342.694 750.71 347.803 751.467 351.448 745.645C359.211 733.022 363.58 718.897 371.437 706.197C376.383 698.201 383.173 700.091 391.745 697.9C393.372 697.744 398.049 696.331 399.624 695.729C400.875 695.427 402.731 694.877 403.937 694.461C474.384 670.162 511.68 590.371 542.265 528.642C542.716 527.999 543.747 525.486 544.124 524.628L544.403 523.925C545.63 522.296 547.883 517.782 548.949 515.77C551.431 510.394 554.662 505.109 557.41 499.891C574.449 467.538 595.761 441.324 621.211 415.368C637.763 398.487 668.867 370.821 673.121 347.254C674.95 337.3 672.675 327.031 666.816 318.781C657.352 305.266 639.999 297.007 623.572 297.804C613.145 298.31 604.127 302.339 595.703 308.251C595.069 307.754 594.428 307.266 593.78 306.788C608.307 283.496 630.568 258.333 627.971 228.732C625.849 204.118 600.188 180.716 574.934 187.768C557.865 192.534 544.718 209.558 534.131 223.034C531.896 226.122 529.535 229.289 527.387 232.426C519.223 243.085 515.807 249.998 506.088 260.548C512.46 248.178 519.401 232.221 525.445 219.339C526.782 216.751 528.116 213.461 529.299 210.74Z" fill="#040A11"/>
<path d="M311.665 673.479L310.957 674.377C306.607 674.167 306.488 669.248 302.159 667.493C297.186 668.062 296.168 677.344 296.749 681.277C298.169 690.892 308.165 697.542 315.117 703.323C319.532 707.051 333.198 712.385 334.098 716.792L333.752 717.797C331.565 718.501 331.933 716.853 329.708 717.612C329.292 719.158 329.74 721.331 329.205 722.362C325.578 729.339 322.632 734.608 320.274 742.193C314.692 745.799 312.68 744.326 306.9 745.271C311.613 747.388 333.122 750.665 337.042 749.57C330.847 739.427 337.123 733.003 340.489 723.682C342.326 718.595 350.973 703.364 351.062 699.102C349.673 696.642 320.706 691.582 311.925 674.018L311.665 673.479Z" fill="#1F8B61"/>
<path d="M347.575 568.565C354.504 569.155 364.029 569.523 370.714 567.861C384.761 564.358 396.814 555.362 404.169 542.892C407.161 537.844 411.685 529.629 409.987 523.576C409.358 521.331 407.293 518.508 405.13 517.506C396.031 513.283 392.169 523.113 389.513 529.802C385.83 539.066 378.484 545.766 369.361 549.283C359.142 553.162 347.805 552.843 337.824 548.393C325.127 542.743 315.158 530.077 315.2 515.844C315.221 508.709 317.313 501.554 314.684 494.893L314.473 494.369C311.385 490.352 309.606 489.272 304.51 490.403C301.172 492.753 299.883 494.511 298.503 498.42C289.62 523.544 308.296 558.932 334.232 565.812C338.517 567.203 343.12 567.818 347.575 568.565Z" fill="#040A11"/>
<path d="M348.066 431.468C336.891 426.495 332.339 438.599 329.379 446.907C327.022 453.521 325.018 461.511 331.264 466.525C336.618 468.731 340.437 467.738 344.124 463.033C349.889 455.679 356.795 438.652 348.066 431.468Z" fill="#040A11"/>
<path d="M418.367 461.822C408.983 457.198 403.153 464.032 399.642 472.175C396.541 479.367 394.554 487.581 400.333 494.084C404.33 496.47 407.856 496.04 411.376 492.874C418.689 486.29 425.939 470.317 418.367 461.822Z" fill="#040A11"/>
<path d="M512.7 490.668C509.853 489.666 506.623 489.131 504.361 491.407C499.831 495.969 502.251 499.743 505.348 503.283C512.615 507.206 521.458 497.684 512.7 490.668Z" fill="#040A11"/>
<path d="M526.367 478.02C527.569 475.88 527.591 473.274 526.424 471.115C525.257 468.956 523.065 467.546 520.617 467.379C517.886 467.193 515.289 468.582 513.927 470.956C512.564 473.33 512.675 476.273 514.212 478.54C515.751 480.801 518.445 481.991 521.154 481.597C523.353 481.279 525.279 479.958 526.367 478.02Z" fill="#040A11"/>
<path d="M526.367 478.02C524.534 477.526 522.374 476.696 520.623 477.078C519.21 479.445 520.989 479.246 521.154 481.597C523.353 481.279 525.279 479.957 526.367 478.02Z" fill="#1D2129"/>
<path d="M591.443 524.539C579.348 519.772 570.167 525.394 565.593 536.754C560.217 550.106 565.115 568.101 570.104 580.811C574.257 591.393 580.738 600.322 591.434 604.711C596.258 606.067 600.774 606.148 605.514 604.487C622.967 598.377 623.31 576.118 618.064 561.626C612.732 546.9 606.198 531.63 591.443 524.539Z" fill="#1F8B61"/>
<path d="M586.857 536.852C570.445 531.848 579.713 559.687 583.072 566.001C587.342 574.033 588.605 583.749 598.122 587.764C612.427 588.619 608.614 575.962 605.237 567.185C601.333 557.031 595.53 543.75 586.857 536.852Z" fill="#040A11"/>
<path d="M282.581 246.895C286.761 237.278 284.511 228.973 278.507 220.755C267.576 205.796 236.633 183.12 218.375 197.23C214.299 199.712 210.605 204.831 209.572 209.39C206.33 223.692 218.098 233.959 228.974 240.539C239.902 247.15 250.973 251.595 263.396 254.31C271.606 256.095 278.085 254.638 282.581 246.895Z" fill="#1F8B61"/>
<path d="M269.376 235.606C269.93 233.776 270.32 230.712 268.996 229.035C260.652 219.123 246.684 209.375 234.472 205.319C227.799 203.103 223.709 206.697 222.81 213.112C225.819 220.061 236.675 226.065 243.455 229.416C252.229 233.752 261.241 244.527 269.376 235.606Z" fill="#040A11"/>
<path d="M674.077 530.848C674.099 530.42 674.11 529.993 674.111 529.565C674.199 522.259 672.954 518.036 667.302 512.516C653.705 499.745 633.009 491.965 614.482 490.465C607.93 489.935 599.847 492.166 600.467 500.188C596.791 506.04 596.739 510.027 603.245 514.097C609.319 517.895 618.993 520.275 624.638 524.457C626.109 532.729 638.564 550.473 647.976 551.374C661.262 552.642 672.454 544.164 674.077 530.848Z" fill="#040A11"/>
<path d="M674.077 530.848C674.099 530.421 674.11 529.993 674.111 529.565C674.199 522.259 672.954 518.036 667.302 512.516C653.705 499.746 633.009 491.965 614.482 490.465C607.93 489.935 599.847 492.166 600.467 500.188C602.525 499.412 605.739 498.348 607.989 498.55C615.595 499.598 624.091 503.04 631.15 506.464C640.648 511.07 654.798 517.296 660.433 526.366C662.168 529.159 658.88 534.401 657.372 536.854C657.523 537.118 657.688 537.494 657.968 537.666C668.91 544.401 668.731 538.661 673.774 531.284L674.077 530.848Z" fill="#1F8B61"/>
<path d="M297.827 207.267C298.883 209.163 301.655 210.724 303.848 210.678C305.289 210.648 306.656 210.038 307.645 208.987C311.129 205.217 307.914 198.482 306.102 194.227C299.096 177.764 289.152 159.542 274.159 149.209C270.056 146.381 265.105 145.955 260.383 146.141C253.309 145.171 245.291 154.298 247.554 161.354C246.79 163.916 247.629 168.306 248.997 170.187C255.536 179.161 264.928 187.546 272.514 195.74C276.693 200.254 283.202 208.921 287.404 211.815C291.934 212.714 294.836 210.485 297.827 207.267Z" fill="#1F8B61"/>
<path d="M297.827 207.267C297.124 196.128 283.571 179.902 275.901 171.768C270.116 165.632 261.885 156.656 253.033 156.386C251.25 158.002 249.284 159.708 247.554 161.355C246.79 163.916 247.629 168.306 248.997 170.187C255.536 179.162 264.928 187.546 272.514 195.74C276.693 200.254 283.202 208.921 287.404 211.815C291.934 212.714 294.835 210.485 297.827 207.267Z" fill="#040A11"/>
</svg>
