<svg width="632" height="514" viewBox="0 0 632 514" fill="none" xmlns="http://www.w3.org/2000/svg">
<g clip-path="url(#clip0_3_9)">
<path d="M282.01 217.831C282.113 217.427 282.999 214.053 282.582 213.883C279.805 212.708 275.97 213.249 273.526 211.181C263.148 202.401 264.041 188.901 266.211 176.789C266.84 173.281 269.167 161.784 271.581 160.042C272.358 162.211 268.637 177.268 268.288 180.919C267.496 189.201 266.489 192.912 269.597 201.207C270.165 198.28 270.682 194.994 271.649 192.197C272.462 189.846 277.34 189.446 279.251 190.582L279.269 191.243C277.945 192.498 276.463 192.705 274.665 193.211C273.052 199.108 269.501 207.317 277.859 210.024C281.434 211.182 284.4 210.302 287.549 208.599C288.561 205.693 291.333 198.262 290.081 195.39L290.331 194.878C288.583 192.045 286.448 193.275 285.127 191.146C287.387 190.08 291.841 191.747 292.712 194.517C294.116 198.983 292.921 201.86 292.006 206.094C293.822 203.682 298.381 196.653 300.78 196.173C301.23 197.777 299.618 201.041 298.749 202.418C295.558 207.478 290.603 210.896 285.157 212.942C285.286 216.755 285.249 217.678 283.702 221.211C291.255 224.737 300.162 224.112 307.028 219.23C305.504 214.606 303.956 200.65 307.387 197.124C308.839 198.451 307.61 216.355 309.694 216.531C335.266 218.685 363.826 229.265 378.635 251.575C412.135 307.931 402.77 383.679 389.121 445.023C387.825 450.995 386.733 458.698 384.062 464.236C382.812 466.222 380.08 463.201 380.286 472.416C380.504 482.208 379.595 494.655 373.324 502.555C372.821 503.19 372.603 503.119 371.913 503.25C371.365 502.104 371.768 500.038 372.356 498.992C378.853 487.45 376.429 476.536 378.605 464.255C375.005 463.754 370.839 463.051 367.248 462.952C367.79 471.164 368.375 505.134 365.11 511.059L364.417 511.391C362.215 509.499 363.679 501.907 363.91 499.075C365.027 485.396 364.597 471.93 364.187 458.263C363.84 446.662 363.31 436.258 361.417 424.779C360.456 418.949 357.603 408.643 357.846 403.192C354.856 404.192 346.767 402.11 343.176 401.494C336.143 400.222 329.021 399.511 321.876 399.369C303.436 398.997 285.994 401.284 268.021 405.385C263.858 406.336 259.346 407.533 255.142 408.098L254.583 408.173C252.189 413.442 249.766 420.193 247.661 425.699C241.664 441.065 236.425 456.711 231.963 472.59C230.56 477.409 229.291 482.267 228.158 487.157C226.65 493.671 224.912 502.495 222.68 508.969C222.445 509.653 221.96 509.633 221.435 509.751L220.772 508.989C218.939 502.416 231.738 458.579 235.042 449.668C237.19 443.873 240.615 434.543 243.127 428.362C245.642 422.176 249.876 414.627 252.208 408.169C253.834 403.666 251.266 403.382 254.377 398.531C254.613 396.647 253.484 394.699 252.659 393.001C249.273 386.031 247.768 379.384 246.374 371.816C244.505 372.788 240.894 374.998 238.855 374.527C238.755 373.838 241.654 369.804 242.349 368.738C245.784 363.365 248.915 357.802 251.725 352.077C252.887 349.712 256.177 342.28 257.279 340.824C262.578 333.821 266.101 335.253 269.272 325.66C275.121 323.364 278.846 323.14 284.942 321.262C293.758 318.545 306.233 308.61 311.28 300.631C311.899 299.654 311.6 298.648 311.228 297.649L310.334 295.248C311.182 291.225 317.994 288.601 309.858 283.902C308.807 281.499 311.505 277.457 308.579 275.31C306.213 274.814 304.296 275.74 302.263 276.777C302.06 276.546 301.855 276.316 301.647 276.088C295.371 269.207 285.717 282.671 280.965 287.363C281.564 284.308 282.444 277.769 277.822 278.386C271.501 279.23 262.846 289.09 260.282 294.487C257.657 300.017 257.185 303.005 253.248 307.494C250.679 307.537 248.626 307.503 246.232 308.704C243.211 310.165 241.748 314.454 238.825 315.918C229.625 320.523 220.422 325.03 211.497 330.172C207.21 332.642 202.975 335.198 198.685 337.663C196.005 332.201 192.8 320.569 191.576 314.688C190.083 307.467 188.964 300.172 188.226 292.835C187.394 284.722 184.795 243.233 188.255 238.601C190.645 235.401 212.638 231.75 217.619 231.129C219.549 236.085 220.858 241.013 222.142 246.159C225.093 243.401 226.676 240.321 230.22 237.891C232.219 238.266 235.33 246.189 237.699 248.85C243.41 255.264 243.038 252.079 250.353 252.972L250.939 253.046C253.818 251.42 262.363 247.08 264.329 245.108C265.464 242.557 260.716 228.449 260.497 222.34C262.185 220.385 278.732 218.179 282.01 217.831ZM357.767 402.438C357.659 400.084 357.684 398.192 357.754 395.833C325.817 388.574 293.674 391.187 261.862 397.67C259.811 398.089 257.106 398.298 255.604 399.74C255.35 401.533 254.8 403.741 255.2 405.385L255.6 405.649C283.419 399.096 306.863 393.832 335.869 397.125C342.611 397.891 351.74 399.483 357.767 402.438ZM284.243 225.777C283.409 226.901 282.486 227.789 282.487 229.101L283.215 229.511C283.979 228.529 284.89 227.663 284.91 226.473L284.243 225.777ZM278.088 221.577C276.272 222.349 274.004 223.173 272.507 224.372L272.324 225.058L273.066 225.62C274.793 224.913 277.827 223.861 278.664 222.177C278.533 222.031 278.233 221.664 278.088 221.577ZM301.791 227.317C302.457 228.867 302.54 229.378 303.84 230.418C304.694 230.631 304.588 230.659 305.449 230.673C304.481 228.708 303.924 227.901 301.791 227.317ZM310.72 221.656C311.71 223.784 313.666 224.834 315.985 224.833C314.739 222.705 313.061 222.107 310.72 221.656ZM369.335 286.488C369.205 314.437 371.697 339.696 363.27 367.118C362.424 369.869 358.024 384.907 359.161 386.665C359.954 386.19 359.757 386.424 360.287 385.732C363.831 378.76 365.114 373.074 366.893 365.472C372.054 344.168 373.891 322.194 372.338 300.329C372.132 297.511 372.101 287.336 369.335 286.488ZM222.45 247.232C222.573 251.421 225.406 261.258 226.532 265.94C228.165 272.935 229.563 279.982 230.726 287.07C231.147 289.715 231.497 298.862 232.887 300.12L233.644 300.025C235.394 292.384 231.664 278.089 229.899 270.385C228.832 265.727 225.136 249.724 222.45 247.232Z" fill="#0C3228"/>
<path d="M255.604 399.74C255.35 401.533 254.8 403.741 255.2 405.385L255.6 405.649C283.419 399.096 306.863 393.832 335.869 397.125C342.611 397.891 351.74 399.483 357.767 402.438L357.845 403.192C354.856 404.192 346.767 402.11 343.176 401.494C336.143 400.222 329.021 399.511 321.876 399.369C303.436 398.997 285.994 401.284 268.021 405.385C263.858 406.337 259.346 407.533 255.142 408.098L254.583 408.173C252.189 413.443 249.766 420.193 247.661 425.699C241.664 441.065 236.425 456.711 231.963 472.59C230.56 477.409 229.291 482.267 228.158 487.157C226.65 493.671 224.912 502.495 222.68 508.969C222.445 509.653 221.96 509.633 221.435 509.751L220.772 508.989C218.939 502.416 231.738 458.579 235.042 449.668C237.19 443.873 240.615 434.543 243.127 428.362C245.642 422.176 249.876 414.628 252.208 408.169C253.834 403.666 251.266 403.382 254.377 398.531L255.604 399.74Z" fill="white"/>
<path d="M310.72 221.656C313.061 222.107 314.739 222.705 315.985 224.833C313.666 224.834 311.71 223.784 310.72 221.656Z" fill="white" fill-opacity="0.027451"/>
<path d="M301.791 227.317C303.924 227.901 304.481 228.708 305.449 230.673C304.588 230.659 304.694 230.631 303.84 230.418C302.54 229.378 302.457 228.867 301.791 227.317Z" fill="#191919" fill-opacity="0.0235294"/>
<path d="M284.243 225.777L284.91 226.473C284.89 227.663 283.979 228.529 283.215 229.511L282.487 229.101C282.486 227.789 283.409 226.901 284.243 225.777Z" fill="#191919" fill-opacity="0.0901961"/>
<path d="M467.222 230.962L468.174 231.579C474.529 236.316 484.357 238.962 490.831 232.895L492.996 231.568C499.079 231.402 502.167 231.952 508.096 232.926C507.836 235.358 507.196 242.284 506.512 244.029C500.817 258.645 504.893 255.042 517.651 263.196C521.226 262.598 521.763 262.828 525.192 263.757C531.583 260.452 534.482 254.129 537.141 247.742C542.837 253.047 547.442 259.06 549.536 266.682C551.523 261.471 554.864 253.349 558.198 249.081C564.479 249.392 570.495 250.925 576.724 251.43C576.751 281.03 576.499 304.064 564.301 332.306C555.927 351.704 538.622 358.032 523.355 341.038C523.106 343.584 522.419 346.701 522.048 349.4C512.844 347.872 499.485 346.962 490.116 347.047C489.207 344.422 488.789 342.947 488.216 340.231C493.892 327.418 498.411 312.107 483.768 303.359C485.66 291.355 484.629 284.928 475.537 276.847C477.089 261.727 476.101 256.26 464.062 246.13C465.421 241.561 465.796 238.016 465.958 233.231C466.005 231.817 466.211 231.765 467.222 230.962ZM525.567 335.128C526.089 332.06 527.199 325.351 528.107 323.024C534.155 307.525 537.777 300.958 533.06 283.8C532.369 281.298 531.018 274.646 530.098 272.589L528.988 271.86C528.822 273.887 529.446 276.569 529.754 278.586C531.255 288.412 534.727 295.829 532.144 305.877C530.908 310.67 519.476 332.226 525.567 335.128ZM539.783 320.516C540.577 318.378 540.759 311.613 541.004 308.93C541.375 305.005 541.897 301.096 542.572 297.213C543.22 293.524 544.073 289.447 544.851 285.92C545.507 282.946 549.421 270.84 549.267 268.924L548.837 268.463C544.097 274.571 535.241 315.336 539.783 320.516Z" fill="#0C3228"/>
<path d="M448.917 138.022C459.507 136.717 464.666 141.946 467.289 151.633C477.045 159.063 465.184 163.322 462.47 162.299C463.375 160.366 467.716 158.712 469.817 157.719C469.094 156.697 468.66 156.271 467.779 155.365C464.717 154.127 460.329 156.412 458.895 159.128C457.469 161.833 460.519 166.632 461.202 169.448C462.794 176.015 461.684 181.655 458.342 187.478C466.649 198.687 465.748 210.507 457.331 221.257C463.888 230.858 464.105 237.669 460.041 248.543C472.061 254.368 475.505 265.731 471.63 277.912C471.184 279.324 472.779 280.466 473.846 281.039C483.492 286.22 481.817 297.355 479.858 306.34C496.203 311.685 490.515 329.433 484.811 340.697C485.242 342.371 485.684 344.041 486.138 345.709C487.584 350.488 488.935 354.791 489.567 359.772C486.751 360.748 474.115 365.179 474.138 359.674C474.17 352.741 476.955 344.873 475.402 337.959L475.284 337.456C466.238 327.814 464.883 323.085 469.059 310.109C459.101 301.628 457.872 296.586 459.369 283.852C457.604 282.343 455.384 281.231 453.499 279.69C445.347 273.03 443.94 263.418 447.282 253.759C437.048 244.941 436.838 229.566 443.628 218.555C441.14 215.157 439.208 212.272 437.889 208.211C435.602 201.094 436.281 193.355 439.777 186.747C431.123 179.617 430.033 166.495 439.821 160.035C439.647 159.509 439.481 158.981 439.319 158.452C436.597 149.582 439.572 140.881 448.917 138.022ZM443.498 160.311C434.378 168.978 432.146 177.084 443.229 185.703C437.877 199.813 437.861 205.634 447.089 218.025C443.154 225.787 440.35 232.36 443.222 241.21C445.185 247.263 447.405 248.863 451.24 253.21C448.874 259.408 447.8 264.487 450.264 270.954C452.551 276.947 459.768 278.618 461.668 282.124C463.651 285.775 460.388 290.874 462.632 297.217C464.891 303.613 471.294 306.064 471.926 309.805C472.598 313.785 468.857 318.854 470.402 324.901C471.993 331.138 478.602 334.361 478.957 338.943C479.384 344.357 477.895 353.609 477.354 359.299C480.968 358.734 482.666 358.295 486.115 357.286C485.85 356.402 485.261 354.654 485.084 353.829C483.986 349.765 482.647 344.334 480.944 340.553C485.905 331.072 491.443 319.863 482.745 310.803C479.921 309.916 478.732 309.731 475.77 309.332C477.417 301.019 481.829 288.26 471.681 283.558C470.8 283.016 466.594 281.794 467.174 280.254C471.101 269.838 471.132 259.253 460.685 252.826C453.563 248.445 456.438 248.376 458.552 242.133C461.261 234.137 457.762 227.331 453.116 220.987C462.197 209.662 464.579 200.088 454.59 187.987C457.307 181.82 460.246 175.421 457.801 168.398C456.035 164.148 454.12 163.064 455.427 158.225C456.616 153.818 466.692 153.131 464.567 148.682C461.787 142.853 455.415 140.229 449.53 140.689C441.191 144.463 439.445 151.588 443.143 159.552C443.257 159.806 443.38 160.059 443.498 160.311Z" fill="white"/>
<path d="M437.731 246.644C439.959 247.142 442.384 252.019 443.545 254.037C440.48 268.198 444.134 276.544 456.193 284.357C454.143 294.673 457.216 303.749 465.689 310.103C465.002 312.019 464.48 313.991 464.137 315.998C462.28 327.235 466.752 330.55 472.298 338.25L472.531 338.573C472.748 341.267 472.495 345.361 472.404 348.16C467.648 348.935 463.213 349.479 458.508 350.598C458.081 348.051 456.45 338.604 455.589 336.695C454.23 336.74 451.276 342.337 449.234 344.205C446.433 346.773 446.291 346.94 442.862 348.96C422.836 357.106 412.396 328.826 408.185 314.209C402.446 294.301 401.253 274.794 401.265 254.232C405.543 252.101 411.835 250.015 416.5 248.311C420.975 252.065 422.638 254.01 425.684 259.02C428.634 254.934 433.915 250.236 437.731 246.644ZM444.383 306.727C444.47 299.116 432.008 263.055 426.418 260.521C428.113 268.778 436.42 281.092 438.442 290.26C439.129 293.374 442.092 304.758 443.526 306.382L444.383 306.727Z" fill="#0C3228"/>
<path d="M384.089 90.8148C392.339 83.8671 398.523 92.9004 405.898 96.3673C410.204 98.3905 415.469 97.9686 418.712 102.314C424.704 109.663 422.934 124.425 420.387 133.053C428.038 137.825 426.102 145.087 417.606 146.524C417.25 146.584 416.891 146.635 416.535 146.678C415.169 154.441 414.375 162.975 407.616 167.834C407.308 168.055 406.992 168.268 406.672 168.471C407.063 173.104 407.198 175.348 410.283 179.014C407.02 187.586 402.955 191.768 395.387 197.145C386.748 191.736 384.546 189.995 380.026 181.13C380.086 180.99 380.35 179.399 380.402 179.12C381.396 180.219 383.013 182.855 384.039 184.241C387.589 189.037 390.613 191.263 395.415 194.468C400.368 190.11 404.223 186.061 407.213 180.129C405.317 175.303 404.887 174.336 404.887 169.238C399.859 170.606 391.796 171.041 387.014 168.827L386.962 168.407C385.438 168.018 385.281 167.944 384.042 167.036L383.786 166.845L383.359 167.107C377.495 165.684 375.509 157.588 375.476 152.382C375.466 150.843 375.763 147.24 375.233 146.041C373.3 145.971 371.678 147.432 368.985 145.568C368.97 145.557 367.705 144.927 367.662 144.905C362.691 138.229 365.155 134.053 372.886 132.505C369.792 123.968 371.191 116.252 372.993 107.651C368.621 96.807 367.694 83.1222 384.089 90.8148ZM406.119 165.234C414.359 158.95 412.254 143.04 415.015 140.119C416.476 140.642 415.971 142.4 417.989 143.388C419.233 143.484 420.154 143.206 421.173 142.409C421.832 141.886 422.251 141.118 422.33 140.28C422.464 138.899 422.208 138.156 421.532 137.035C419.948 135.774 416.686 136.171 416.452 135.431C414.971 130.73 412.878 123.079 410.721 118.888C397.722 119.634 391.34 118.788 379.36 113.036C378.503 118.453 377.922 128.182 376.784 133.779C376.305 136.135 368.563 134.488 368.073 137.951C366.524 142.103 371.41 144.922 374.953 143.405C377.147 140.858 375.013 137.646 377.444 137.356C378.193 138.763 377.979 141.033 377.98 142.614C377.984 151.802 376.3 163.244 387.679 166.364C393.091 167.848 401.194 168.473 406.119 165.234ZM380.116 105.882C380.41 103.966 377.883 101.005 377.27 98.8274C376.947 97.6791 376.382 94.9232 375.685 94.2896C373.262 98.1827 375.574 104.466 380.116 105.882Z" fill="white"/>
<path d="M400.396 147.501C401.999 147.517 401.628 147.265 402.572 148.099C404.512 153.012 402.983 161.963 397.334 164.28C392.481 166.271 383.561 161.319 386.226 156.078L386.857 155.996C388.823 157.397 388.161 158.928 390.783 161.083C400.175 165.445 399.977 155.835 401.281 150.132C396.722 150.469 389.878 151.272 386.261 148.53L386.397 148.083C388.397 147.51 396.73 147.917 400.396 147.501Z" fill="white"/>
<path d="M393.842 124.502L394.673 124.911C396.086 128.245 393.691 138.413 392.889 141.999C393.754 143.998 394.987 142.22 396.56 143.951L396.477 145.236C394.278 145.321 392.237 145.355 390.79 143.561C390.727 141.633 393.352 127.078 393.842 124.502Z" fill="white"/>
<path d="M388.39 120.917C389.352 121.069 389.563 121.228 390.438 121.634L390.635 122.254C389.627 123.327 385.679 124.455 384.063 125.021L383.25 125.512L382.718 125.216L382.76 124.328C384.595 121.975 385.575 121.873 388.39 120.917Z" fill="white"/>
<path d="M386.013 128.904C389.004 129.647 388.472 132.624 387.387 134.747C385.779 134.298 385.457 134.063 384.74 132.536C384.73 130.959 385.259 130.301 386.013 128.904Z" fill="white" fill-opacity="0.972549"/>
<path d="M402.232 121.769C405.369 121.929 409.133 122.738 409.244 126.575C407.273 126.195 404.239 123.864 402.335 122.632L402.232 121.769Z" fill="white"/>
<path d="M403.109 129.287C406.159 130.894 405.531 132.834 403.911 135.218C402.766 133.958 402.094 133.368 401.747 131.739C402.098 130.076 401.889 130.663 403.109 129.287Z" fill="white" fill-opacity="0.964706"/>
<path d="M375.685 94.2897C376.382 94.9233 376.947 97.6792 377.27 98.8274C377.883 101.005 380.41 103.966 380.116 105.882C375.574 104.466 373.262 98.1828 375.685 94.2897Z" fill="#191919" fill-opacity="0.01"/>
<path d="M88.4558 260.779C88.5574 260.899 88.8501 261.511 88.9342 261.677C88.2007 262.982 83.1703 264.893 81.5034 265.687C71.8963 270.265 63.7229 276.048 56.0125 283.379C33.492 304.45 20.3061 333.634 19.3778 364.461C18.7834 388.553 21.8936 410.259 39.509 428.445C48.3128 437.53 61.8044 442.384 74.271 442.526C98.9676 442.803 120.882 430.017 140.653 416.535C143.669 414.481 152.487 408.786 154.546 406.791C151.516 398.926 148.535 391.043 145.602 383.142C118.543 383.958 89.9794 383.769 65.3397 396.541C62.8136 397.852 57.6273 401.514 54.9508 401.316L54.5795 400.684C55.0669 399.302 56.1081 398.666 57.2872 397.864C79.6948 382.601 108.312 381.444 134.518 380.135C138.306 379.945 144.307 379.695 147.919 380.413C155.324 376.756 157.522 374.881 165.621 376.971C169.218 373.443 171.289 368.721 175.878 365.441C179.508 362.847 181.981 362.018 185.756 360.016C187.134 359.286 188.697 356.925 190.929 356.622L191.435 357.185C191.501 360.564 188.848 361.96 186.168 363.381C183.06 365.029 179.845 366.007 177.045 368.198C173.304 371.125 170.82 376.195 166.869 378.673C169.199 382.352 170.999 386.341 172.215 390.522C172.67 392.098 172.393 392.346 173.404 393.089C176.759 392.502 180.203 392.717 183.712 391.762C190.083 390.092 194.428 384.154 201.592 385.908C203.69 386.422 212.236 388.36 211.404 391.23C208.078 391.186 200.457 387.92 197.62 388.673C192.816 389.948 188.195 394.806 182.753 395.395C179.471 395.751 176.797 395.194 173.586 395.233C172.923 396.067 173.253 399.23 172.646 400.202C169.882 404.634 162.183 405.495 157.442 406.854C148.692 417.314 121.544 433.362 108.294 438.695C102.6 440.986 96.4187 442.578 90.4387 443.897C81.4399 462.292 73.2231 493.663 69.0689 513.907L65.4084 532.097C64.7503 535.363 64.0922 539.139 63.0641 542.303C62.6841 543.477 62.5675 543.267 61.539 543.698L60.9508 543.287C60.2469 540.735 62.5897 529.889 63.2481 526.721C68.8729 499.671 75.1996 468.853 88.0553 444.328C75.3675 446.943 59.7674 445.453 48.4803 438.869C6.61706 414.438 9.87838 348.599 30.5669 311.558C42.9582 289.373 63.5906 267.69 88.4558 260.779ZM148.189 382.85C150.541 386.805 154.133 399.669 155.976 404.701C157.1 404.33 158.573 403.789 159.678 403.481C162.973 402.667 168.577 401.676 170.535 398.926C171.504 394.289 167.46 380.234 161.564 378.458C160.878 378.251 158.871 378.434 158.085 378.506C154.543 379.648 151.524 381.222 148.189 382.85Z" fill="white"/>
<path d="M128.888 295.507C129.774 294.185 130.371 292.955 131.747 292.27C132.38 292.763 133.236 299.46 133.805 301.248C134.842 304.319 135.89 307.434 136.826 310.537C139.789 320.363 143.662 329.97 147.276 339.578L153.819 357.384C155.145 360.986 156.45 363.595 157.532 367.375C158.419 370.097 159.127 372.372 160.377 374.959C156.565 373.933 133.39 367.394 131.639 368.05L131.758 368.471C132.263 370.308 132.63 371.437 131.702 373.096L130.978 373.257C130.209 372.86 129.473 372.734 129.233 371.795C128.741 369.535 128.052 364.738 128.068 362.548C128.134 354.118 121.237 305.234 122.807 301.537C122.613 297.899 120.514 297.085 119.369 293.407C120.451 293.452 123.289 296.306 124.171 297.147C126.21 296.182 126.672 296.005 128.888 295.507ZM132.261 365.146C136.285 365.232 150.933 369.411 155.596 370.727C155.156 369.348 154.704 368.028 154.386 366.616C153.897 365.432 152.201 361.12 151.399 360.609C144.973 356.514 136.936 353.001 130.171 349.045C130.457 354.023 130.73 359.401 131.387 364.343C131.448 364.802 131.639 364.732 132.261 365.146ZM124.015 299.35C125.396 300.743 128.954 301.761 130.88 302.151C131.12 301.907 131.402 301.66 131.58 301.385C130.962 299.76 131.414 296.4 128.064 297.704C126.677 298.244 125.362 298.691 124.015 299.35ZM143.126 337.073C140.448 330.637 139.106 324.82 135.87 318.536C133.107 317.939 129.261 315.986 126.735 314.621C127.068 319.123 127.368 324.093 127.901 328.567C130.134 329.537 142.581 336.964 143.126 337.073ZM125.539 302.737L126.235 312.446C129.263 313.167 133.612 315.15 135.406 315.511C134.762 312.526 133.045 308.082 131.841 305.174C129.538 304.41 127.701 303.358 125.539 302.737ZM150.375 355.692C148.901 352.426 147.599 348.282 146.199 345.377C143.142 339.03 133.986 335.536 128.379 330.882L128.436 331.281C129.176 336.735 128.258 341.579 130.319 346.609C133.255 348.126 148.369 355.504 150.375 355.692Z" fill="#0C3228"/>
<path d="M128.07 260.417C141.001 259.555 152.679 264.626 163.161 271.605C177.834 281.374 182.964 293.105 187.37 309.451C190.462 320.923 193.174 332.031 195.377 343.801C202.101 338.718 233.28 320.98 241.386 318.721C243.572 314.746 246.569 309.612 252.038 311.759C256.396 313.545 262.111 318.238 264.031 322.595C266.967 329.259 259.805 334.799 254.711 337.06C243.721 361.675 227.642 390.628 202.076 402.71C199.857 403.291 192.892 404.926 191.727 401.964C193.571 399.689 198.666 400.826 202.56 398.788C225.254 386.903 243.808 357.466 252.285 334.497C249.938 330.969 244.995 325.01 242.204 321.278C237.303 322.92 231.995 325.966 227.286 328.155C216.353 333.235 206.353 340.387 195.728 345.916C195.975 349.005 196.473 351.257 195.147 354.05L194.556 354.144C192.788 351.763 190.616 335.521 189.421 330.863C185.804 316.798 183.181 299.963 175.294 287.706C165.625 272.68 146.133 263.441 128.64 262.107C127.952 262.055 128.05 261.874 127.724 261.334L128.07 260.417ZM243.438 319.674C246.37 322.245 253.949 332.874 255.396 333.341L256.217 332.793C257.491 331.584 262.301 327.051 261.862 325.377C260.712 320.997 252.905 314.006 248.56 313.655C245.919 315.501 245.118 316.912 243.438 319.674Z" fill="white" fill-opacity="0.988235"/>
<path d="M188.544 396.754C192.112 398.839 190.383 414.916 189.55 418.526C188.486 423.144 189.428 428.239 187.897 432.671C187.469 433.907 179.539 434.046 178.269 434.694C176.168 435.76 175.034 437.127 172.715 437.518C167.172 438.249 160.541 439.753 154.998 439.24C153.992 439.145 152.026 437.818 151.176 437.265C141.549 437.332 124.53 440.757 114.351 442.471C113.288 441.74 112.495 441.349 112.746 440.002C116.376 437.194 131.279 429.393 136.113 426.908C137.191 426.351 148.654 424.147 150.924 423.641C153.284 418.728 158.833 418.337 163.689 418.202C168.897 418.056 174.092 416.867 177.849 421.094L184.642 420.679C186.587 415.595 187.702 410.741 187.986 405.278C188.14 402.311 187.991 399.689 188.544 396.754ZM155.158 422.16C153.661 435.831 152.826 437.538 166.797 435.432C170.79 435.037 174.896 434.998 174.677 429.511C174.573 426.912 174.272 423.878 173.88 421.315C170.333 420.711 166.286 420.387 162.699 420.817C159.864 421.2 157.925 421.493 155.158 422.16Z" fill="white"/>
<path d="M93.8204 210.208C96.0944 209.832 98.6106 210.151 99.9603 212.242C100.689 213.373 100.933 214.749 100.639 216.062C99.5511 221.099 94.9943 220.755 91.1771 219.962C85.8592 225.875 83.8767 223.251 78.8037 226.898C73.6466 230.606 75.8495 231.39 68.6577 234.817C67.2045 237.092 65.937 239.278 64.5963 241.612C63.8573 241.738 63.4615 241.988 62.7371 241.556C61.4652 240.797 56.6841 235.215 57.7419 233.722C60.0661 230.443 62.6557 226.876 64.6181 223.272C65.5992 220.965 68.4164 219.965 70.135 218.412C75.3091 213.736 81.2855 212.356 87.9614 211.164C90.6343 210.686 90.7836 211.578 93.8204 210.208Z" fill="white"/>
<path d="M88.1095 226.277C91.6313 222.625 94.4675 221.14 98.9436 224.77L99.1213 225.46C96.8288 226.272 95.938 224.565 93.4002 225.416C91.0586 227.343 91.0574 230.018 90.8781 232.772C90.0197 245.956 99.967 240.08 102.167 241.033C101.827 243.778 99.4354 244.75 97.1795 245.429C98.0849 249.332 100.264 260.933 94.9644 262.686L93.7647 260.741C95.607 255.538 95.564 250.742 94.7096 245.332C89.7934 242.327 89.5615 241.752 87.4357 236.384C86.095 241.947 85.1443 250.903 81.3072 255.058C81.4771 256.892 81.8365 258.594 81.2124 260.269C80.5002 260.924 80.0736 261.408 78.8381 261.198C76.4325 260.789 72.3933 260.642 70.3681 259.504L69.9569 258.708C72.3909 251.697 75.2831 254.765 72.7073 246.32C71.971 243.905 79.9654 227.473 83.24 226.285C85.6218 225.419 85.9979 225.716 88.1095 226.277Z" fill="white"/>
<path d="M94.3876 198.316C96.8505 198.085 100.611 199.797 101.056 199.708C108.473 198.213 112.614 204.929 105.885 209.642C103.129 211.573 100.554 208.813 98.4004 208.691C94.864 208.49 93.5222 209.302 89.5189 208.077C85.7028 209.886 85.0107 210.144 81.0738 209.218C78.1946 211.629 77.0807 212.913 73.3318 212.729C72.1878 212.541 70.6655 211.845 69.5496 211.393C67.6892 212.572 64.9194 215.347 62.9057 214.729C61.1417 212.621 59.1544 206.983 58.9668 204.232C60.5089 202.757 64.7543 203.647 66.7278 203.248C69.2052 202.748 71.3931 200.359 74.0834 200.026C77.452 199.61 91.6424 199.426 93.9207 198.508L94.3876 198.316Z" fill="white"/>
<path d="M452.71 352.61L453.199 352.907C453.95 354.92 450.438 360.946 449.305 363.092C438.667 383.199 435.049 403.623 433.339 425.948C431.751 446.654 434.638 494.034 417.483 508.365C417.321 508.081 416.772 507.113 416.859 506.852C418.447 502.385 420.865 498.17 422.678 493.71C430.668 474.039 428.484 452.615 429.626 431.94C430.965 407.699 436.775 371.768 452.71 352.61Z" fill="white" fill-opacity="0.988235"/>
<path d="M319.619 400.747C324.669 403.05 319.027 439.73 319.418 445.189C319.992 453.199 308.737 465.918 309.172 467.214C311.127 473.016 313.867 504.771 308.862 507.741L308.23 507.461C307.574 505.746 308.369 497.277 308.479 494.911C308.83 485.795 308.635 476.662 307.896 467.569C305.387 472.74 302.2 478.001 299.508 483.235C295.398 491.036 292.294 499.059 289.537 507.393C288.894 509.341 287.545 513.781 285.44 514.124C284.628 512.228 287.868 502.306 288.692 500.114C294.035 486.083 301.28 472.112 310.028 459.895C315.954 451.615 316.233 447.997 317.018 437.925C317.534 431.7 317.93 425.466 318.205 419.229C318.427 413.573 318.36 406.269 319.619 400.747Z" fill="white" fill-opacity="0.988235"/>
<path d="M526.18 352.407C532.523 354.213 535.663 373.478 536.801 379.803C543.777 418.593 543.749 459.413 528.783 496.377L528.087 496.353C527.404 495.907 526.906 495.618 527.179 494.631C530.777 481.659 534.506 468.92 536.41 455.514C541.371 420.825 537.86 385.448 526.18 352.407Z" fill="white"/>
<path d="M121.918 257.76C116.647 256.087 110.071 252.939 107.94 247.361L108.245 246.758C111.572 246.063 115.741 252.692 119.913 253.847C123.492 254.839 126.093 255.97 129.944 254.206C145.821 246.934 139.207 225.045 137.398 211.779C136.958 208.741 134.838 202.785 135.871 200.316L136.41 200.473C139.232 204.13 140.874 212.513 141.645 217.539C143.717 231.053 146.928 252.432 129.754 257.388C127.962 257.905 125.928 257.337 123.856 258.197C123.679 259.534 123.577 258.892 124.335 260.156C124.773 260.354 126.272 260.982 126.335 261.298C127.103 265.111 124.848 275.715 121.746 277.861C118.21 277.569 101.842 271.349 97.9948 268.912C95.2831 267.195 91.3564 263.811 90.5684 260.548L90.946 260.091C92.2771 260.649 92.3502 260.71 93.7647 260.741L94.9643 262.686C94.6629 262.997 94.8079 262.774 94.7858 263.465C102.198 269.497 112.144 272.13 121.168 274.997C122.053 272.081 122.715 269.513 123.432 266.57C122.116 262.916 121.778 261.703 121.918 257.76Z" fill="white"/>
<path d="M500.362 402.726C500.714 402.951 500.832 403.173 501.117 403.516C501.022 405.791 497.163 412.341 496.037 414.865C493.229 421.113 490.712 427.489 488.493 433.971C486.81 438.971 485.419 444.067 484.321 449.226C481.09 464.232 476.093 500.386 463.307 509.534C462.976 509.143 462.118 508.298 462.249 507.99C465.286 500.872 470.157 493.106 472.582 485.751C476.022 475.3 477.282 466.029 479.348 455.636C482.726 438.628 489.444 416.251 500.362 402.726Z" fill="white" fill-opacity="0.980392"/>
<path d="M294.131 134.456C326.935 133.705 322.254 165.666 322.474 188.478C322.508 191.991 326.889 197.574 328.318 200.754L327.655 201.481C325.809 201.43 325.232 200.691 323.842 199.338C317.462 193.13 319.462 178.958 319.574 170.146C318.791 160.727 317.996 146.939 309.742 141.391C298.873 134.085 280.558 137.77 274.116 149.513C272.874 151.778 271.537 154.133 270.073 156.139L269.796 156.516C271.585 142.832 280.825 135.948 294.131 134.456Z" fill="white" fill-opacity="0.988235"/>
<path d="M87.4257 172.067C90.293 172.495 93.5387 175.389 95.9138 177.225C102.026 177.207 103.341 177.184 106.54 182.625C111.578 184.786 114.664 189.059 117.917 193.404C120.55 196.921 120.136 201.644 114.343 200.015C110.617 198.104 110.463 196.818 108.625 193.014C104.879 190.97 104.242 190.605 101.979 187.053C94.8173 186.82 94.5582 185.5 88.0296 183.126C86.4153 182.539 82.551 181.555 80.7174 181.048C82.6889 177.81 84.8183 174.825 87.4257 172.067Z" fill="white"/>
<path d="M104.634 165.824C107.261 165.969 107.237 167.528 109.265 168.846C113.574 171.648 117.719 174.646 121.887 177.645C124.87 179.792 124.758 181.768 125.261 185.208C128.07 188.099 128.704 189.955 128.247 194.039C127.854 197.543 126.25 199.01 122.941 198.22C119.67 195.069 119.724 192.611 119.498 188.309C115.705 185.836 115.338 185.388 113.1 181.438C108.492 180.457 107.763 180.396 105.7 176.125C103.349 175.246 99.1845 174.222 98.6429 171.525C99.2564 169.037 102.409 167.373 104.634 165.824Z" fill="white"/>
<path d="M65.9192 183.431C67.5351 183.769 72.7305 186.491 74.5377 187.357C80.1834 186.062 90.3151 187.618 96.3353 188.13C101.756 188.59 106.884 193.483 99.6281 197.402C96.301 197.143 95.4711 196.534 92.6468 194.89C88.5748 195.99 88.1738 196.033 84.195 194.728C79.3879 196.305 78.428 196.15 73.7449 194.57C72.2451 194.954 67.4178 196.329 66.3651 195.836C63.4164 194.456 65.06 185.703 65.9192 183.431Z" fill="white"/>
<path d="M121.963 168.659C129.862 168.331 129.595 172.597 133.669 176.58C138.826 181.621 138.751 178.954 138.58 187.199C138.478 192.1 142.01 192.932 136.472 197.726C133.645 198.484 130.831 197.498 129.927 194.44C128.971 191.203 129.697 189.647 131.125 186.83C126.473 182.944 126.143 177.798 121.021 174.08C119.103 172.687 120.061 170.218 121.963 168.659Z" fill="white"/>
<path d="M186.126 433.828C186.857 433.975 187.586 434.22 187.876 434.974C196.981 458.678 196.869 485.017 195.792 510.028C195.417 518.718 195.66 526.918 192.697 535.146C192.096 535.75 192.443 535.577 191.601 535.596C191.064 534.151 192.394 523.869 192.517 521.783C193.815 499.718 194.575 478.029 191.162 456.102C190.533 452.058 185.886 435.961 186.126 433.828Z" fill="white"/>
<path d="M493.244 426.079C496.175 428.188 498.32 439.73 498.597 443.352C499.932 461.001 501.374 485.83 493.545 502.092L492.336 502.479L491.696 502.136C491.348 500.82 495.377 483.061 495.733 479.727C496.989 466.685 496.827 453.543 495.247 440.532C494.888 437.569 492.612 427.71 493.244 426.079Z" fill="white"/>
<path d="M164.614 438.987L165.665 439.276C168.734 442.673 171.278 479.625 169.188 486.403C168.383 489.01 163.226 495.851 161.222 498.652C160.524 498.861 160.823 498.77 159.949 498.549C158.158 495.445 162.821 491.487 164.525 488.955C170.807 479.613 164.286 450.987 164.602 439.287C164.605 439.189 164.61 439.086 164.614 438.987Z" fill="white"/>
<path d="M177.447 179.194C177.609 179.325 178.305 180.133 178.316 180.234C179.19 188.483 180.052 196.354 182.138 204.426C184.868 214.991 194.63 222.147 190.989 233.67C190.255 233.93 190.247 233.863 189.459 233.755C188.445 232.355 189.012 228.699 188.017 225.899C186.263 220.963 183.827 215.805 181.414 211.218C178.095 204.911 174.961 185.841 177.447 179.194Z" fill="white" fill-opacity="0.988235"/>
<path d="M488.204 224.678C483.113 223.608 474.15 219.111 472.057 214.194L472.408 213.933C475.173 215.008 477.717 217.465 480.221 219.091C482.943 220.858 487.363 223.498 490.736 222.624C492.743 222.105 493.868 220.399 494.836 218.699C501.658 206.711 494.453 186.511 495.938 183.75C501.121 186.23 500.864 214.446 497.447 219.486C495.764 221.971 490.748 224.837 490.369 225.682C490.523 227.81 491.589 229.454 492.743 231.197L492.996 231.568L490.831 232.895C488.496 231.079 488.386 227.37 488.204 224.678Z" fill="white"/>
<path d="M88.9753 265.171C91.5701 266.366 92.7188 272.697 94.7684 276.172C99.8141 284.725 105.598 289.736 111.889 296.92C113.009 293.759 118.106 278.277 121.745 279.503C121.873 280.467 120.897 282.209 120.445 283.2C117.387 289.081 115.855 293.823 113.688 299.992L113.034 300.197C110.829 299.563 108.591 297.071 107.022 295.392C100.877 288.813 87.679 274.58 88.9753 265.171Z" fill="white" fill-opacity="0.984314"/>
<path d="M309.292 402.746L309.966 403.161C312.862 407.972 308.678 447.78 304.171 453.661C302.305 450.632 303.812 446.275 304.374 442.752C305.319 437.068 306.117 431.356 306.766 425.628C307.118 422.441 308.432 404.559 309.292 402.746Z" fill="white"/>
<path d="M307.076 298.512L307.652 298.969L307.641 299.755C301.981 307.37 291.496 316.345 282.581 318.949C278.44 320.158 272.677 321.266 268.218 322.397C267.681 321.672 267.723 321.722 267.634 320.817C268.981 317.699 273.985 317.268 277.196 316.669C287.726 314.706 292.807 310.345 300.507 303.591C302.085 302.207 305.218 299.557 307.076 298.512Z" fill="white"/>
<path d="M516.751 223.589C519.54 224.593 519.958 226.363 522.763 226.452C527.175 226.592 526.128 230.012 530.908 231.434C533.266 235.524 535.849 235.522 535.391 241.032C534.941 246.429 530.363 257.98 524.919 259.816L524.398 259.388C524.596 257.722 525.749 256.517 526.784 255.106C531.303 249.959 532.646 244.04 533.195 237.45C531.524 237.141 531.35 237.369 530.126 236.361C530.098 235.562 530.046 234.764 529.967 233.967C529.047 232.968 529.43 233.093 528.305 232.851C527.495 233.434 527.301 233.644 526.314 233.905C524.382 232.155 526.172 231.396 524.477 228.936C521.301 227.477 522.135 230.022 519.48 230.507C517.967 228.801 519.334 228.26 517.963 226.211C515.337 224.947 514.638 227.762 512.208 228.128L511.991 227.151C512.777 225.188 514.875 224.465 516.751 223.589Z" fill="white"/>
<path d="M250.21 213.707C253.056 213.459 256.063 214.698 257.225 217.448L256.922 217.897C255.747 217.93 253.648 216.191 252.088 215.444C248.912 216.174 250.861 218.483 249.024 220.483C246.885 219.266 247.234 217.587 244.471 218.402C243.181 219.827 243.35 220.798 243.107 222.912C241.659 224.434 242.595 222.515 239.608 222.919C238.343 224.144 238.657 224.495 238.42 226.593C236.975 228.253 237.676 226.344 235.904 227.159C234.121 230.955 238.332 239.84 240.468 243.13C241.616 245.046 244.634 247.443 244.78 249.258L244.258 249.668C239.648 249.619 235.061 237.808 233.905 234.125C232.314 229.057 233.839 224.829 237.971 221.656C239.19 220.719 241.028 220.043 241.689 218.582C242.28 217.093 244.14 216.33 245.652 216.337C248.175 216.349 248.566 215.353 250.21 213.707Z" fill="white" fill-opacity="0.988235"/>
<path d="M605.045 175.197C605.401 175.27 605.756 175.342 606.116 175.415C618.329 181.937 617.381 203.329 613.956 213.584C612.76 214.384 613.328 214.34 612.25 214.178C611.239 212.044 612.147 208.252 612.353 206.192C613.273 196.957 613.49 187.264 607.297 179.663C606.353 178.506 605.148 176.793 605.045 175.197Z" fill="#0C3228"/>
<path d="M174.101 128.856C175.354 128.729 176.058 128.728 176.818 129.662C175.818 132.741 166.526 136.988 163.374 140.447C159.021 145.221 156.596 148.308 153.772 154.154C152.746 154.851 153.289 154.711 152.107 154.663C151.453 153.26 152.31 151.533 152.82 150.168C156.563 140.148 164.407 133.05 174.101 128.856Z" fill="white" fill-opacity="0.988235"/>
<path d="M154.669 500.647C155.475 500.947 155.202 500.663 155.567 501.445C154.595 504.605 152.124 509.285 150.956 512.603C148.829 518.647 145.796 539.376 141.979 542.884C141.675 542.604 141.138 541.984 141.21 541.565C143.066 530.766 147.342 508.294 154.669 500.647Z" fill="white" fill-opacity="0.984314"/>
<path d="M194.838 139.16L196.112 139.19C197.351 139.997 197.044 139.47 197.379 140.61C195.952 142.872 188.2 144.25 185.407 145.782C178.569 149.531 174.754 153.166 169.602 158.776L168.424 159.353L167.779 159.027C167.104 155.695 174.184 149.003 176.819 147.004C182.687 142.551 187.647 140.24 194.838 139.16Z" fill="#0C3228"/>
<path d="M276.459 281.422C277.119 281.765 277.087 281.8 277.664 282.288L277.703 283.362C276.002 287.334 271.48 288.929 268.936 292.172C263.314 299.335 263.488 306.196 255.806 311.586C254.552 311.189 254.996 311.555 254.294 310.654C254.864 308.779 257.249 307.494 258.008 305.602C262.502 294.397 265.977 288.386 276.459 281.422Z" fill="white"/>
<path d="M198.042 156.939C199.031 157.454 199.17 157.899 199.085 159.029C198.429 166.648 197.566 174.03 197.509 181.695C197.485 185.064 198.39 195.171 196.249 197.377C191.857 191.981 194.546 163.624 198.042 156.939Z" fill="white"/>
<path d="M585.718 174.552C597.516 175.766 602.932 188.573 603.291 198.959C603.374 201.324 603.631 203.385 603.062 205.718C602.715 205.583 601.751 205.216 601.617 204.9C599.191 199.193 599.219 191.646 596.446 185.838C594.447 181.646 587.065 177.521 585.544 175.54L585.718 174.552Z" fill="#0C3228"/>
<path d="M413.016 179.883C420.438 182.782 412.763 207.059 410.749 212.619C407.711 209.28 405.697 205.016 401.901 202.283C400.289 201.037 399.219 200.601 398.397 198.777L398.693 198.384C403.157 198.935 407.739 204.264 410.369 207.553C411.558 202.347 412.767 198.828 413.202 193.308C413.51 189.407 412.672 183.145 413.016 179.883Z" fill="white"/>
<path d="M129.576 263.698C130.356 263.817 131.463 264.164 132.039 264.767C135.742 268.642 141.56 288.167 137.386 292.033C134.822 291.553 130.854 285.709 127.643 282.883C126.209 281.679 124.851 281.501 124.441 279.561L125.051 279.254C129.707 280.3 133.865 284.546 136.453 288.376C136.22 282.752 135.558 279.128 133.737 273.76C132.784 270.949 129.701 265.596 129.576 263.698Z" fill="white"/>
<path d="M217.892 191.368C223.737 193.294 215.761 214.464 214.193 218.014C213.127 220.424 214.656 225.901 212.761 228.505C207.697 221.129 214.583 210.979 216.061 203.459C216.795 199.727 216.169 194.73 217.892 191.368Z" fill="white" fill-opacity="0.988235"/>
<path d="M154.137 445.639C155.228 445.84 154.744 445.615 155.608 446.397C157.21 452.761 158.876 483.875 157.854 490.108L157.046 490.294C155.743 488.516 154.209 450.576 154.137 445.639Z" fill="white"/>
<path d="M296.262 276.768L297.209 277.097C299.421 281.468 279.325 296.266 275.379 299.253C274.111 298.901 274.613 299.223 273.747 298.374C274.029 297.426 294.56 277.7 296.262 276.768Z" fill="white" fill-opacity="0.988235"/>
<path d="M367.961 180.261C370.066 180.003 371.021 179.85 373.007 180.562L373.155 181.058C370.378 182.665 363.993 183.273 360.548 183.952C351.776 185.681 343.991 188.501 335.622 191.574C334.064 192.245 333.463 192.617 331.752 192.734L331.403 192.303C332.054 190.617 335.682 189.442 337.313 188.728C347.111 184.439 357.34 181.579 367.961 180.261Z" fill="white"/>
<path d="M589.585 213.574C590.292 213.77 589.988 213.588 590.426 214.249C589.38 216.544 586.792 218.716 585.275 222.46C583.98 225.658 583.091 229.709 582.187 232.241C581.164 235.087 574.942 246.011 573.228 248.234C569.12 245.958 578.166 235.65 579.035 233.359C582.218 224.937 581.875 219.178 589.585 213.574Z" fill="white" fill-opacity="0.984314"/>
<path d="M493.627 204.753L494.177 204.663L494.544 205.212C493.442 209.935 483.227 209.066 479.538 208.581L479.198 208.968C479.676 210.542 481.568 213.348 482.52 214.879C492.51 220.533 490.906 211.286 493.434 208.971L494.102 209.101L494.789 210.146C492.948 221.592 483.816 222.065 478.645 212.368C477.594 210.392 477.492 207.911 477.31 205.665C484.614 207.787 486.751 207.286 493.627 204.753Z" fill="white"/>
<path d="M207.345 164.44C209.305 165.385 208.766 167.195 208.367 169.16C207.395 173.945 206.978 179.266 206.186 183.976C205.556 187.732 206.515 199.752 205.635 202.289C201.634 199.026 203.401 170.096 207.345 164.44Z" fill="white"/>
<path d="M116.945 237.752C121.303 237.72 129.656 237.139 133.09 239.155L133.239 239.734C131.222 240.538 122.924 240.332 120.468 240.194C122.352 243.413 122.828 244.586 125.997 246.529C128.839 245.94 129.855 243.057 132.345 244.248C133.527 247.591 131.474 248.781 128.385 249.381C123.181 250.392 117.085 242.56 116.945 237.752Z" fill="white"/>
<path d="M187.003 165.742L187.505 166.067C188.494 167.718 188.244 181.083 188.534 184.013C188.946 188.172 189.218 193.555 189.472 197.846C189.542 199.038 189.282 199.302 188.504 200.018C184.439 195.49 184.539 171.292 187.003 165.742Z" fill="white"/>
<path d="M200.872 361.956C201.332 361.92 201.792 361.895 202.253 361.881C205.208 361.795 214.064 362.203 216.106 364.145C214.427 366.44 204.01 364.472 201.006 364.786C198.628 365.035 198.266 365.047 195.829 365.748C192.054 366.806 186.059 370.166 183.717 370.306L183.635 369.805C187.623 364.818 194.753 362.611 200.872 361.956Z" fill="white"/>
<path d="M474.83 157.762C478.598 157.8 481.082 158.061 484.396 159.807C490.531 163.044 496.021 168.421 496.31 175.73C496.377 177.412 496.653 178.339 495.828 179.938L494.947 180.041C492.158 169.932 490.013 163.871 478.294 160.351C476.872 159.924 473.854 159.644 472.862 158.781C473.384 157.896 473.459 158.145 474.83 157.762Z" fill="white" fill-opacity="0.984314"/>
<path d="M305.566 278.33C311.083 282.54 287.905 297.741 285.243 299.414C284.52 299.19 284.847 299.386 284.377 298.628C284.769 297.331 299.793 284.511 301.569 281.627C302.106 280.756 304.584 278.865 305.566 278.33Z" fill="white" fill-opacity="0.988235"/>
<path d="M309.687 177.667C311.41 178.177 311.707 178.318 313.241 179.258L313.344 179.491C315.929 185.48 316.245 189.191 311.817 194.59C310.432 195.097 308.66 195.558 307.217 195.978C304.755 195.095 304.23 194.998 302.095 193.391C301.618 191.934 301.355 191.409 301.723 190.069C303.926 189.724 311.944 198.269 312.199 185.297C312.334 178.424 309.178 181.349 307.252 179.499C307.74 178.425 308.453 178.335 309.687 177.667Z" fill="white" fill-opacity="0.988235"/>
<path d="M383.272 209.509L382.589 210.281C382.091 210.347 381.786 210.541 381.43 210.138C378.25 206.545 372.653 179.333 379.801 178.533L380.402 179.12C380.35 179.399 380.086 180.99 380.026 181.13C377.066 185.165 379.838 202.276 382.369 206.151C382.607 207.133 382.911 208.613 383.272 209.509Z" fill="white" fill-opacity="0.988235"/>
<path d="M76.0383 355.252L76.792 355.729C76.6774 366.013 75.1638 376.152 77.0673 386.514C77.1419 386.921 76.4452 387.153 76.1264 387.338C73.0363 380.611 71.7727 361.425 76.0383 355.252Z" fill="white"/>
<path d="M380.68 224.699C382.529 224.714 383.535 225.477 385.089 226.158C391.814 229.042 391.806 236.288 395.075 241.609C397.062 244.842 402.916 246.366 402.687 251.149C401.387 251.618 401.988 251.647 400.838 251.312C398.306 246.301 396.288 246.754 392.944 242.946C390.957 240.683 390.988 235.426 388.964 232.446C386.622 228.999 383.192 227.693 380.68 224.699Z" fill="white" fill-opacity="0.980392"/>
<path d="M416.441 213.349L417.499 213.711C418.423 215.024 418.163 229.457 417.515 231.472C415.299 238.378 412.783 238.289 414.189 246.173L413.624 246.313C408.308 244.605 415.453 232.65 415.627 229.719C415.97 223.962 414.466 219.015 416.441 213.349Z" fill="white"/>
<path d="M308.76 287.418C309.369 287.81 309.177 287.705 309.618 288.357C309.428 293.944 294.739 302.553 289.727 304.986C289.353 304.817 289.084 304.573 288.744 304.32L288.871 303.68C290.239 302.1 296.706 297.845 298.934 296.017C301.729 293.724 306.103 288.897 308.76 287.418Z" fill="white" fill-opacity="0.988235"/>
<path d="M561.176 241.604C560.683 237.214 556.654 234.976 555.441 231.188C554.351 227.783 554.126 221.016 553.391 217.266C553.182 216.187 553.474 215.699 554.023 215.031C558.506 217.319 556.409 224.747 558.123 229.381C559.644 233.477 560.193 233.229 562.322 236.758C561.895 237.725 561.516 240.271 561.176 241.604Z" fill="white" fill-opacity="0.988235"/>
<path d="M123.093 213.482C127.047 214.576 135.808 231.166 131.9 234.785C129.644 235.396 125.675 234.854 123.337 234.474C122.084 234.26 122.56 234.566 121.838 233.565L121.556 233.723L121.789 233.148C124.449 231.693 128.952 232.42 131.774 232.971C130.627 230.101 129.552 227.437 128.275 224.626C126.744 221.254 123.96 216.898 123.093 213.482Z" fill="white"/>
<path d="M196.763 376.971C201.559 376.86 206.292 377.061 210.722 379.09C212.367 379.843 215.981 381.901 214.785 384.002C213.238 384.159 213.58 384.021 211.935 383.251C205.607 379.352 200.842 380.349 193.785 379.548C192.646 379.419 192.051 379.382 191.476 378.61C192.363 377.858 192.448 377.854 193.599 377.622L196.763 376.971Z" fill="white"/>
<path d="M285.373 164.163L286.18 164.824C286.661 167.149 282.585 181.594 281.695 184.942C284.153 184.48 287.974 183.039 290.295 183.862L290.553 184.404L289.83 185.025C287.596 186.131 283.747 187.626 281.278 186.674C280.679 186.442 279.751 185.605 279.803 184.937C280.188 180.06 283.112 168.137 285.373 164.163Z" fill="white"/>
<path d="M343.534 404.907L344.802 405.321C346.16 407.814 347.55 414.845 348.685 418.175C350.226 422.69 355.341 428.113 355.193 431.222C348.37 431.289 343.653 410.527 343.534 404.907Z" fill="white" fill-opacity="0.980392"/>
<path d="M287.813 196.116C285.829 196.245 279.133 196.497 277.9 195.275L277.568 195.284C280.693 194.072 287.021 194.429 290.331 194.878L290.081 195.39C286.43 199.876 290.076 203.489 281.399 206.365L280.973 206.175C278.082 204.902 273.451 201.267 276.709 198.119C278.998 199.145 278.199 204.009 282.529 203.625C285.564 201.88 286.358 199.214 287.813 196.116Z" fill="white"/>
<path d="M200.975 370.267C204.21 370.191 214.369 369.889 216.071 372.887C214.479 374.414 208.296 373.183 206.098 372.873C203.446 372.811 190.623 373.728 189.668 373.145C191.549 371.49 198.441 370.492 200.975 370.267Z" fill="white"/>
<path d="M575.871 195.708L576.672 196.143C577.368 197.476 576.151 198.639 575.073 200.042C569.381 207.443 566.975 211.701 565.387 221.109L564.53 221.04C563.693 219.542 564.629 216.443 564.937 214.595C565.999 208.204 570.364 199.422 575.871 195.708Z" fill="white" fill-opacity="0.988235"/>
<path d="M177.148 327.632C177.955 328.313 178.056 328.449 178.39 329.573C180.759 337.535 183.06 346.112 183.861 354.377C183.91 354.88 183.22 356.266 182.974 356.74L182.765 356.843L182.087 356.509C181.091 354.151 180.24 347.03 179.65 344C178.971 340.515 176.358 330.414 177.148 327.632Z" fill="white"/>
<path d="M270.449 410.527C270.891 410.725 271.009 410.891 271.395 411.215C272.096 418.214 259.719 426.742 254.173 429.401L253.366 429.254C253.257 427.986 255.504 426.908 256.696 426.197C263.647 422.057 266.329 417.112 270.449 410.527Z" fill="white" fill-opacity="0.980392"/>
<path d="M467.222 230.962L467.325 230.656C469.181 224.97 468.727 219.18 467.269 213.443L467.514 212.626L468.308 212.372C471.109 214.104 474.205 228.92 468.174 231.579L467.222 230.962Z" fill="white"/>
<path d="M414.233 178.198C418.297 177.778 431.462 180.221 434.622 182.597L434.753 183.527C431.711 184.113 419.071 180.7 415.481 179.658C414.481 179.368 414.552 178.997 414.233 178.198Z" fill="white"/>
<path d="M381.338 215.268C385.931 215.571 396.035 225.69 395.822 230.527C395.063 230.547 395.296 230.55 394.548 230.341C391.663 226.325 388.513 222.512 384.85 219.187C383.473 217.936 382.112 216.994 381.338 215.268Z" fill="white" fill-opacity="0.984314"/>
<path d="M394.496 205.31C398.942 205.522 407.999 218.052 406.483 222.558C406.194 222.434 405.701 222.09 405.416 221.908C403.216 217.643 401.091 213.899 398.109 210.15C396.833 208.547 394.83 207.028 394.496 205.31Z" fill="white" fill-opacity="0.988235"/>
<path d="M117.251 210.52C118.451 211.014 118.388 210.987 119.281 211.941L119.223 212.717C117.611 214.487 113.367 216.958 111.181 218.287C109.951 218.493 110.484 218.618 109.503 218.032C107.627 214.047 114.414 211.938 117.251 210.52Z" fill="white" fill-opacity="0.988235"/>
<path d="M482.473 187.115C484.629 188.247 486.245 193.175 488.362 195.057C489.405 195.982 490.598 197.27 491.656 198.24C489.2 200.569 488.319 200.964 485.317 202.312C483.843 202.115 483.974 202.371 483.069 201.555L483.361 200.924C485.099 199.735 487.213 199.202 489.231 198.552C485.842 195.432 482.789 192.006 482.473 187.115Z" fill="white" fill-opacity="0.984314"/>
<path d="M525.231 243.597C527.807 246.835 521.507 257.886 518.568 260.683C518.457 260.51 518.319 260.351 518.24 260.164C517.533 258.537 523.861 246.07 525.231 243.597Z" fill="white"/>
<path d="M256.842 224.86L258.067 225.449C258.564 226.769 258.176 229.922 258.314 231.864C258.535 234.958 262.141 241.495 261.545 243.652C256 242.851 256.413 228.902 256.842 224.86Z" fill="white"/>
<path d="M250.053 229.222L250.925 229.826C251.538 232.949 252.411 236.016 253.532 238.995C254.378 241.248 256.523 245.391 256.04 247.511C251.487 245.985 249.21 233.481 250.053 229.222Z" fill="white"/>
<path d="M242.816 233.978C243.741 234.146 243.722 234.079 244.41 234.699C245.503 237.815 250.806 247.9 251.048 249.59C245.694 250.069 243.499 237.846 242.816 233.978Z" fill="white" fill-opacity="0.984314"/>
<path d="M518.738 239.199C520.732 242.768 516.51 254.813 513.034 257.689C512.39 257.01 512.639 257.404 512.489 256.381C513.37 254.125 518.224 239.871 518.738 239.199Z" fill="white"/>
<path d="M510.581 235.513C514.997 237.438 510.245 251.173 507.966 254.475L507.385 254.261C506.908 253.646 506.659 253.261 507.046 252.459C509.965 246.414 510.202 242.137 510.581 235.513Z" fill="white"/>
<path d="M382.37 206.151C384.508 203.379 389.947 196.479 393.876 197.536L393.919 198.152C388.34 203.751 388.296 202.427 383.272 209.509C382.911 208.613 382.607 207.132 382.37 206.151Z" fill="white"/>
<path d="M387.396 209.354C391.839 210.221 398.666 218.801 399.191 223.783C398.942 223.726 398.117 223.493 398.065 223.366C396.908 220.695 387.955 211.086 387.396 209.354Z" fill="white" fill-opacity="0.980392"/>
<path d="M583.253 199.85C583.565 199.83 583.873 199.971 584.209 200.073C583.972 201.94 579.031 205.913 577.601 208.353C576.092 210.93 575.744 211.419 574.678 214.353L573.923 214.265C573.564 213.236 573.674 213.147 574.152 211.855C576.108 206.561 578.122 202.435 583.253 199.85Z" fill="white"/>
<path d="M588.483 204.608L589.225 204.597L589.66 205.175C589.51 206.738 581.013 213.913 578.904 216.077C578.312 216.002 578.608 216.1 578.086 215.48C578.722 212.33 585.722 206.4 588.483 204.608Z" fill="white"/>
<path d="M311.359 202.114C313.76 202.488 314.671 204.746 316.728 206.736L317.043 207.037C318.541 207.29 320.031 207.203 320.747 208.524L320.329 209.801C317.516 210.294 316.379 209.462 313.969 208.105C313.058 206.457 311.461 203.868 311.359 202.114Z" fill="white" fill-opacity="0.984314"/>
<path d="M129.993 208.981C132.273 209.053 134.202 209.108 135.802 210.791C136.332 212.237 136.346 211.554 135.914 212.908L135.135 213.3L134.541 212.754C132.537 211.777 129.851 213.483 127.936 210.951C128.477 209.603 128.479 209.948 129.993 208.981Z" fill="white"/>
<path d="M281.743 146.781C282.861 146.756 282.799 146.742 283.857 147.098L283.804 147.84C280.626 150.542 280.255 153.63 279.566 157.517L278.911 157.898C276.464 155.169 279.389 148.995 281.743 146.781Z" fill="white"/>
<path d="M315.613 198.946C317.524 199.084 324.713 203.742 325.556 205.304C321.093 206.912 317.319 202.599 315.613 198.946Z" fill="white" fill-opacity="0.984314"/>
<path d="M383.359 167.107L383.786 166.845L384.042 167.036C385.281 167.944 385.438 168.018 386.962 168.407L387.014 168.827L386.268 169.213C385.429 172.315 387.363 176.25 384.302 178.361C381.954 177.598 386.075 171.039 383.359 167.107Z" fill="white"/>
<path d="M479.49 165.88C483.796 165.466 487.564 170.311 488.575 174.016L487.343 173.707C486.182 172.628 479.98 166.791 479.49 165.88Z" fill="white" fill-opacity="0.988235"/>
<path d="M405.017 231.164L405.665 231.457C406.352 232.773 405.791 241.796 404.82 243C402.161 239.526 403.769 234.871 405.017 231.164Z" fill="white"/>
<path d="M165.121 409.034L166.291 409.319L166.572 410.168C166.022 412.89 164.801 414.809 163.272 417.104C160.225 415.121 163.516 411.029 165.121 409.034Z" fill="#0C3228"/>
<path d="M296.196 149.74L296.848 150.132C296.846 150.347 296.844 150.561 296.843 150.775C293.837 153.158 292.299 153.948 289.936 156.985C289.425 156.762 289.533 156.745 289.12 156.27C289.078 153.012 293.352 150.435 296.196 149.74Z" fill="white" fill-opacity="0.980392"/>
<path d="M305.187 167.535C309.583 166.768 312.729 169.568 314.031 173.576C311.343 174.028 309.778 170.059 307.157 168.971C306.313 168.621 305.837 168.161 305.187 167.535Z" fill="white" fill-opacity="0.988235"/>
<path d="M290.51 171.072C293.239 170.826 295.941 171.432 296.916 174.359C296.356 175.649 296.797 175.131 295.399 175.828C291.714 171.737 293.209 174.186 289.211 173.044C289.404 171.855 289.469 172.131 290.51 171.072Z" fill="white" fill-opacity="0.984314"/>
<path d="M275.866 169.415C278.564 169.17 282.928 170.82 281.038 173.618L280.059 173.489C277.339 170.998 277.826 172.149 274.066 171.668C274.228 170.612 274.926 170.295 275.866 169.415Z" fill="white" fill-opacity="0.988235"/>
<path d="M569.1 224.876C572.576 226.169 572.039 232.696 571.158 235.7L570.384 235.813C569.381 235.004 569.87 232.298 569.843 230.867C569.803 228.748 569.456 226.942 569.1 224.876Z" fill="white"/>
<path d="M305.481 157.308C306.633 157.344 308.296 157.811 309.085 158.663L308.677 159.329C307.247 160.003 306.008 159.721 304.385 159.605C302.884 159.993 302.309 160.271 300.814 159.953L300.718 159.412C302.008 158.092 303.702 157.804 305.481 157.308Z" fill="white"/>
<path d="M475.074 191.459C477.211 191.327 479.325 191.429 480.016 193.778L479.514 194.268C477.989 194.384 477.63 194.006 476.216 193.217C475.299 194.545 475.209 194.861 473.842 195.588L473.344 195.296C473.301 193.725 474.166 192.828 475.074 191.459Z" fill="white" fill-opacity="0.984314"/>
<path d="M561.176 241.604C561.516 240.271 561.895 237.725 562.322 236.758C563.661 239.156 563.76 244.115 561.643 245.968C560.533 244.903 561.018 243.067 561.176 241.604Z" fill="white"/>
<path d="M472.689 167.803C475.525 168.823 477.405 172.366 478.772 174.893C476.145 175.037 473.012 170.11 472.689 167.803Z" fill="white" fill-opacity="0.964706"/>
<path d="M116.851 221.322C118.885 221.495 119.102 221.384 119.819 223.312C119.648 224.87 119.557 224.94 118.73 226.321C117.497 225.41 117.219 225.212 116.268 224.023C116.009 222.372 115.979 223.017 116.851 221.322Z" fill="white" fill-opacity="0.968627"/>
<path d="M491.66 187.223C493.501 188.137 493.612 188.221 494.323 189.74L494.062 190.303C492.672 190.261 492.869 190.041 491.491 188.977C489.859 189.892 489.836 190.418 488.52 190.153L488.532 189.427C489.492 187.968 490.049 187.901 491.66 187.223Z" fill="white"/>
<path d="M466.511 170.923C467.956 171.603 470.323 176.811 470.583 178.467C467.925 176.852 465.476 174.257 466.511 170.923Z" fill="white" fill-opacity="0.968627"/>
<path d="M132.489 217.828C133.974 217.993 134.503 218.315 135.34 219.453C135.475 220.926 135.238 221.096 134.438 222.447C132.241 221.817 132.042 219.75 132.489 217.828Z" fill="white" fill-opacity="0.980392"/>
</g>
<defs>
<clipPath id="clip0_3_9">
<rect width="632" height="514" fill="white"/>
</clipPath>
</defs>
</svg>
