<svg width="400" height="400" viewBox="0 0 400 400" fill="none" xmlns="http://www.w3.org/2000/svg">
<path d="M337.285 331.38C340.885 330.98 349.017 343.31 351.25 346.39C355.902 352.822 360.522 359.277 365.11 365.757C368.627 370.702 372.227 375.612 375.61 380.645C376.54 382.032 377.542 383.985 376.302 385.392C373.93 386.387 355.14 386.077 351.065 386.107L311.692 386.33C267.712 386.77 223.731 386.925 179.75 386.79L58.1249 387.537C52.3507 387.555 21.5739 388.015 18.5185 385.467C18.1111 385.13 18.1654 384.85 18.1094 384.357C19.0453 381.927 26.7099 371.212 28.5414 368.57C33.0547 362.037 37.6032 355.53 42.1867 349.047C45.1397 344.892 48.3149 340.347 51.7337 336.597C53.2779 334.902 54.1514 334.085 56.3964 333.942C65.0279 333.387 73.9642 333.705 82.6242 333.63L139 333.22L286 331.695C302.95 331.512 320.387 331.715 337.285 331.38ZM172.172 354.172C172.046 356.005 171.953 358.135 171.705 359.932C185.816 360.185 199.621 359.865 213.682 359.7L267.062 359.46C268.737 359.47 270.545 359.442 272.207 359.5C271.53 357.515 271.16 356.012 270.675 353.992C267.257 353.595 261.64 353.755 258.03 353.76L237.162 353.782C217.556 353.795 196.438 353.385 176.977 353.855L172.172 354.172ZM58.6329 374.932C75.5722 375.002 93.0634 374.312 110.026 374.452C110.333 371.492 110.71 368.792 111.157 365.847C107.874 365.28 100.717 364.995 97.2899 365.117C92.6034 365.407 87.8099 365.287 83.1044 365.325L51.2497 365.3C49.7152 367.397 46.3597 372.805 45.1097 375.192C49.6367 375.19 54.2269 374.917 58.6329 374.932ZM209.283 364.89C209.681 367.75 209.74 370.7 210.139 373.44C228.215 373.042 246.295 372.875 264.375 372.937C268.252 372.937 272.772 373.045 276.595 372.907C275.55 370.327 274.677 367.262 273.847 364.567C269.325 364.007 257.785 364.252 252.885 364.3C242.552 364.4 231.565 364.08 221.299 364.357C217.098 364.67 213.53 364.407 209.283 364.89ZM114.998 365.13C114.555 367.965 114.174 370.98 113.648 373.775C117.105 374.487 119.203 374.462 122.679 374.457C132.713 374.427 142.71 373.942 152.766 373.892C158.039 373.865 162.237 373.437 167.762 373.86C168.295 370.607 168.077 368.04 168.434 365.065C165.288 364.885 162.853 364.777 159.713 364.86C145.462 365.645 129.473 364.722 114.998 365.13ZM278.117 364.222C278.915 367.095 279.755 370.35 280.81 373.1C283.31 373.185 285.482 373.265 287.99 373.042C300.922 372.65 314.652 373.382 327.41 372.827C324.297 366.29 325.287 363.542 317.38 363.857C312.017 364.16 306.01 364.177 300.627 364.12C293.765 364.047 284.82 364.915 278.117 364.222ZM97.7934 342.245C97.1302 344.147 95.6954 347.607 95.9452 349.492C97.3457 350.74 109.691 349.815 112.532 349.717C119.423 349.495 126.318 349.41 133.213 349.46H138.99C138.97 346.887 139.114 344.817 139.303 342.252C134.737 342.055 130.048 342.042 125.475 342.102C117.576 342.207 109.601 341.96 101.713 342.122C100.437 342.16 99.0587 342.175 97.7934 342.245ZM65.2362 342.607C63.7187 343.53 61.0162 348.195 60.0667 349.875C64.4459 350.867 68.3609 350.29 72.7699 350.295C78.0667 350.302 83.5132 349.925 88.7707 349.962L92.0842 349.997C92.7944 347.575 93.6054 344.99 94.2542 342.567C84.5817 342.507 74.9087 342.52 65.2362 342.607ZM172.178 349.08C172.271 346.872 172.436 344.307 172.776 342.117L152.288 342.095C149.197 342.095 145.058 342.215 142.061 342.052C141.998 343.95 141.759 347.347 142.346 349.03C143.318 349.575 169.503 349.487 172.178 349.08ZM176.175 342.22C176.086 344.175 176.029 347.36 175.762 349.16C179.139 349.252 183.422 349.372 186.781 349.04C192.991 348.947 199.757 348.875 205.957 349.025L204.838 341.915C201.38 341.745 197.916 341.727 194.456 341.867C188.407 342.235 182.254 342.022 176.175 342.22ZM72.5817 360.735L75.3537 360.655C75.9327 358.655 76.5077 356.44 77.3114 354.535C74.0634 354.172 70.5282 354.315 67.2387 354.245C64.2707 354.182 61.2619 354.012 58.3074 354.11C56.7274 355.015 54.8942 359.182 53.6752 360.94C59.3572 360.987 67.0309 361.205 72.5817 360.735ZM150.245 354.112C143.923 354.522 135.951 354.315 129.511 354.31C129.409 355.502 128.863 359.232 128.963 360.012C130.827 360.635 144.289 360.237 147.375 360.25C154.18 360.252 161.76 360.415 168.504 360.16C168.464 357.93 168.42 356.462 168.817 354.232C163.791 353.892 155.397 353.917 150.245 354.112ZM176.295 373.667C186.324 373.432 196.837 373.727 206.623 373.37C206.3 370.845 205.958 367.152 205.5 364.75C204.544 364.682 203.007 364.52 202.099 364.61C193.453 365.202 180.808 364.747 171.789 364.817L171.834 373.717L176.295 373.667ZM103.38 354.357C96.2104 354.895 87.4909 354.352 80.1544 354.582C79.6919 356.442 79.1092 358.967 78.4949 360.727C85.2639 360.685 95.9527 361.032 102.313 360.512C109.826 360.275 118.257 360.817 125.595 360.142C125.596 358.662 126.002 356.025 126.355 354.552C120.288 353.92 109.7 354.105 103.38 354.357ZM309.5 353.96C310.035 355.655 310.6 357.372 311.062 359.09C316.32 359.545 325.957 359.252 331.375 359.245C334.69 359.235 338.152 359.275 341.45 359.125C340.075 356.872 338.802 354.195 336.07 353.755C331.412 353.005 324.667 353.21 319.922 353.362C316.395 353.577 312.98 353.472 309.5 353.96ZM287.497 341.672C282.732 341.417 277.2 341.545 272.38 341.55L248.917 341.6C248.687 342.71 250.135 348.467 251.687 348.605C255.327 348.927 259.12 348.742 262.785 348.702L279.502 348.66C282.895 348.622 286.31 348.39 289.68 348.442L289.987 348.005C289.695 346.57 288.132 343.1 287.497 341.672ZM327.162 363.77C328.242 365.845 330.852 372.172 332.55 372.38C337.995 373.045 345.287 372.57 350.83 372.682C348.892 369.575 346.165 364.275 342.475 363.845C337.772 363.297 332.017 364.075 327.162 363.77ZM275.46 353.837L274.697 354.122C274.307 355.265 275.622 357.717 276.025 359.077C279.632 359.357 284.262 359.257 287.942 359.252L306.3 359.227L306.835 359.03C306.99 357.852 305.655 355.112 305.152 353.97C301.94 353.625 296.702 353.76 293.34 353.762C287.38 353.742 281.42 353.767 275.46 353.837ZM294.297 348.317C296.05 348.442 297.805 348.502 299.562 348.497C310.597 349.192 323.182 348.295 334.342 348.752C333.1 346.795 331.977 344.692 330.685 342.775C329.697 341.312 329.015 340.83 327.242 340.85C321.7 341.3 315.845 341.057 310.265 341.14C304.09 341.23 297.602 341.495 291.44 341.302C292.407 343.635 293.362 345.972 294.297 348.317ZM208.465 341.832C208.677 344.215 208.957 346.59 209.307 348.955C221.703 349.022 234.178 348.422 246.445 348.7C246.652 347.95 245.067 343.027 244.741 341.912C233.435 341.305 219.954 342.037 208.465 341.832Z" fill="#1B1A1B"/>
<path d="M241.987 145.53C259.093 145.234 276.203 145.551 293.305 145.638C300.335 145.674 332.02 145.222 336.898 147.021C337.87 147.379 338.278 147.867 338.69 148.835C340.513 153.099 340.288 161.624 340.438 166.419C341.093 187.38 340.755 208.358 340.57 229.321L340.365 274.275C340.178 290.12 340.548 306.015 340.313 321.862C340.295 322.955 340.073 326.79 338.608 326.942C331.265 327.712 323.763 327.415 316.385 327.565C292.868 328.062 269.345 328.315 245.823 328.317L139.739 329.092C120.672 329.4 101.603 329.48 82.5347 329.332C73.8097 329.335 65.0839 329.337 56.3597 329.342C54.5977 329.36 52.6802 328.845 52.4844 326.775C52.1359 323.09 52.4079 319.19 52.4207 315.475L52.4384 291.53L52.4297 204.724C52.4127 192.25 52.5394 179.776 52.8097 167.304C52.8974 163.999 52.8814 149.913 54.2732 147.986C57.8614 145.384 77.1754 145.653 82.3297 145.649L113.375 145.651C123.105 145.648 133.686 145.461 143.355 145.75C141.246 151.256 139.359 157.067 137.406 162.657C126.212 162.503 115.038 162.421 103.843 162.323C92.6499 162.226 79.0417 161.435 68.0974 162.772C68.2757 192.451 68.0159 222.13 67.3187 251.8L66.7147 281.067C66.4477 291.237 66.0822 302.485 66.4402 312.6C69.4372 312.105 75.0927 312.047 78.2327 311.96C85.5262 311.705 92.8242 311.6 100.122 311.647L156.867 311.642L184.578 311.652C187.446 311.647 199.737 311.417 201.579 312.062C209.859 314.912 218.09 318.027 226.395 320.8C231.505 322.507 237.208 325.065 242.587 324.16C247.009 320.485 248.483 316.842 250.625 311.605C253.76 311.332 257.91 311.437 261.095 311.442L277.368 311.457L326.185 311.19C326.938 305.152 326.52 298.382 326.67 292.232C327.195 270.715 326.965 249.008 326.965 227.457L326.95 182.522C326.94 176.766 327.48 169.349 327.053 163.923C323.158 162.9 313.6 163.092 309.253 163.091L286.448 163.099C283.24 163.099 276.995 163.423 274.315 162.279C269.04 160.028 263.678 157.589 258.373 155.356C254.828 153.867 251.273 152.399 247.712 150.952C246.027 150.276 241.546 148.933 240.893 147.57C241.034 146.598 241.382 146.303 241.987 145.53Z" fill="#1B1A1B"/>
<path d="M302.878 8.60227C315.488 6.30214 353.235 12.7863 361.34 23.0588C370.5 34.6691 376.668 63.5581 379.133 78.7421C383.345 104.701 385.128 132.041 383.09 158.231C380.428 191.831 371.57 224.648 356.963 255.023C356.198 256.645 347.84 276.4 343.68 271.228C342.83 270.17 342.203 258.59 342.83 256.675C344.788 250.71 348.843 243.358 351.31 237.375C356.095 225.83 361.17 213.577 365.24 201.83C360.118 193.036 357.848 182.87 358.74 172.732C359.88 160.315 364.39 152.458 373.79 144.65C359.655 128.641 353.608 101.555 369.275 84.3049C370.343 83.1284 371.37 81.7631 372.335 80.4964C369.53 76.6894 365.328 74.8836 361.868 69.8061C355.525 60.4934 353.195 51.7926 355.055 40.6936C356.37 34.9356 357.423 31.9279 361.513 27.7594C354.645 18.7715 335.345 14.0827 324.628 12.5354C306.023 9.97659 288.578 12.5434 271.11 18.4558C237.432 29.8539 235.575 57.7094 253.933 84.2616C256.345 87.7484 259.215 91.2981 261.748 94.7139C272.708 82.6361 284.04 73.6604 301.293 73.6569C318.793 73.6534 328.488 86.8844 328.498 103.42C328.505 116.259 319.223 120.798 307.545 120.497C291.97 120.096 273.05 111.397 262.333 100.145C260.23 102.815 251.518 114.549 248.457 113.777C247.824 112.923 247.98 113.318 247.837 112.285C248.8 109.626 257.205 100.469 259.578 97.5021C249.125 84.3819 240.44 72.1184 239.125 54.7734C236.544 20.7144 276.695 10.3647 302.878 8.60227ZM264.763 97.3916C270.065 103.098 286.613 113.129 294.058 114.456C305.518 117.919 325.345 119.919 324.29 102.885C323.955 97.4541 324.05 93.1986 320.92 88.3271C315.735 79.5951 307.08 76.8841 297.455 77.6059C282.645 79.6051 274.298 86.6129 264.763 97.3916ZM371.78 136.88C372.805 138.425 374.575 140.845 375.743 142.286C375.35 140.694 375.153 139.139 375.373 137.714C376.205 132.26 373.985 86.4279 371.918 84.4354C365.625 90.5064 363.038 99.1474 362.895 107.716C362.705 115.731 364.563 123.661 368.293 130.757C369.365 132.839 370.828 134.99 371.78 136.88ZM365.113 193.813C365.595 195.007 366.038 196.07 366.58 197.238C370.095 185.421 372.13 173.152 373.718 160.939C374.005 158.711 374.968 149.343 374.318 147.936C366.14 155.404 363.318 163.035 362.503 174.03C362.078 179.743 362.96 188.467 365.113 193.813ZM367.935 72.6701C368.705 73.2556 369.808 74.2374 370.683 74.4436C370.74 70.2249 363.76 33.0111 361.88 30.6924C352.868 44.8834 356.8 60.9869 367.935 72.6701Z" fill="#198758"/>
<path d="M168.535 247.613C174.105 247.389 179.662 248.302 184.867 250.297C203.441 257.422 216.758 283.29 227.423 299.03C232.858 307.052 237.101 314.6 240.997 323.412C227.223 319.475 213.44 313.99 199.816 309.482C195.789 308.15 191.091 306.612 187.206 304.97C181.903 303.382 175.621 300.977 170.343 299.107L141.085 288.737L119.306 280.977C112.516 278.535 100.193 274.722 96.2334 268.907C98.1384 267.81 107.341 264.355 109.974 263.41C127.822 256.997 149.551 248.312 168.535 247.613Z" fill="#198758"/>
<path d="M195.003 170.177C212.968 168.144 229.167 181.089 231.148 199.06C233.128 217.03 220.136 233.192 202.16 235.12C184.257 237.04 168.176 224.113 166.204 206.216C164.232 188.319 177.113 172.201 195.003 170.177ZM197.877 232.272C214.107 232.576 227.546 219.737 227.984 203.51C228.421 187.283 215.694 173.738 199.471 173.166C183.057 172.588 169.318 185.498 168.875 201.916C168.433 218.333 181.456 231.965 197.877 232.272Z" fill="#198758"/>
<path d="M198.266 181.04C202.144 180.799 207.148 181.894 210.49 183.905C217.187 187.936 207.636 198.028 204.647 202.099C199.368 208.862 194.182 207.767 194.127 198.894C194.101 194.73 194.561 183.235 198.266 181.04Z" fill="#198758"/>
<path d="M193.509 208.377C195.794 208.063 198.071 209 199.473 210.831C200.876 212.662 201.186 215.105 200.287 217.228C199.388 219.352 197.417 220.829 195.126 221.096C191.635 221.504 188.467 219.024 188.024 215.537C187.58 212.05 190.027 208.857 193.509 208.377Z" fill="#198758"/>
<path d="M123.531 182.809C123.732 182.91 123.932 183.011 124.132 183.112C126.59 186.951 129.593 192.684 132.087 196.249C140.845 208.767 150.026 220.766 159.56 232.675C161.664 235.303 165.968 241.224 168.347 242.929C153.107 245.538 141.333 247.964 126.564 252.863C117.708 255.588 103.194 261.538 94.7744 265.61C98.6244 249.745 104.746 233.217 110.306 217.799C114.343 206.603 118.835 193.64 123.531 182.809Z" fill="#198758"/>
<path d="M272.6 235.504C272.72 235.511 273.135 235.673 273.267 235.72L273.435 236.234C271.275 246.701 267.837 257.202 264.48 267.35C261.372 276.867 258.115 286.337 254.71 295.752C251.985 303.2 249.051 311.092 245.733 318.327C245.365 319.13 244.788 319.985 243.908 320.252C242.068 319.517 231.934 300.615 230.275 297.75C228.915 295.71 227.279 292.707 225.941 290.517C223.298 286.187 220.538 281.93 217.664 277.75C215.643 274.78 213.541 271.865 211.36 269.01C209.65 266.777 206.373 262.84 205.259 260.512C226.768 256.41 252.962 244.911 272.6 235.504Z" fill="#198758"/>
<path d="M212.954 139.719C219.963 141.888 228.284 145.489 235.194 148.156L237.419 148.898C238.486 149.577 246.956 152.8 248.832 153.563C255.99 156.459 263.107 159.454 270.182 162.545C276.077 165.155 282.852 168.141 288.03 171.892C288.332 180.025 279.75 198.374 276.867 207.043C272.522 220.107 274.895 217.731 277.805 230.768C274.975 232.109 264.695 235.52 261.755 236.121C264.597 228.88 267.307 221.191 270.12 213.858C275.015 201.092 280.192 187.644 283.747 174.469C281.475 172.312 273.195 168.817 270.06 167.356C251.52 158.718 232.393 150.453 213.013 143.893C212.936 142.573 212.961 141.058 212.954 139.719Z" fill="#198758"/>
<path d="M155.966 124.814C156.462 124.786 156.958 124.772 157.455 124.772C164.16 124.724 176.19 128.82 183.096 130.435C186.789 131.298 204.241 135.861 205.768 137.355C206.079 138.537 205.768 140.029 205.604 141.285C198.904 139.558 191.03 136.797 183.997 134.872C174.636 132.31 165.416 130.259 156.182 127.813C154.304 130.708 148.704 147.675 147.434 151.433C146.966 153.572 145.239 158.716 144.537 161.014C142.34 168.202 140.21 175.41 138.147 182.636C137.241 185.781 135.766 190.265 135.152 193.314C130.95 189.4 127.996 183.838 125.647 178.628C128.377 174.058 135.065 171.472 137.568 167.19C139.01 164.723 140.618 159.049 141.67 156.06C144.679 147.477 147.501 138.778 150.938 130.357C152.006 127.742 153.282 125.841 155.966 124.814Z" fill="#198758"/>
<path d="M236.566 122.449C236.014 119.784 235.512 117.705 237.102 115.227C239.994 110.716 248.513 111.856 249.035 117.508C249.497 122.503 246.69 124.582 242.402 125.669C241.176 125.345 239.802 124.949 238.578 124.676C237.363 125.955 235.096 128.992 234.075 130.52C234.997 131.253 235.923 132.001 236.759 132.833C240.423 136.482 241.67 145.259 237.42 148.898L235.194 148.155C235.11 145.885 235.924 143.458 236.019 141.121C236.213 136.336 232.095 134.784 230.244 131.073C231.906 127.435 234.06 125.533 236.566 122.449ZM243.611 121.589C245.246 120.982 246.078 119.165 245.471 117.53C244.863 115.895 243.045 115.063 241.411 115.672C239.777 116.28 238.946 118.097 239.553 119.73C240.16 121.364 241.977 122.196 243.611 121.589Z" fill="#1B1A1B"/>
<path d="M159.93 63.8486C162.712 64.1866 162.665 66.7959 162.533 69.1614C162.174 75.5921 162.34 96.9034 158.337 101.091C158.042 100.952 157.04 100.453 156.962 100.255C154.925 95.0964 157.013 66.9499 159.93 63.8486Z" fill="#198758"/>
<path d="M104.795 91.2878C105.56 91.2243 106.327 91.1405 107.063 91.4105C111.374 92.9888 126.835 107.424 128.548 111.252C128.883 111.999 128.708 112.428 128.405 113.117C126.852 113.053 125.726 112.63 124.402 111.854C121.141 109.941 104.939 95.959 104.369 92.8485C104.243 92.1575 104.465 91.8458 104.795 91.2878Z" fill="#198758"/>
<path d="M210.878 133.397C212.03 133.631 212.051 134.016 211.914 135.133C211.106 141.678 209.856 144.855 212.84 151.004C215.428 156.338 222.311 154.629 223.995 157.924C224.152 159.591 223.089 160.122 221.652 160.439C217.096 159.518 213.677 158.745 210.508 155.007C206.35 150.103 205.529 137.585 210.878 133.397Z" fill="#1B1A1B"/>
<path d="M130.446 76.1211C131.907 76.2846 132.986 77.3138 133.835 78.4418C136.084 81.4276 145.828 98.7423 143.413 101.385C138.39 99.9911 132.256 84.9673 130.263 80.1978C129.507 78.3893 129.349 77.6958 130.446 76.1211Z" fill="#198758"/>
</svg>
